<svg width="70" height="70" viewBox="0 0 70 70" fill="none" xmlns="http://www.w3.org/2000/svg">
<path d="M17.3653 57.8062L18.0756 56.8233L13.7759 52.72L10.5085 54.4854L10.1202 54.5522L7.21264 54.0083L6.92852 53.9606L6.78645 53.7125L5.03437 50.5062L4.89231 50.2485L5.00595 49.9814L6.01932 47.5957L6.26556 47.3095L9.7508 45.2197L8.31124 39.5324L4.65554 39.5801L4.29565 39.4656L2.07949 37.8434L1.84273 37.6716L1.82378 37.3853L1.6249 33.5779L1.60596 33.263L1.8522 33.0721L4.26724 31.1446L4.63659 31.011L8.07447 30.9633L9.25832 25.0851L6.55915 23.1289L6.36027 22.8904L5.06278 20.0563L4.92072 19.7509L5.10066 19.4742L7.06111 16.3824L7.22211 16.1248L7.5157 16.0961L10.4327 15.8385L10.7736 15.9244L13.7569 17.6325L18.0566 13.4338L16.172 10.657L16.0678 10.2753L16.2667 7.23122L16.2856 6.92586L16.5508 6.76364L19.8277 4.74064L20.0739 4.58796L20.3486 4.69293L23.0667 5.70442L23.3603 5.94299L25.2449 8.83435L30.9274 7.51749L31.0126 3.77685L31.1547 3.4047L32.9636 1.22902L33.153 1L33.4371 1.00954L37.2633 1.11451L37.5569 1.12405L37.7274 1.36261L39.4889 3.79594L39.612 4.12038L39.792 7.46978L45.3418 8.79618L47.4254 5.74259L47.7285 5.51358L50.4939 4.54979L50.7875 4.44482L51.0432 4.61659L54.0644 6.74455L54.3012 6.90677L54.3201 7.19305L54.519 9.93173L54.4338 10.2943L52.5112 13.4433L56.5931 17.5561L60.0783 15.6858L60.4098 15.619L63.1753 15.8767L63.4973 15.9053L63.6488 16.1916L65.5145 19.5887L65.6566 19.8463L65.5429 20.1135L64.539 22.4991L64.3496 22.7377L61.3 24.9324L62.5786 30.782L66.348 30.9633L66.6984 31.0969L68.763 32.7668L68.9998 32.9576L68.9903 33.263L68.8388 36.9178L68.8293 37.2136L68.5925 37.3853L66.2248 39.1125L65.8839 39.227L62.285 39.3129L61.0917 45.3533L64.1886 47.1186L64.4443 47.3954L65.5524 49.8287L65.6755 50.0959L65.5524 50.3535L63.9424 53.5502L63.8098 53.8174L63.5257 53.8747L60.656 54.4281L60.2677 54.3709L56.6878 52.5006L52.6059 56.7565L53.5246 57.9111L54.3106 58.9035H53.051L17.8483 58.7699L16.6739 58.7604L17.3653 57.8062Z" fill="#9C1116" stroke="#9C1116" stroke-width="0.45" stroke-miterlimit="2.61"/>
<path d="M19.3542 57.1099L19.0227 57.5679L51.8009 57.6824L51.3369 57.1003L51.0054 56.69L51.3748 56.3083L56.1101 51.3367L56.4227 51.0122L56.8204 51.2222L60.6087 53.207L62.9859 52.749L64.3307 50.0771L63.431 48.0922L60.1257 46.2124L59.7469 45.9929L59.8321 45.5635L61.1865 38.6166L61.2812 38.1395L61.7642 38.1299L65.6566 38.0345L67.636 36.5936L67.7591 33.54L66.0923 32.185L62.0578 31.9941L61.5937 31.9751L61.499 31.517L60.031 24.8087L59.9458 24.4174L60.2678 24.1884L63.5068 21.8505L64.3307 19.8943L62.7681 17.0316L60.4951 16.8217L56.7731 18.816L56.3753 19.026L56.0628 18.7111L51.3274 13.9398L50.9959 13.6059L51.2422 13.1955L53.3068 9.81751L53.1363 7.55595L50.6076 5.77151L48.3157 6.57308L46.1185 9.80796L45.8817 10.1419L45.484 10.0465L39.0912 8.51973L38.6461 8.41477L38.6271 7.95673L38.4377 4.3306L36.9508 2.28852L33.7118 2.20264L32.2249 3.99662L32.1302 7.9949L32.1207 8.46248L31.6661 8.56745L25.1219 10.0847L24.7146 10.1801L24.4779 9.82705L22.4795 6.74484L20.216 5.9051L17.46 7.6132L17.2896 10.1419L19.3352 13.1574L19.6194 13.5772L19.2595 13.9303L14.2779 18.7969L13.9559 19.1118L13.5676 18.8828L10.3664 17.0698L7.923 17.2797L6.29403 19.8466L7.39264 22.2322L10.2812 24.322L10.5937 24.551L10.518 24.9327L9.15419 31.6792L9.05949 32.1564L8.57648 32.1659L4.85448 32.2232L2.84668 33.8263L3.01715 37.0326L4.83554 38.3685L8.76589 38.3208L9.23943 38.3112L9.35308 38.7788L11.0105 45.3727L11.1241 45.8116L10.7358 46.0406L7.05169 48.2545L6.22773 50.182L7.70517 52.873L10.1202 53.331L13.5865 51.4607L13.9653 51.2508L14.2779 51.5562L19.2784 56.3178L19.6572 56.6804L19.3542 57.1099Z" fill="white" stroke="#9C1116" stroke-width="0.45" stroke-miterlimit="2.61"/>
<path d="M17.2137 31.2779L24.6956 26.125L24.8282 30.6195L32.0449 25.791V30.3523L39.5268 26.2586L39.5836 30.2187L46.9329 26.1155L47.0655 30.2187L54.0171 26.2491L54.6705 37.8813L53.1647 37.9481L17.5452 38.0149L15.6416 38.1485L15.8405 31.2111L17.2137 31.2779Z" fill="#9C1116" stroke="#9C1116" stroke-width="0.84" stroke-miterlimit="2.61"/>
<path d="M35.3696 14.6843C40.8058 14.6843 45.74 16.9459 49.32 20.5911C53.0325 24.3795 55.1161 29.4847 55.1066 34.8094C55.1161 40.134 53.0325 45.2392 49.3105 49.0276C45.7306 52.6728 40.7963 54.9248 35.3601 54.9248C29.9239 54.9248 24.9896 52.6633 21.4097 49.0181C17.6972 45.2297 15.6136 40.1245 15.6231 34.7998C15.6136 29.4751 17.6972 24.3699 21.4097 20.5816C24.9896 16.9364 29.9239 14.6748 35.3601 14.6748L35.3696 14.6843ZM35.3696 15.8962C30.2648 15.8962 25.6337 18.0147 22.281 21.4404C18.7863 24.9997 16.8353 29.7996 16.8353 34.8094C16.8259 39.8096 18.7863 44.619 22.281 48.1783C25.6431 51.6041 30.2743 53.7225 35.379 53.7225C40.4838 53.7225 45.115 51.6041 48.4676 48.1783C51.9623 44.619 53.9133 39.8191 53.9133 34.8094C53.9228 29.7996 51.9623 24.9997 48.4676 21.4404C45.1055 18.0147 40.4743 15.8962 35.3696 15.8962Z" fill="#9C1116"/>
<path d="M17.9336 32.0034H19.9035V33.4539H17.9336V32.0034Z" fill="white"/>
<path d="M21.1533 32.0034H23.1232V33.4539H21.1533V32.0034Z" fill="white"/>
<path d="M25.4819 32.0034H27.4519V33.4539H25.4819V32.0034Z" fill="white"/>
<path d="M28.8252 32.0034H30.7951V33.4539H28.8252V32.0034Z" fill="white"/>
<path d="M32.5 32.0034H34.4699V33.4539H32.5V32.0034Z" fill="white"/>
<path d="M35.9756 32.0034H37.9455V33.4539H35.9756V32.0034Z" fill="white"/>
<path d="M39.5845 32.0034H41.5544V33.4539H39.5845V32.0034Z" fill="white"/>
<path d="M43.2583 32.0034H45.2282V33.4539H43.2583V32.0034Z" fill="white"/>
<path d="M46.8667 32.0034H48.8366V33.4539H46.8667V32.0034Z" fill="white"/>
<path d="M50.4751 32.0034H52.445V33.4539H50.4751V32.0034Z" fill="white"/>
<path d="M41.9985 16.6021C41.9985 16.6021 34.9902 23.0432 46.8759 19.3216" stroke="#9C1116" stroke-width="8.3" stroke-miterlimit="2.61"/>
<path d="M40.5972 20.772V30.3908" stroke="#9C1116" stroke-width="12.3" stroke-miterlimit="2.61"/>
<path d="M17.735 23.2051L17.3467 23.9494L16.4281 23.8349L15.7178 25.1804L16.3334 25.8674L15.9545 26.5926L13.3027 23.4818L13.6816 22.7661L17.735 23.2051ZM15.7462 23.749L14.2593 23.5486L15.2632 24.6651L15.7462 23.749ZM18.0097 22.9188L15.0643 20.5141L15.5378 19.932L18.4832 20.3233L16.5133 18.7201L16.9584 18.1667L19.9038 20.5714L19.4208 21.1725L16.5417 20.8004L18.4643 22.3653L18.0097 22.9188ZM20.4626 19.932L18.0286 17.0025L18.5969 16.5158L21.4192 17.4701L19.7997 15.5139L20.349 15.0558L22.7829 17.9854L22.1958 18.4816L19.4398 17.5655L21.0309 19.474L20.4626 19.932ZM26.4102 15.8192L25.681 16.2295L24.9707 15.6284L23.6448 16.3727L23.7868 17.2888L23.0765 17.6895L22.5272 13.6245L23.2375 13.2332L26.4102 15.8192ZM24.4498 15.1799L23.3133 14.197L23.5501 15.6856L24.4498 15.1799ZM27.13 11.4297L27.8687 11.2293L28.3991 13.2332C28.4465 13.4431 28.5127 13.6435 28.5885 13.8439C28.6548 13.9775 28.7685 14.092 28.9105 14.1493C29.081 14.2065 29.2609 14.2161 29.4314 14.1588C29.6019 14.1302 29.7629 14.0348 29.8765 13.9012C29.9618 13.7962 29.9997 13.6626 29.9807 13.529C29.9523 13.3096 29.9049 13.0996 29.8481 12.8897L29.2988 10.8476L30.0375 10.6472L30.5584 12.5843C30.6531 12.8992 30.71 13.2141 30.7478 13.5386C30.7573 13.7199 30.7289 13.9012 30.6531 14.0634C30.5679 14.2256 30.4542 14.3688 30.3027 14.4833C30.0944 14.6264 29.8671 14.7314 29.6303 14.7886C29.2799 14.8841 29.0052 14.9127 28.8063 14.8841C28.6264 14.8554 28.4465 14.7886 28.2949 14.6837C28.1623 14.5882 28.0582 14.4737 27.9824 14.3306C27.8403 14.0348 27.7361 13.7294 27.6604 13.4145L27.13 11.4297ZM31.8559 14.1207L31.5907 10.3132L32.3295 10.256L34.0531 12.6893L33.8732 10.1415L34.5835 10.0938L34.8487 13.9107L34.0815 13.968L32.3863 11.5919L32.5568 14.0825L31.8559 14.1207ZM35.6537 13.9489L35.72 10.1319L36.4871 10.1415L36.4208 13.9584L35.6537 13.9489ZM38.0971 14.1779L37.4152 10.1796L38.2392 10.3228L38.6938 13.2714L40.0955 10.6472L40.891 10.7903L38.8927 14.3115L38.0971 14.1779ZM40.6164 14.655L41.8476 11.0385L44.5088 11.9641L44.3005 12.5748L42.3684 11.9068L42.0938 12.7084L43.8932 13.3382L43.6849 13.9489L41.8854 13.3286L41.5445 14.3115L43.5523 15.0081L43.3439 15.6188L40.6164 14.655ZM43.9595 15.8383L45.7969 12.4984L47.208 13.2905C47.5584 13.4909 47.8046 13.6626 47.9278 13.8153C48.0604 13.968 48.1267 14.1493 48.1361 14.3497C48.1456 14.5596 48.0982 14.7695 47.9941 14.9604C47.8804 15.1894 47.6721 15.3707 47.4353 15.4566C47.1985 15.5329 46.9239 15.5139 46.6113 15.3993C46.706 15.552 46.7723 15.7047 46.8197 15.8765C46.867 16.1246 46.8955 16.3822 46.9049 16.6303L46.9523 17.5082L46.1473 17.0597L46.062 16.0578C46.0526 15.8288 46.0242 15.5997 45.9768 15.3707C45.9579 15.2753 45.9105 15.1894 45.8537 15.1226C45.759 15.0272 45.6548 14.9509 45.5317 14.8936L45.3991 14.8173L44.632 16.2105L43.9595 15.8383ZM45.6927 14.2829L46.1852 14.5596C46.5072 14.7409 46.7155 14.8363 46.8102 14.8554C46.9049 14.8745 46.9902 14.8554 47.0754 14.8173C47.1606 14.7695 47.2364 14.6932 47.2838 14.6073C47.3406 14.5119 47.3595 14.3974 47.3406 14.2829C47.3122 14.1779 47.2459 14.0729 47.1606 14.0062C47.1133 13.968 46.9523 13.8726 46.6776 13.7199L46.1567 13.4241L45.6927 14.2829ZM47.9183 16.6876L48.5339 17.117C48.4202 17.2983 48.3634 17.5082 48.3918 17.7182C48.4297 17.9186 48.5434 18.0903 48.7044 18.2144C48.8938 18.3766 49.0737 18.4529 49.2347 18.4529C49.3768 18.4625 49.5189 18.4052 49.6136 18.2907C49.6704 18.2239 49.6988 18.1476 49.6988 18.0617C49.6893 17.9567 49.6514 17.8518 49.5946 17.7563C49.5473 17.6704 49.4242 17.4987 49.2347 17.2315C48.9885 16.888 48.8464 16.6017 48.818 16.3822C48.7328 15.886 49.0358 15.3993 49.5189 15.2562C49.7177 15.199 49.9261 15.199 50.125 15.2658C50.3712 15.3516 50.5891 15.4757 50.7785 15.6475C51.1384 15.9528 51.3467 16.2677 51.4035 16.5826C51.4509 16.8975 51.3657 17.222 51.1573 17.4701L50.5417 17.0025C50.6364 16.8689 50.6743 16.7067 50.6553 16.5444C50.608 16.3822 50.5133 16.2295 50.3712 16.1341C50.2386 16.0101 50.0682 15.9242 49.8787 15.9051C49.784 15.8956 49.6893 15.9337 49.6325 16.0101C49.5757 16.0769 49.5567 16.1723 49.5757 16.2582C49.5946 16.3822 49.7177 16.6017 49.9545 16.9071C50.1345 17.1361 50.286 17.3842 50.4091 17.6514C50.4849 17.8327 50.5133 18.0331 50.4849 18.2239C50.447 18.4338 50.3523 18.6247 50.2102 18.7869C50.0682 18.9587 49.8882 19.0732 49.6799 19.14C49.462 19.2068 49.2347 19.2068 49.0169 19.1304C48.7517 19.035 48.5055 18.8919 48.2971 18.701C47.9278 18.3957 47.7194 18.0712 47.6626 17.7277C47.6058 17.3842 47.6815 17.0502 47.9183 16.6876ZM49.9166 20.1229L52.5968 17.4223L53.1367 17.9663L50.4565 20.6668L49.9166 20.1229ZM51.4509 21.8882L53.8659 19.8461L53.1462 18.9778L53.6386 18.5579L55.5801 20.8863L55.0687 21.3061L54.3489 20.4378L51.9339 22.4798L51.4509 21.8882ZM53.364 24.7223L54.7751 23.9685L56.0631 21.6974L56.4893 22.4894L55.5801 23.9971L57.3133 24.0639L57.73 24.8464L55.135 24.646L53.7333 25.3998L53.364 24.7223Z" fill="#9C1116"/>
<path d="M28.6361 41.1264C28.9202 40.8783 29.1286 40.7065 29.4127 40.4584C32.1119 40.2294 35.1331 38.0823 35.4077 40.4011C36.5442 37.8438 38.8077 40.6111 41.5447 40.5156C41.7436 40.6874 41.952 40.8115 42.1509 40.9928C43.1548 43.9509 44.1587 46.9759 45.1626 49.934C40.1147 50.0963 36.459 46.6992 36.1748 50.6306L34.7069 50.6593C34.4701 47.0045 29.4222 50.3635 25.7002 49.934C26.6757 46.995 27.6606 44.0654 28.6361 41.1264Z" stroke="#9C1116" stroke-width="1.24" stroke-miterlimit="2.61"/>
<path d="M28.6361 41.1264C28.9202 40.8783 29.1286 40.7065 29.4127 40.4584C32.1119 40.2294 35.1331 38.0823 35.4077 40.4011C36.5442 37.8438 38.8077 40.6111 41.5447 40.5156C41.7436 40.6874 41.952 40.8115 42.1509 40.9928C43.1548 43.9509 44.1587 46.9759 45.1626 49.934C40.1147 50.0963 36.459 46.6992 36.1748 50.6306L34.7069 50.6593C34.4701 47.0045 29.4222 50.3635 25.7002 49.934C26.6757 46.995 27.6606 44.0654 28.6361 41.1264Z" stroke="#9C1116" stroke-width="1.24" stroke-miterlimit="2.61"/>
<path d="M29.4217 40.4201C32.1209 40.2197 35.142 38.1872 35.4167 40.2865C36.5721 38.1585 38.3147 40.2102 41.4969 40.4964L44.2055 48.9797C39.0724 48.4071 37.2445 45.802 35.4735 49.5808C33.0301 45.5444 31.8841 48.5407 26.6562 49.0369L29.4217 40.4201Z" stroke="#9C1116" stroke-width="1.24" stroke-miterlimit="2.61"/>
<path d="M35.4355 40.3149V49.4184" stroke="#9C1116" stroke-width="1.24" stroke-miterlimit="2.61"/>
<path d="M29.9336 41.7939C29.9336 41.7939 32.5854 40.8492 33.4472 41.2595C34.3091 41.6699 34.5269 41.479 34.5269 41.479" stroke="#9C1116" stroke-width="1.24" stroke-miterlimit="2.61" stroke-dasharray="2.49 2.49"/>
<path d="M29.9424 42.4234C29.9424 42.4234 32.5468 41.4787 33.3897 41.8986C34.2326 42.3185 34.4505 42.1181 34.4505 42.1181" stroke="#9C1116" stroke-width="1.24" stroke-miterlimit="2.61" stroke-dasharray="2.49 2.49"/>
<path d="M29.9238 43.1871C29.9238 43.1871 32.462 42.2424 33.2859 42.6623C34.1099 43.0821 34.3183 42.8817 34.3183 42.8817" stroke="#9C1116" stroke-width="1.38" stroke-miterlimit="2.61" stroke-dasharray="2.76 2.76"/>
<path d="M29.9238 43.922C29.9238 43.922 32.3862 42.9773 33.1818 43.3971C33.9773 43.817 34.1762 43.6166 34.1762 43.6166" stroke="#9C1116" stroke-width="1.39" stroke-miterlimit="2.61" stroke-dasharray="2.78 2.78"/>
<path d="M29.5737 44.6661C29.5737 44.6661 32.2255 43.7214 33.0874 44.1413C33.9492 44.5611 34.167 44.3607 34.167 44.3607" stroke="#9C1116" stroke-width="1.24" stroke-miterlimit="2.61" stroke-dasharray="2.49 2.49"/>
<path d="M29.4595 45.3346C29.4595 45.3346 32.1113 44.3899 32.9731 44.8097C33.835 45.2296 34.0528 45.0292 34.0528 45.0292" stroke="#9C1116" stroke-width="1.24" stroke-miterlimit="2.61" stroke-dasharray="2.49 2.49"/>
<path d="M29.27 46.0592C29.27 46.0592 31.9218 45.1145 32.7837 45.5343C33.6455 45.9542 33.8633 45.7538 33.8633 45.7538" stroke="#9C1116" stroke-width="1.24" stroke-miterlimit="2.61" stroke-dasharray="2.49 2.49"/>
<path d="M29.0806 46.6417C29.0806 46.6417 31.7324 45.697 32.5942 46.1168C33.4561 46.5367 33.6739 46.3363 33.6739 46.3363" stroke="#9C1116" stroke-width="1.24" stroke-miterlimit="2.61" stroke-dasharray="2.49 2.49"/>
<path d="M41.0708 41.7939C41.0708 41.7939 38.419 40.8492 37.5572 41.2595C36.6954 41.6699 36.4775 41.479 36.4775 41.479" stroke="#9C1116" stroke-width="1.24" stroke-miterlimit="2.61" stroke-dasharray="2.49 2.49"/>
<path d="M41.0798 42.4234C41.0798 42.4234 38.4754 41.4787 37.6325 41.8986C36.7896 42.3185 36.5718 42.1181 36.5718 42.1181" stroke="#9C1116" stroke-width="1.24" stroke-miterlimit="2.61" stroke-dasharray="2.49 2.49"/>
<path d="M41.0614 43.1871C41.0614 43.1871 38.5233 42.2424 37.6993 42.6623C36.8753 43.0821 36.667 42.8817 36.667 42.8817" stroke="#9C1116" stroke-width="1.38" stroke-miterlimit="2.61" stroke-dasharray="2.76 2.76"/>
<path d="M41.0616 43.922C41.0616 43.922 38.5992 42.9773 37.8037 43.3971C37.0082 43.817 36.7998 43.6166 36.7998 43.6166" stroke="#9C1116" stroke-width="1.39" stroke-miterlimit="2.61" stroke-dasharray="2.78 2.78"/>
<path d="M41.4307 44.6661C41.4307 44.6661 38.7789 43.7214 37.9171 44.1413C37.0552 44.5611 36.8374 44.3607 36.8374 44.3607" stroke="#9C1116" stroke-width="1.24" stroke-miterlimit="2.61" stroke-dasharray="2.49 2.49"/>
<path d="M41.5445 45.3346C41.5445 45.3346 38.8927 44.3899 38.0308 44.8097C37.169 45.2296 36.9512 45.0292 36.9512 45.0292" stroke="#9C1116" stroke-width="1.24" stroke-miterlimit="2.61" stroke-dasharray="2.49 2.49"/>
<path d="M41.7334 46.0592C41.7334 46.0592 39.0816 45.1145 38.2198 45.5343C37.358 45.9542 37.1401 45.7538 37.1401 45.7538" stroke="#9C1116" stroke-width="1.24" stroke-miterlimit="2.61" stroke-dasharray="2.49 2.49"/>
<path d="M41.9327 46.6417C41.9327 46.6417 39.2809 45.697 38.419 46.1168C37.5572 46.5367 37.3394 46.3363 37.3394 46.3363" stroke="#9C1116" stroke-width="1.24" stroke-miterlimit="2.61" stroke-dasharray="2.49 2.49"/>
<path d="M1.60613 57.7974H68.498V69.0002H1V57.7974H1.60613Z" fill="#9C1116" stroke="#9C1116" stroke-width="0.45" stroke-miterlimit="2.61"/>
<path d="M67.2856 59.0083H2.20264V67.7778H67.2856V59.0083Z" fill="white" stroke="#9C1116" stroke-width="0.45" stroke-miterlimit="2.61"/>
<path d="M3.85107 65.908V61.5185H4.66556C4.96862 61.5185 5.16751 61.5375 5.26221 61.5852C5.41375 61.652 5.53687 61.7952 5.63157 62.0147C5.73575 62.2914 5.7831 62.5777 5.77363 62.8735C5.7831 63.1407 5.73575 63.4174 5.65052 63.6655C5.59369 63.8468 5.48004 63.9995 5.33798 64.114C5.21486 64.1999 4.99703 64.2476 4.69397 64.2476H4.36249V65.908H3.85107ZM4.35302 62.2628V63.5033H4.63714C4.76974 63.5128 4.89285 63.4937 5.01597 63.446C5.09174 63.3983 5.14857 63.322 5.17698 63.2361C5.26221 62.9975 5.26221 62.7399 5.17698 62.5013C5.14857 62.4154 5.09174 62.3486 5.01597 62.3009C4.88338 62.2532 4.74132 62.2437 4.59926 62.2532L4.35302 62.2628ZM6.18087 65.908V61.5185H7.2416C7.51625 61.5185 7.70567 61.5566 7.81931 61.633C7.95191 61.7379 8.05608 61.8811 8.10344 62.0433C8.1792 62.2628 8.22656 62.5013 8.21708 62.7399C8.22656 63.0262 8.16973 63.3124 8.04661 63.5701C7.9519 63.7705 7.77196 63.9136 7.5636 63.9613C7.66778 64.0663 7.76249 64.1903 7.82879 64.3239C7.94244 64.5529 8.03714 64.7915 8.12238 65.0396L8.42544 65.8984H7.82879L7.45942 64.9442C7.38366 64.7247 7.28895 64.5052 7.19425 64.2953C7.15636 64.2285 7.10901 64.1617 7.04271 64.114C6.96695 64.0758 6.87224 64.0567 6.787 64.0663H6.68283V65.8984H6.18087V65.908ZM6.68283 63.3792H7.06166C7.21319 63.3888 7.35525 63.3792 7.49731 63.3315C7.56361 63.2933 7.62043 63.2361 7.64884 63.1598C7.68672 63.0452 7.71514 62.9307 7.70566 62.8067C7.70566 62.6922 7.68672 62.5777 7.64884 62.4727C7.62043 62.3964 7.5636 62.3391 7.48784 62.3009C7.35525 62.2723 7.21319 62.2628 7.0806 62.2723H6.68283V63.3792ZM8.60539 63.7418C8.59591 63.3029 8.64327 62.8735 8.76639 62.4536C8.84216 62.1673 8.98422 61.9097 9.1831 61.6998C9.35357 61.5375 9.58087 61.4421 9.81764 61.4517C10.1775 61.4517 10.4711 61.652 10.6889 62.0433C10.9162 62.4345 11.0299 62.9975 11.0299 63.7228C11.0299 64.4575 10.9068 65.0301 10.67 65.4404C10.4617 65.803 10.1775 65.9843 9.81764 65.9843C9.45775 65.9843 9.17363 65.803 8.96528 65.4404C8.71904 65.0205 8.60539 64.4575 8.60539 63.7418ZM9.1168 63.7132C9.1168 64.219 9.1831 64.5911 9.31569 64.8488C9.44828 65.0969 9.60929 65.2305 9.80817 65.2305C10.0071 65.2305 10.1681 65.1064 10.3006 64.8583C10.4332 64.6102 10.4995 64.2285 10.4995 63.7037C10.4995 63.1979 10.4332 62.8162 10.3101 62.5777C10.187 62.3391 10.0165 62.2151 9.81764 62.2151C9.61876 62.2151 9.44828 62.3391 9.31569 62.5777C9.1831 62.8162 9.12628 63.1979 9.1168 63.7132ZM12.5831 64.2953V63.551H13.6722V65.2973C13.5586 65.4881 13.3976 65.6503 13.2082 65.7744C13.0282 65.8984 12.8199 65.9748 12.602 65.9748C12.3558 65.9748 12.1285 65.8794 11.9486 65.7171C11.7307 65.4977 11.5792 65.2305 11.5034 64.9346C11.3898 64.5339 11.333 64.1235 11.333 63.7132C11.3235 63.2933 11.3803 62.8735 11.5034 62.4727C11.5792 62.1864 11.7307 61.9192 11.9391 61.6998C12.1096 61.5375 12.3369 61.4421 12.5831 61.4421C12.8577 61.4326 13.1229 61.5566 13.3029 61.7666C13.4828 61.986 13.5965 62.3009 13.6438 62.7303L13.1419 62.8926C13.1229 62.7017 13.0472 62.53 12.9335 62.3773C12.8483 62.2628 12.7157 62.196 12.5736 62.196C12.3558 62.196 12.1853 62.32 12.0527 62.5586C11.9201 62.7971 11.8539 63.1598 11.8539 63.656C11.8539 64.1808 11.9296 64.5816 12.0717 64.8583C12.1948 65.0969 12.3653 65.2114 12.5736 65.2114C12.6873 65.2114 12.7915 65.1732 12.8767 65.116C12.9903 65.0396 13.085 64.9537 13.1608 64.8392V64.2858L12.5831 64.2953ZM14.1363 65.908V61.5185H15.197C15.4717 61.5185 15.6611 61.5566 15.7747 61.633C15.9073 61.7379 16.0115 61.8811 16.0589 62.0433C16.1346 62.2628 16.1725 62.5013 16.1725 62.7399C16.182 63.0262 16.1252 63.3124 16.002 63.5701C15.9073 63.7705 15.7274 63.9136 15.519 63.9613C15.6232 64.0663 15.7179 64.1903 15.7842 64.3239C15.8979 64.5529 15.9926 64.7915 16.0778 65.0396L16.3809 65.8984H15.7842L15.4148 64.9442C15.3391 64.7247 15.2444 64.5052 15.1497 64.2953C15.1118 64.219 15.0644 64.1617 14.9981 64.114C14.9224 64.0758 14.8277 64.0567 14.7424 64.0663H14.6382V65.8984H14.1363V65.908ZM14.6382 63.3792H15.0171C15.1686 63.3888 15.3107 63.3792 15.4527 63.3315C15.519 63.2933 15.5759 63.2361 15.6043 63.1598C15.6516 63.0452 15.6706 62.9307 15.6611 62.8067C15.6611 62.6922 15.6421 62.5777 15.6043 62.4727C15.5759 62.3964 15.519 62.3391 15.4433 62.3009C15.3107 62.2723 15.1686 62.2628 15.036 62.2723H14.6382V63.3792ZM16.6555 65.908V61.5185H18.5118V62.2628H17.1575V63.2361H18.4171V63.9709H17.1575V65.1637H18.5591V65.908H16.6555ZM18.8622 64.4766L19.3547 64.3907C19.4115 64.9537 19.5914 65.2305 19.904 65.2305C20.046 65.24 20.1786 65.1732 20.2639 65.0587C20.3586 64.9346 20.4059 64.782 20.3965 64.6293C20.3965 64.5434 20.387 64.4575 20.3491 64.3716C20.3207 64.3048 20.2733 64.238 20.207 64.1999C20.065 64.114 19.9135 64.0377 19.7525 63.9709C19.5725 63.9041 19.4115 63.7991 19.2789 63.6655C19.1653 63.5415 19.0895 63.3888 19.0421 63.2361C18.9853 63.0548 18.9569 62.8544 18.9569 62.6635C18.9569 62.4441 18.9948 62.2246 19.0706 62.0147C19.1369 61.8429 19.241 61.6902 19.3831 61.5852C19.5252 61.4803 19.7051 61.4326 19.8756 61.4421C20.1502 61.4326 20.4059 61.5566 20.5669 61.7856C20.7279 62.0147 20.8226 62.3391 20.8321 62.7685L20.3112 62.8162C20.2923 62.5777 20.2449 62.4154 20.1692 62.32C20.0934 62.2246 19.9797 62.1769 19.8566 62.1769C19.743 62.1673 19.6293 62.215 19.5441 62.3009C19.4683 62.3868 19.4304 62.4918 19.4304 62.6063C19.4304 62.7113 19.4589 62.8258 19.5346 62.9116C19.6009 62.9975 19.7525 63.0834 19.9892 63.1788C20.1881 63.2552 20.3775 63.3697 20.5385 63.5128C20.6616 63.6369 20.7469 63.7991 20.7942 63.9613C20.8605 64.1808 20.8889 64.4003 20.8795 64.6293C20.8889 64.9633 20.8037 65.2973 20.6332 65.5835C20.4722 65.8412 20.2165 65.9748 19.8661 65.9748C19.2694 65.9748 18.9285 65.4786 18.8622 64.4766ZM21.192 64.4766L21.6845 64.3907C21.7413 64.9537 21.9212 65.2305 22.2338 65.2305C22.3758 65.24 22.5084 65.1732 22.5937 65.0587C22.6884 64.9346 22.7357 64.782 22.7263 64.6293C22.7263 64.5434 22.7168 64.4575 22.6789 64.3716C22.6505 64.3048 22.6031 64.238 22.5368 64.1999C22.3948 64.114 22.2433 64.0377 22.0823 63.9709C21.9023 63.9041 21.7413 63.7991 21.6087 63.6655C21.4951 63.5415 21.4193 63.3888 21.3719 63.2361C21.3151 63.0548 21.2867 62.8544 21.2867 62.6635C21.2867 62.4441 21.3246 62.2246 21.4004 62.0147C21.4667 61.8429 21.5708 61.6902 21.7129 61.5852C21.855 61.4803 22.0254 61.4326 22.2054 61.4421C22.48 61.4326 22.7357 61.5566 22.8967 61.7856C23.0577 62.0147 23.1524 62.3391 23.1619 62.7685L22.66 62.8067C22.641 62.5681 22.5937 62.4059 22.5179 62.3105C22.4421 62.2151 22.3285 62.1673 22.2054 62.1673C22.0917 62.1578 21.9781 62.2055 21.8928 62.2914C21.8171 62.3773 21.7792 62.4822 21.7792 62.5967C21.7792 62.7017 21.8076 62.8162 21.8739 62.9021C21.9402 62.988 22.0917 63.0739 22.338 63.1693C22.5368 63.2456 22.7263 63.3601 22.8873 63.5033C23.0104 63.6273 23.0956 63.7896 23.143 63.9518C23.2093 64.1713 23.2377 64.3907 23.2282 64.6197C23.2377 64.9537 23.1524 65.2877 22.982 65.574C22.821 65.8316 22.5653 65.9652 22.2148 65.9652C21.5992 65.9748 21.2583 65.4786 21.192 64.4766ZM25.1792 65.908V62.2628H24.4405V61.5185H26.4293V62.2628H25.6906V65.908H25.1792ZM26.7513 65.908V61.5185H27.2533V63.2456H28.2477V61.5185H28.7497V65.908H28.2477V63.9899H27.2533V65.908H26.7513ZM29.2705 65.908V61.5185H30.3313C30.6059 61.5185 30.7953 61.5566 30.909 61.633C31.0416 61.7379 31.1458 61.8811 31.1931 62.0433C31.2689 62.2628 31.3068 62.5013 31.3068 62.7399C31.3162 63.0262 31.2594 63.3124 31.1363 63.5701C31.0416 63.7705 30.8616 63.9136 30.6533 63.9613C30.7575 64.0663 30.8522 64.1903 30.9185 64.3239C31.0321 64.5529 31.1268 64.7915 31.212 65.0396L31.5151 65.8984H30.9185L30.5491 64.9442C30.4733 64.7247 30.3786 64.5052 30.2839 64.2953C30.246 64.219 30.1987 64.1617 30.1324 64.114C30.0566 64.0758 29.9619 64.0567 29.8767 64.0663H29.7725V65.8984H29.2705V65.908ZM29.7725 63.3792H30.1513C30.3029 63.3888 30.4449 63.3792 30.587 63.3315C30.6533 63.2933 30.7101 63.2361 30.7385 63.1598C30.7859 63.0452 30.8048 62.9307 30.7953 62.8067C30.7953 62.6922 30.7764 62.5777 30.729 62.4727C30.7006 62.3964 30.6438 62.3391 30.568 62.3009C30.4354 62.2723 30.2934 62.2628 30.1608 62.2723H29.763L29.7725 63.3792ZM31.6856 63.7418C31.6761 63.3029 31.7329 62.8735 31.8466 62.4536C31.9224 62.1673 32.0644 61.9097 32.2633 61.6998C32.4338 61.5375 32.6611 61.4421 32.8978 61.4517C33.2577 61.4517 33.5513 61.652 33.7691 62.0433C33.9964 62.4345 34.1101 62.9975 34.1101 63.7132C34.1101 64.448 33.987 65.0205 33.7502 65.4309C33.5419 65.7935 33.2577 65.9748 32.8978 65.9748C32.538 65.9748 32.2538 65.7935 32.0455 65.4309C31.8087 65.0205 31.6951 64.4575 31.6856 63.7418ZM32.2065 63.7132C32.2065 64.219 32.2728 64.5911 32.4054 64.8488C32.538 65.1064 32.699 65.2305 32.8978 65.2305C33.0967 65.2305 33.2577 65.1064 33.3903 64.8583C33.5229 64.6102 33.5892 64.219 33.5892 63.7037C33.5892 63.1884 33.5229 62.8162 33.3998 62.5777C33.2767 62.3296 33.1062 62.2151 32.8978 62.2151C32.6895 62.2151 32.5285 62.3391 32.3959 62.5777C32.2633 62.8162 32.2159 63.1979 32.2065 63.7132ZM34.4984 61.5185H35.0003V63.8945C35.0003 64.2667 35.0098 64.5052 35.0193 64.6102C35.0288 64.7724 35.0856 64.9251 35.1803 65.0587C35.2561 65.1637 35.3792 65.2209 35.5118 65.2209C35.6159 65.2209 35.7201 65.1828 35.7959 65.1064C35.8717 65.0205 35.9285 64.9156 35.9474 64.7915C35.9853 64.5052 35.9948 64.219 35.9853 63.9422V61.5185H36.4873V63.8182C36.4967 64.2476 36.4778 64.6675 36.421 65.0969C36.3925 65.3354 36.2884 65.5549 36.1274 65.7362C35.9664 65.8984 35.7485 65.9939 35.5212 65.9843C35.3034 65.9939 35.0856 65.9271 34.9151 65.7839C34.7541 65.6312 34.6499 65.4309 34.5931 65.2114C34.5268 64.9633 34.4984 64.5148 34.4984 63.8564V61.5185ZM38.192 64.2858V63.5414H39.2811V65.2973C39.1675 65.4881 39.0065 65.6503 38.8171 65.7744C38.6371 65.8984 38.4288 65.9748 38.2109 65.9748C37.9647 65.9748 37.7279 65.8889 37.5574 65.7171C37.3396 65.4977 37.1881 65.2305 37.1123 64.9346C36.9987 64.5339 36.9419 64.1235 36.9513 63.7132C36.9419 63.2933 36.9987 62.8735 37.1218 62.4727C37.1976 62.1864 37.3491 61.9192 37.5574 61.6998C37.7279 61.5375 37.9552 61.4421 38.2015 61.4421C38.4761 61.4326 38.7413 61.5566 38.9212 61.7666C39.1012 61.986 39.2148 62.3009 39.2717 62.7303L38.7697 62.8926C38.7508 62.7017 38.675 62.53 38.5613 62.3773C38.4761 62.2628 38.3435 62.196 38.2015 62.196C37.9836 62.196 37.8132 62.32 37.6806 62.5586C37.548 62.7971 37.4817 63.1598 37.4817 63.656C37.4817 64.1808 37.5574 64.5816 37.6995 64.8583C37.8226 65.0969 37.9931 65.2114 38.2015 65.2114C38.3151 65.2114 38.4193 65.1732 38.5045 65.116C38.6182 65.0396 38.7129 64.9537 38.7886 64.8392V64.2858H38.192ZM39.7452 65.908V61.5185H40.2471V63.2456H41.2416V61.5185H41.7435V65.908H41.2416V63.9899H40.2471V65.908H39.7452ZM43.2399 65.908V61.5185H43.7418V63.4651L44.7647 61.5185H45.4466L44.509 63.2265L45.5034 65.908H44.8404L44.1491 63.8468L43.7418 64.5816V65.908H43.2399ZM45.7591 65.908V61.5185H46.2516L47.2744 64.448V61.5185H47.748V65.908H47.2365L46.2326 63.0452V65.908H45.7591ZM48.1742 63.7418C48.1647 63.3029 48.212 62.8735 48.3352 62.4536C48.4109 62.1673 48.553 61.9097 48.7519 61.6998C48.9223 61.5375 49.1496 61.4517 49.3864 61.4517C49.7463 61.4517 50.0399 61.652 50.2577 62.0433C50.4755 62.4345 50.5987 62.9975 50.5987 63.7228C50.5987 64.4575 50.4755 65.0301 50.2388 65.4404C50.0304 65.803 49.7463 65.9843 49.3864 65.9843C49.0265 65.9843 48.7424 65.803 48.534 65.4404C48.2973 65.0205 48.1836 64.4575 48.1742 63.7418ZM48.695 63.7132C48.695 64.219 48.7613 64.5911 48.8939 64.8488C49.0265 65.0969 49.1875 65.2305 49.3864 65.2305C49.5853 65.2305 49.7463 65.1064 49.8789 64.8583C50.0115 64.6102 50.0778 64.219 50.0778 63.7037C50.0778 63.1884 50.0115 62.8162 49.8884 62.5777C49.7652 62.3391 49.5948 62.2151 49.3864 62.2151C49.178 62.2151 49.017 62.3391 48.8845 62.5777C48.7519 62.8162 48.7045 63.1979 48.695 63.7132ZM51.3469 65.908L50.7502 61.5185H51.2711L51.6404 64.5243L52.095 61.5185H52.7012L53.1368 64.5816L53.5156 61.5185H54.0176L53.4115 65.908H52.8906L52.3886 62.6349L51.8962 65.908H51.3469ZM54.3017 65.908V61.5566H54.8037V65.1637H56.0633V65.908H54.3017ZM56.4232 65.908V61.5185H58.2794V62.2628H56.9251V63.2361H58.1847V63.9709H56.9251V65.1637H58.3268V65.908H56.4232ZM58.753 61.5185H59.6716C59.8516 61.5089 60.041 61.5471 60.202 61.633C60.3441 61.7284 60.4482 61.862 60.5335 62.0147C60.6471 62.2341 60.7229 62.4632 60.7702 62.7017C60.8365 63.0452 60.8649 63.4079 60.8555 63.7609C60.8555 64.0949 60.8271 64.4289 60.7702 64.7533C60.7229 64.9824 60.6471 65.2114 60.5429 65.4213C60.4672 65.574 60.3535 65.698 60.2115 65.7935C60.0599 65.8794 59.8895 65.9271 59.7095 65.9175H58.7624V61.5185H58.753ZM59.2549 62.2628V65.1637H59.6338C59.7569 65.1732 59.88 65.1541 59.9842 65.0969C60.0599 65.0492 60.1262 64.9824 60.1641 64.8965C60.2209 64.7629 60.2588 64.6197 60.2778 64.4766C60.3346 63.9709 60.3346 63.4556 60.2778 62.9498C60.2588 62.7971 60.2115 62.6445 60.1357 62.5109C60.0789 62.4154 60.0031 62.3391 59.8989 62.3009C59.7663 62.2628 59.6243 62.2532 59.4917 62.2628H59.2549ZM62.4371 64.2858V63.5414H63.5262V65.2973C63.4126 65.4881 63.2516 65.6503 63.0622 65.7744C62.8822 65.8984 62.6739 65.9748 62.456 65.9748C62.2098 65.9748 61.9825 65.8794 61.8025 65.7171C61.5847 65.4977 61.4332 65.2305 61.3574 64.9346C61.2438 64.5434 61.187 64.1331 61.1964 63.7132C61.187 63.2933 61.2438 62.8735 61.3669 62.4727C61.4427 62.1864 61.5942 61.9192 61.8025 61.6998C61.973 61.5375 62.2003 61.4421 62.4466 61.4421C62.7212 61.4326 62.9864 61.5566 63.1663 61.7666C63.3463 61.986 63.4599 62.3009 63.5168 62.7303L63.0148 62.8926C62.9959 62.7017 62.9201 62.53 62.8064 62.3773C62.7212 62.2628 62.5886 62.196 62.4466 62.196C62.2287 62.196 62.0583 62.32 61.9257 62.5586C61.7931 62.7971 61.7268 63.1598 61.7268 63.656C61.7268 64.1808 61.8025 64.5816 61.9446 64.8583C62.0677 65.0969 62.2382 65.2114 62.4466 65.2114C62.5602 65.2114 62.6644 65.1732 62.7496 65.116C62.8633 65.0396 62.958 64.9537 63.0337 64.8392V64.2858H62.4371ZM63.9903 65.908V61.5185H65.8466V62.2628H64.4922V63.2361H65.7518V63.9709H64.4922V65.1637H65.8939V65.908H63.9903Z" fill="#9C1116"/>
</svg>
