<svg width="68" height="68" viewBox="0 0 68 68" fill="none" xmlns="http://www.w3.org/2000/svg">
<path d="M67.4475 49.1069L65.6148 47.9829L66.8236 47.1533C67.3305 46.8054 67.4475 46.297 67.1745 45.8688C66.9016 45.4406 66.2777 45.1462 65.5758 45.1462L60.1946 45.1998C63.5871 41.7475 65.5368 37.5995 65.5368 33.1304C65.5368 21.2751 51.616 11.6143 34.4978 11.6143C17.3795 11.6143 3.45874 21.2751 3.45874 33.1304C3.45874 37.5995 5.44743 41.7475 8.83988 45.1998L2.44491 45.1462C1.74302 45.1462 1.11912 45.4406 0.846165 45.8688C0.573209 46.3237 0.729184 46.8054 1.19711 47.1533L2.40591 47.9829L0.573207 49.1069C0.0272947 49.4281 -0.128679 49.9633 0.105283 50.3915C0.339246 50.8464 1.00214 51.1408 1.70403 51.1408H2.24994C2.21095 51.3816 2.24994 51.6225 2.40591 51.8633C2.56189 52.0774 4.08264 54.0578 6.8122 54.7536C8.17699 55.1015 12.4273 56.279 15.4298 57.1353L13.0902 57.3762C12.5053 57.4297 11.9984 57.6973 11.7644 58.072L11.4135 58.6072C11.3745 58.6875 11.3355 58.7678 11.2965 58.8748C10.9845 59.3298 10.7896 59.7044 10.6726 59.9988C10.2826 61.1495 9.61975 62.1665 8.7229 62.9693C8.41095 63.2637 8.29397 63.6383 8.41095 63.9862C8.52793 64.3341 8.91787 64.6285 9.42479 64.7891C16.7166 66.8765 25.3342 68.0004 34.3418 68.0004C42.9984 68.0004 51.3041 66.9835 58.4399 65.0299C58.9468 64.8961 59.3368 64.575 59.4538 64.2271C59.5707 63.8524 59.4538 63.4778 59.1028 63.1834C58.4009 62.6214 57.4651 61.6312 56.9582 60.0523C56.8412 59.7044 56.6072 59.2762 56.2173 58.741C56.2173 58.7142 56.2173 58.6875 56.1783 58.6607L55.8273 58.1255C55.5934 57.7508 55.0865 57.4832 54.5015 57.4297L52.5519 57.2424C55.6324 56.386 59.9217 55.1818 61.2865 54.8339C64.016 54.1381 65.5368 52.1577 65.6927 51.9436C65.8487 51.7295 65.8877 51.4619 65.8487 51.2211H66.2777C66.9795 51.2211 67.6424 50.9267 67.8764 50.4718C68.1494 49.9365 67.9544 49.4281 67.4475 49.1069Z" fill="white"/>
<path d="M12.7392 49.9886L14.5329 47.9279L11.9593 46.4026L2.44481 46.3223L4.90142 48.035L1.74292 49.9886H12.7392Z" fill="#FE120D"/>
<path d="M12.7391 50.3653H1.74282C1.50885 50.3653 1.31389 50.2583 1.2359 50.1245C1.15791 49.9639 1.19691 49.8033 1.39188 49.6963L4.12144 48.0371L2.05477 46.6187C1.89879 46.5117 1.8598 46.3511 1.93779 46.1906C2.01577 46.0568 2.21074 45.9497 2.44471 45.9497L11.9592 46.03C12.0762 46.03 12.2321 46.0568 12.3101 46.1103L14.9227 47.6357C15.1177 47.7695 15.1957 47.9568 15.0397 48.1174L13.246 50.178C13.129 50.285 12.934 50.3653 12.7391 50.3653ZM3.22458 49.5892H12.4271L13.8309 48.0103L11.7642 46.8061L3.80949 46.7258L5.33024 47.7695C5.44722 47.8498 5.48622 47.9568 5.48622 48.0639C5.48622 48.1709 5.40823 48.2779 5.29125 48.3315L3.22458 49.5892Z" fill="#E88330"/>
<path d="M8.20535 47.2378L8.12988 48.0122L14.5108 48.3051L14.5863 47.5307L8.20535 47.2378Z" fill="#E88330"/>
<path d="M55.3205 49.9886L53.4878 47.9279L56.1004 46.4026L65.6148 46.3223L63.1193 48.035L66.2777 49.9886H55.3205Z" fill="#FE120D"/>
<path d="M66.2779 50.3653H55.2816C55.0867 50.3653 54.8917 50.285 54.8137 50.178L53.02 48.1174C52.864 47.9568 52.942 47.7427 53.137 47.6357L55.7495 46.1103C55.8665 46.0568 55.9835 46.03 56.1005 46.03L65.615 45.9497C65.8489 45.9497 66.0439 46.03 66.1219 46.1906C66.1999 46.3244 66.1609 46.5117 66.0049 46.6187L63.9382 48.0371L66.6678 49.6963C66.8238 49.8033 66.9018 49.9639 66.8238 50.1245C66.7458 50.2583 66.5118 50.3653 66.2779 50.3653ZM55.6326 49.5892H64.8351L62.7684 48.3315C62.6514 48.2512 62.5735 48.1709 62.5735 48.0639C62.5735 47.9568 62.6124 47.8498 62.7294 47.7695L64.2502 46.7258L56.3345 46.7793L54.2678 47.9836L55.6326 49.5892Z" fill="#E88330"/>
<path d="M59.8414 47.2507L53.4604 47.5435L53.5359 48.3178L59.9168 48.025L59.8414 47.2507Z" fill="#E88330"/>
<path d="M63.8598 33.1292C63.8598 44.3689 50.7189 53.4678 34.4975 53.4678C18.2761 53.4678 5.13525 44.3689 5.13525 33.1292C5.13525 21.8894 18.2761 12.7905 34.4975 12.7905C50.7189 12.7905 63.8598 21.8894 63.8598 33.1292ZM34.5365 19.24C23.4623 19.24 14.4938 25.4486 14.4938 33.1292C14.4938 40.8097 23.4623 47.0183 34.5365 47.0183C45.6108 47.0183 54.5793 40.8097 54.5793 33.1292C54.5793 25.4486 45.5718 19.24 34.5365 19.24Z" fill="#130972"/>
<path d="M34.5371 53.8446C18.0428 53.8446 4.62891 44.5584 4.62891 33.1313C4.62891 21.7042 18.0428 12.418 34.5371 12.418C51.0315 12.418 64.4453 21.7042 64.4453 33.1313C64.4453 44.5584 50.9925 53.8446 34.5371 53.8446ZM34.5371 13.1673C18.6667 13.1673 5.72073 22.1323 5.72073 33.1313C5.72073 44.1302 18.6277 53.0952 34.5371 53.0952C50.4076 53.0952 63.3535 44.1302 63.3535 33.1313C63.3145 22.1323 50.4076 13.1673 34.5371 13.1673ZM34.5371 47.3951C23.1899 47.3951 13.9484 40.9991 13.9484 33.1313C13.9484 25.2634 23.1899 18.8675 34.5371 18.8675C45.8843 18.8675 55.1258 25.2634 55.1258 33.1313C55.1258 40.9991 45.8843 47.3951 34.5371 47.3951ZM34.5371 19.6168C23.7748 19.6168 15.0402 25.6916 15.0402 33.1313C15.0402 40.5709 23.7748 46.6457 34.5371 46.6457C45.2994 46.6457 54.034 40.5709 54.034 33.1313C54.034 25.6916 45.2604 19.6168 34.5371 19.6168Z" fill="#E88330"/>
<path d="M8.60573 28.3399C8.64472 28.2864 8.64472 28.2061 8.68371 28.1526C8.72271 28.0723 8.7617 27.992 8.80069 27.9117C8.83969 27.8314 8.87868 27.7511 8.95667 27.6709C8.99566 27.5906 9.07365 27.5371 9.15164 27.4568C9.30761 27.2962 9.54158 27.2159 9.81453 27.2694L13.363 27.885C13.4799 27.9117 13.5579 27.9385 13.5969 27.992C13.6359 28.0455 13.6749 28.099 13.6749 28.1793C13.6749 28.3399 13.6749 28.5005 13.6359 28.661C13.5969 28.8216 13.5579 28.9822 13.5189 29.116C13.402 29.3836 13.285 29.6244 13.09 29.8118C12.895 30.0259 12.7001 30.1864 12.4271 30.2935C12.1542 30.4273 11.8812 30.4808 11.5303 30.5343C11.1793 30.5611 10.8284 30.5611 10.3994 30.4808C10.0095 30.4005 9.65856 30.3202 9.3856 30.1864C9.11264 30.0526 8.91767 29.8921 8.7617 29.7047C8.60572 29.5174 8.52774 29.3033 8.48874 29.0892C8.44975 28.8484 8.48874 28.6075 8.60573 28.3399ZM9.81453 28.2596C9.77554 28.2864 9.77554 28.3399 9.73654 28.3934C9.69755 28.4469 9.69755 28.5005 9.65856 28.554C9.61956 28.661 9.61956 28.7948 9.61956 28.9019C9.61956 29.0089 9.69755 29.116 9.77554 29.1963C9.85353 29.2765 9.9705 29.3568 10.1265 29.4371C10.2825 29.5174 10.4774 29.5709 10.7114 29.5977C11.1793 29.678 11.5303 29.6512 11.8032 29.5709C12.0762 29.4639 12.2711 29.3033 12.3491 29.0625C12.3491 29.0089 12.3881 28.9554 12.3881 28.9019C12.3881 28.8484 12.4271 28.7948 12.4271 28.7413L9.81453 28.2596Z" fill="white"/>
<path d="M8.6835 30.6679C8.91747 30.6946 9.07344 30.7481 9.19042 30.8552C9.3074 30.9622 9.38539 31.096 9.3464 31.2566C9.3074 31.4172 9.22942 31.5242 9.07344 31.6045C8.91747 31.6848 8.7225 31.7115 8.52753 31.7115C8.29357 31.6848 8.13759 31.6313 8.02061 31.5242C7.90363 31.4172 7.82564 31.2834 7.86464 31.1228C7.90363 30.9622 7.98162 30.8552 8.13759 30.7749C8.29357 30.6679 8.44954 30.6411 8.6835 30.6679Z" fill="white"/>
<path d="M7.8651 33.9063C7.8651 33.8796 7.82611 33.7993 7.82611 33.719C7.82611 33.6387 7.78711 33.5584 7.78711 33.4781C7.78711 33.3176 7.8261 33.1838 7.90409 33.1035C7.98208 33.0232 8.13806 32.9697 8.41101 32.9697H9.46384C9.65881 32.8894 9.85378 32.7824 10.0877 32.6753C10.3217 32.5683 10.5557 32.4612 10.7896 32.3542C11.0236 32.2471 11.2576 32.1668 11.4915 32.0598C11.7255 31.9795 11.9594 31.8992 12.1544 31.8457C12.2324 31.8992 12.3494 31.9527 12.4274 32.033C12.5054 32.1133 12.5443 32.2204 12.5443 32.3274C12.5443 32.4612 12.5054 32.5683 12.4274 32.6753C12.3494 32.7556 12.1934 32.8359 11.9594 32.9162L10.6726 33.3711V33.3979C10.8286 33.4514 10.9846 33.4781 11.1016 33.5317C11.2186 33.5584 11.3745 33.612 11.4915 33.6387C11.6085 33.6655 11.7645 33.719 11.9204 33.7458C12.0764 33.7725 12.2324 33.826 12.4274 33.8796C12.4664 33.9331 12.5054 34.0134 12.5443 34.0937C12.5833 34.1739 12.5833 34.2542 12.5833 34.3077C12.5833 34.4416 12.5443 34.5486 12.4274 34.6289C12.3494 34.7092 12.1934 34.7627 11.9984 34.7627C11.9204 34.7627 11.8425 34.7627 11.7645 34.7359C11.6865 34.7092 11.5305 34.6824 11.3745 34.6289C11.2186 34.5754 10.9456 34.4683 10.6337 34.3613C10.3217 34.2542 9.93177 34.0937 9.42485 33.8796L7.8651 33.9063Z" fill="white"/>
<path d="M8.60616 35.0579C8.84012 35.0311 8.9961 35.0579 9.19106 35.1382C9.34704 35.2185 9.46402 35.3255 9.46402 35.4861C9.50301 35.6466 9.46402 35.7804 9.30804 35.8875C9.19106 35.9945 8.9961 36.0481 8.80113 36.0748C8.56716 36.1016 8.41119 36.0748 8.21622 35.9945C8.06025 35.9143 7.94326 35.8072 7.94326 35.6466C7.90427 35.4861 7.94326 35.3523 8.09924 35.2452C8.21622 35.1382 8.3722 35.0846 8.60616 35.0579Z" fill="white"/>
<path d="M8.68409 37.7862C8.64509 37.7595 8.6061 37.7059 8.56711 37.6256C8.52811 37.5454 8.48912 37.4651 8.45013 37.3848C8.41113 37.3045 8.41113 37.2242 8.41113 37.1707C8.41113 37.1172 8.41113 37.0637 8.45013 37.0101C8.48912 36.9566 8.52811 36.9298 8.6061 36.8763C8.68409 36.8496 8.76207 36.8228 8.91805 36.796L12.4665 36.127C12.5835 36.1002 12.6614 36.1002 12.7394 36.127C12.8174 36.1538 12.8954 36.2073 12.9344 36.2608C13.0514 36.3679 13.1294 36.5017 13.2074 36.6355C13.2853 36.7693 13.3633 36.9298 13.4413 37.0637C13.6363 37.5454 13.6363 37.92 13.4413 38.2412C13.2464 38.5355 12.8954 38.7496 12.3885 38.8299C12.1545 38.8834 11.9206 38.8834 11.6866 38.8834C11.4526 38.8567 11.2577 38.8299 11.0627 38.7496C10.8677 38.6693 10.7118 38.5623 10.5558 38.4285C10.3998 38.2947 10.3218 38.1073 10.2048 37.8933L10.0489 37.5186L8.68409 37.7862ZM11.2187 37.5989C11.2577 37.7327 11.3747 37.8397 11.4916 37.8933C11.6086 37.9468 11.8036 37.9735 11.9986 37.92C12.1935 37.8933 12.3105 37.813 12.3885 37.7059C12.4665 37.5989 12.4665 37.4918 12.3885 37.3313C12.3495 37.2777 12.3495 37.2242 12.3495 37.1975C12.3495 37.1707 12.3105 37.1172 12.2715 37.0904L11.1017 37.3045L11.2187 37.5989Z" fill="white"/>
<path d="M14.2604 39.3389C14.3384 39.3656 14.4554 39.4459 14.5724 39.553C14.6893 39.66 14.8063 39.7403 14.8843 39.8741C15.0013 40.0347 15.0793 40.1952 15.0793 40.329C15.0793 40.4628 15.0403 40.5967 14.9233 40.6769C14.7283 40.8107 14.4944 40.9713 14.2214 41.1586C13.9485 41.346 13.6755 41.5065 13.3636 41.6939C13.0516 41.8812 12.7787 42.0418 12.4667 42.2291C12.1937 42.4164 11.9208 42.5502 11.6868 42.684C11.6088 42.6573 11.4919 42.6305 11.4139 42.577C11.3359 42.5235 11.2189 42.4164 11.1799 42.3361C11.1409 42.2559 11.1019 42.2023 11.0629 42.1221C11.0629 42.0685 11.0239 42.015 11.0629 41.9615C11.0629 41.908 11.1019 41.8812 11.1409 41.8277C11.1799 41.7742 11.2579 41.7474 11.2969 41.6939L11.7258 41.453L11.1019 40.5967C10.9459 40.6234 10.79 40.6502 10.595 40.6769C10.439 40.7037 10.2831 40.7305 10.0881 40.7572C10.0491 40.7305 9.9711 40.6769 9.93211 40.6234C9.89311 40.5699 9.81513 40.5164 9.77614 40.4628C9.65915 40.3023 9.62016 40.1685 9.65915 40.0614C9.69815 39.9544 9.77613 39.8741 9.93211 39.8206C10.0101 39.7938 10.0491 39.7938 10.1271 39.7671C10.2051 39.7671 10.2831 39.7403 10.4 39.7403C10.556 39.7135 10.712 39.6868 10.9459 39.6868C11.1799 39.66 11.4139 39.6332 11.6478 39.6065C11.8818 39.5797 12.1548 39.553 12.4277 39.5262C12.7007 39.4994 12.9346 39.4727 13.1686 39.4727C13.4026 39.4459 13.6365 39.4459 13.7925 39.4192C14.0265 39.3389 14.1824 39.3389 14.2604 39.3389ZM13.7535 40.1952C13.5195 40.222 13.2856 40.2488 12.9736 40.2755C12.7007 40.3023 12.4277 40.329 12.1158 40.3826L12.5447 40.9713C12.7787 40.8375 12.9736 40.7037 13.2076 40.5967C13.4026 40.4628 13.5975 40.3558 13.7535 40.2488V40.1952Z" fill="white"/>
<path d="M14.8836 41.6411C14.9226 41.5876 14.9615 41.5608 15.0005 41.4805C15.0785 41.427 15.1175 41.3735 15.2345 41.3199C15.3905 41.2397 15.5465 41.2129 15.6634 41.2129C15.7804 41.2397 15.8974 41.2664 15.9754 41.3467L17.9641 43.22C17.9251 43.2735 17.8861 43.3003 17.8471 43.3806C17.7691 43.4341 17.7301 43.4876 17.6131 43.5411C17.4572 43.6214 17.3012 43.6482 17.1842 43.6482C17.0672 43.6214 16.9502 43.5947 16.8722 43.5144L16.3653 43.0327L13.4408 44.5045C13.4018 44.4778 13.3238 44.4243 13.2458 44.3707C13.1678 44.3172 13.0899 44.2369 13.0119 44.1834C12.9339 44.1299 12.8949 44.0496 12.8559 43.9961C12.8169 43.9426 12.8169 43.889 12.8169 43.8355C12.8169 43.782 12.8559 43.7285 12.8949 43.6749C12.9339 43.6214 13.0119 43.5679 13.1288 43.5144L15.5854 42.2833L14.8836 41.6411Z" fill="white"/>
<path d="M16.0152 46.4321C15.9762 46.4054 15.8982 46.3786 15.7813 46.3251C15.7033 46.2716 15.5863 46.218 15.5083 46.1645C15.4303 46.111 15.3523 46.0575 15.3133 46.0039C15.2743 45.9504 15.2354 45.8969 15.2354 45.8434C15.2354 45.7899 15.2354 45.7363 15.2743 45.6828C15.3133 45.6293 15.3913 45.5758 15.4693 45.4955L18.4328 43.5151C18.4718 43.5419 18.5498 43.5687 18.6668 43.6222C18.7838 43.6757 18.8618 43.7292 18.9398 43.7828C19.0177 43.8363 19.0957 43.8898 19.1347 43.9433C19.1737 43.9968 19.2127 44.0504 19.2127 44.1039C19.2127 44.1574 19.2127 44.2109 19.1737 44.2645C19.1347 44.318 19.0567 44.3715 18.9788 44.4518L16.0152 46.4321Z" fill="white"/>
<path d="M17.574 47.4493C17.4181 47.3423 17.3011 47.2352 17.2621 47.1282C17.2231 46.9944 17.3011 46.8873 17.4181 46.7535L19.9137 44.5591C19.9527 44.5858 20.0307 44.6126 20.1476 44.6394C20.2646 44.6929 20.3426 44.7197 20.4596 44.7732C20.5376 44.8267 20.6156 44.8802 20.6935 44.9337C20.7715 44.9873 20.8105 45.0408 20.8105 45.0943C20.8495 45.1478 20.8105 45.2014 20.8105 45.2549C20.7715 45.3084 20.7325 45.3887 20.6546 45.4422L18.7439 47.1014L20.1476 47.8507C20.1476 47.9043 20.1086 47.9578 20.0696 48.0113C20.0307 48.0648 19.9917 48.1451 19.9137 48.1986C19.7967 48.3057 19.6797 48.3592 19.5237 48.386C19.4068 48.386 19.2898 48.3592 19.1728 48.3057L17.574 47.4493Z" fill="white"/>
<path d="M25.7241 47.127C25.763 47.127 25.88 47.1537 25.997 47.1805C26.114 47.2072 26.231 47.234 26.348 47.2608C26.4649 47.2875 26.5429 47.3143 26.6209 47.3678C26.6989 47.3946 26.7379 47.4481 26.7769 47.5016C26.8159 47.5551 26.8159 47.6087 26.8159 47.6622C26.8159 47.7157 26.7769 47.796 26.7379 47.8763L25.6071 49.696C25.4121 49.9904 25.1781 50.1777 24.8272 50.258C24.4763 50.3383 24.0863 50.3116 23.6184 50.151C23.3844 50.0707 23.1895 49.9904 23.0725 49.8834C22.9945 49.8031 22.9555 49.7496 22.9165 49.6693C22.9165 49.589 22.9165 49.5087 22.9555 49.4284C22.9945 49.3749 23.0335 49.3214 23.1115 49.2679C23.1505 49.2143 23.2285 49.1876 23.2674 49.1876C23.3454 49.2143 23.4234 49.2679 23.4624 49.2946C23.5404 49.3214 23.5794 49.3481 23.6574 49.3749C23.8524 49.4284 24.0083 49.4284 24.1253 49.4017C24.2423 49.3481 24.3593 49.2679 24.4373 49.1608L25.7241 47.127Z" fill="white"/>
<path d="M31.0271 50.311C30.9491 50.4983 30.8711 50.6589 30.7152 50.7927C30.5592 50.9265 30.4032 51.0336 30.1693 51.1138C29.9743 51.1941 29.7013 51.2476 29.4284 51.2744C29.1554 51.3012 28.8825 51.2744 28.5315 51.2209C28.2196 51.1674 27.9466 51.0871 27.7126 51.0068C27.4787 50.8997 27.2837 50.7927 27.1667 50.6589C27.0108 50.5251 26.9328 50.3645 26.8938 50.204C26.8548 50.0434 26.8548 49.8561 26.9328 49.6687L27.5957 47.6616C27.6347 47.6616 27.7516 47.6616 27.8686 47.6616C27.9856 47.6616 28.1026 47.6884 28.2196 47.6884C28.3365 47.7151 28.4535 47.7419 28.5315 47.7419C28.6095 47.7687 28.6875 47.7954 28.7265 47.8489C28.7655 47.9025 28.8045 47.9292 28.8045 48.0095C28.8045 48.063 28.8045 48.1433 28.7655 48.2236L28.2196 49.8293C28.1806 49.9899 28.1806 50.1504 28.2976 50.2575C28.4145 50.3645 28.5705 50.4448 28.7655 50.4716C28.9994 50.4983 29.1554 50.4983 29.3504 50.418C29.5064 50.3378 29.6233 50.2307 29.6623 50.0701L30.3252 48.0898C30.3642 48.0898 30.4812 48.0898 30.5982 48.0898C30.7152 48.0898 30.8321 48.1166 30.9491 48.1166C31.0661 48.1433 31.1831 48.1701 31.2611 48.1701C31.3391 48.1968 31.417 48.2236 31.456 48.2771C31.495 48.3307 31.534 48.3574 31.534 48.4377C31.534 48.4912 31.534 48.5715 31.495 48.6518L31.0271 50.311Z" fill="white"/>
<path d="M36.6428 51.5427C36.5648 51.5962 36.4479 51.623 36.3309 51.6498C36.1749 51.6765 36.0189 51.6765 35.824 51.6765C35.629 51.6765 35.434 51.6498 35.278 51.623C35.1221 51.5695 34.9661 51.4892 34.8491 51.3286L34.1082 50.2314C34.0302 50.1244 33.9523 50.0173 33.9133 49.9103C33.8353 49.8032 33.7963 49.6962 33.7183 49.5624H33.6793C33.6793 49.7497 33.7183 49.9638 33.7183 50.1511C33.7183 50.3385 33.7183 50.5525 33.7183 50.7399L33.6793 51.5695C33.6403 51.5695 33.5233 51.5962 33.4063 51.5962C33.2894 51.5962 33.1724 51.623 33.0554 51.5962C32.9384 51.5962 32.8604 51.5962 32.7435 51.5695C32.6655 51.5695 32.5875 51.5427 32.5095 51.516C32.4705 51.4892 32.3925 51.4357 32.3925 51.3821C32.3535 51.3286 32.3535 51.2483 32.3535 51.1681L32.4315 48.4919C32.5095 48.4116 32.6265 48.3581 32.7824 48.3314C32.9384 48.3046 33.0944 48.2778 33.2504 48.2778C33.4453 48.2778 33.6403 48.3046 33.7963 48.3581C33.9523 48.4116 34.1082 48.4919 34.1862 48.6525L34.9271 49.7497C35.0051 49.8568 35.0831 49.9638 35.1221 50.0708C35.2001 50.1779 35.2391 50.2849 35.317 50.4187H35.356C35.356 50.2314 35.317 50.0441 35.317 49.83C35.317 49.6427 35.317 49.4553 35.317 49.2412L35.356 48.3849C35.395 48.3849 35.512 48.3581 35.629 48.3581C35.746 48.3581 35.863 48.3314 35.9799 48.3581C36.2139 48.3581 36.3699 48.3849 36.4869 48.4384C36.6038 48.4919 36.6428 48.599 36.6428 48.7863V51.5427Z" fill="white"/>
<path d="M39.4108 51.3029C39.3718 51.3296 39.2549 51.3296 39.1379 51.3564C39.0209 51.3831 38.9039 51.4099 38.7869 51.4099C38.67 51.4099 38.553 51.4367 38.475 51.4367C38.397 51.4367 38.319 51.4099 38.241 51.3831C38.163 51.3564 38.124 51.3296 38.0851 51.2761C38.0461 51.2226 38.0071 51.1423 37.9681 51.062L37.3052 48.2788C37.3442 48.2788 37.4612 48.2521 37.5781 48.2253C37.6951 48.1985 37.8121 48.1718 37.9291 48.1718C38.0461 48.1718 38.163 48.145 38.241 48.145C38.319 48.145 38.397 48.1718 38.475 48.1985C38.553 48.2253 38.592 48.2521 38.631 48.3056C38.67 48.3591 38.709 48.4394 38.7479 48.5197L39.4108 51.3029Z" fill="white"/>
<path d="M39.9957 49.6707C39.8787 49.4031 39.8007 49.1622 39.8397 48.9214C39.8787 48.6805 39.9567 48.4932 40.0737 48.3059C40.2297 48.1186 40.4246 47.958 40.6586 47.8242C40.8926 47.6904 41.2045 47.5833 41.5165 47.503C41.8284 47.4228 42.1794 47.396 42.4913 47.396C42.8033 47.396 43.1152 47.4495 43.3882 47.5298C43.6611 47.6101 43.9341 47.7439 44.129 47.9312C44.363 48.1186 44.519 48.3326 44.675 48.6003C44.7919 48.8679 44.8699 49.1087 44.8309 49.3496C44.7919 49.5904 44.7529 49.7778 44.597 49.9651C44.441 50.1524 44.246 50.313 44.0121 50.4468C43.7781 50.5806 43.4662 50.6876 43.1542 50.7679C42.8033 50.8482 42.4913 50.875 42.1794 50.875C41.8674 50.875 41.5555 50.8215 41.2825 50.7412C41.0095 50.6609 40.7756 50.5271 40.5416 50.3397C40.2687 50.1524 40.1127 49.9383 39.9957 49.6707ZM41.2825 49.3496C41.4385 49.6707 41.6334 49.858 41.9064 49.9651C42.1794 50.0721 42.4523 50.0989 42.7643 50.0186C43.0762 49.9383 43.2712 49.8045 43.3882 49.6172C43.5051 49.4299 43.4662 49.1622 43.3102 48.8679C43.1542 48.5735 42.9592 48.3594 42.6863 48.2524C42.4133 48.1453 42.1404 48.1186 41.8284 48.1988C41.5165 48.2791 41.3215 48.4129 41.2045 48.6003C41.1265 48.7876 41.1655 49.0552 41.2825 49.3496Z" fill="white"/>
<path d="M47.054 48.2764L47.8339 49.1595C47.7949 49.1863 47.7169 49.2398 47.6389 49.2933C47.5609 49.3469 47.444 49.4004 47.327 49.4271C47.21 49.4807 47.132 49.5074 47.054 49.5342C46.976 49.5609 46.8981 49.5609 46.8201 49.5609C46.7421 49.5609 46.6641 49.5342 46.5861 49.5074C46.5081 49.4807 46.4301 49.4004 46.3911 49.3201L44.4804 47.1524C44.4414 47.0989 44.4025 47.0186 44.4414 46.9651C44.4414 46.9116 44.5194 46.8581 44.5584 46.8045C44.6754 46.6975 44.8314 46.6172 45.0264 46.5102C45.2213 46.4031 45.4163 46.3228 45.6503 46.2158C46.2742 45.9749 46.7811 45.8679 47.249 45.8946C47.7169 45.9482 48.0679 46.1087 48.3408 46.4299C48.4968 46.6172 48.5748 46.8045 48.5748 46.9919C48.5358 47.1792 48.4968 47.3665 48.3408 47.5003C48.6138 47.5806 48.9257 47.6609 49.1987 47.7144C49.4716 47.7679 49.7056 47.8482 49.8616 47.9285C49.9006 48.0623 49.9006 48.1694 49.8226 48.2764C49.7446 48.3834 49.6666 48.4637 49.5106 48.5173C49.4326 48.5708 49.3157 48.5975 49.2377 48.5975C49.1597 48.6243 49.0817 48.6243 49.0037 48.5975C48.9257 48.5975 48.8477 48.5708 48.7698 48.5708C48.6918 48.544 48.6138 48.5173 48.5358 48.4905L47.444 48.1158L47.054 48.2764ZM46.937 47.4736C47.093 47.3933 47.21 47.313 47.249 47.2059C47.288 47.0989 47.249 46.9919 47.171 46.8848C47.054 46.7778 46.937 46.6975 46.7811 46.6975C46.6251 46.6707 46.4301 46.7242 46.1962 46.8313C46.1182 46.858 46.0792 46.8848 46.0402 46.9116C46.0012 46.9383 45.9622 46.9651 45.9232 46.9919L46.5471 47.6877L46.937 47.4736Z" fill="white"/>
<path d="M51.421 43.8631C51.1481 44.0504 51.0311 44.2645 51.0701 44.4786C51.1091 44.6927 51.265 44.9068 51.616 45.1209C51.9279 45.335 52.2789 45.442 52.6298 45.442C52.9808 45.442 53.2927 45.335 53.5657 45.1477C53.7216 45.0406 53.7996 44.9336 53.8776 44.8533C53.9556 44.7462 53.9946 44.6659 54.0336 44.5589C54.1506 44.5589 54.2676 44.5589 54.3455 44.5857C54.4625 44.6124 54.5405 44.6659 54.6575 44.7195C54.8135 44.8265 54.8525 44.9603 54.8135 45.1477C54.7745 45.335 54.5795 45.5491 54.2286 45.7899C53.9946 45.9505 53.7216 46.1111 53.4487 46.1913C53.1757 46.2984 52.8638 46.3519 52.5518 46.3787C52.2399 46.4054 51.9279 46.3519 51.616 46.2716C51.304 46.1913 50.9921 46.0308 50.6801 45.8434C50.3682 45.6561 50.1732 45.442 50.0172 45.2279C49.9003 45.0138 49.8223 44.7998 49.8223 44.5857C49.8223 44.3716 49.9003 44.1842 50.0172 43.9701C50.1342 43.7828 50.3292 43.5955 50.5631 43.4349C50.8751 43.1941 51.187 43.0603 51.499 43.0067C51.8109 42.9532 52.0449 42.98 52.2009 43.087C52.3179 43.1405 52.3569 43.2208 52.3959 43.3011C52.4348 43.3814 52.4348 43.4617 52.3959 43.5152C52.2399 43.542 52.0839 43.5687 51.9279 43.6223C51.733 43.7025 51.577 43.7828 51.421 43.8631Z" fill="white"/>
<path d="M53.761 43.594C53.41 43.4334 53.137 43.2728 52.9421 43.0855C52.7471 42.8982 52.6301 42.7108 52.5521 42.4968C52.4742 42.2827 52.4742 42.0953 52.5521 41.8812C52.6301 41.6671 52.7471 41.4531 52.9421 41.2657C53.137 41.0784 53.332 40.8911 53.605 40.7573C53.8389 40.6235 54.1119 40.5432 54.4238 40.4897C54.7358 40.4361 55.0477 40.4361 55.3597 40.4629C55.7106 40.5164 56.0226 40.5967 56.3735 40.7573C56.7245 40.9178 56.9974 41.0784 57.1924 41.2657C57.3874 41.4531 57.5433 41.6404 57.5823 41.8545C57.6603 42.0686 57.6603 42.2559 57.5823 42.47C57.5043 42.6841 57.3874 42.8982 57.1924 43.0855C56.9974 43.2728 56.8025 43.4602 56.5295 43.594C56.2565 43.7278 55.9836 43.8081 55.7106 43.8616C55.3987 43.9151 55.0867 43.9151 54.7748 43.8616C54.4238 43.8348 54.1119 43.7278 53.761 43.594ZM54.5018 42.7911C54.8918 42.9517 55.2427 43.032 55.5547 43.0052C55.8666 42.9785 56.1006 42.8714 56.2565 42.6841C56.4125 42.4968 56.4515 42.3094 56.3735 42.0953C56.2955 41.908 56.0226 41.7207 55.6326 41.5333C55.2427 41.3728 54.8918 41.2925 54.5798 41.3193C54.2679 41.346 54.0339 41.4531 53.8779 41.6404C53.722 41.8277 53.683 42.0151 53.761 42.2024C53.8389 42.4165 54.1119 42.6038 54.5018 42.7911Z" fill="white"/>
<path d="M59.1807 40.2509C59.1027 40.3847 58.9857 40.4918 58.8298 40.5453C58.6738 40.5988 58.4788 40.5988 58.2839 40.5453L54.5015 39.5551C54.5015 39.5284 54.5405 39.4481 54.5405 39.3678C54.5795 39.2875 54.6184 39.2072 54.6574 39.1269C54.6964 39.0467 54.7354 38.9931 54.8134 38.9396C54.8524 38.8861 54.9304 38.8326 54.9694 38.8058C55.0474 38.779 55.1254 38.7523 55.2034 38.7523C55.2813 38.7523 55.3983 38.779 55.5153 38.8058L58.4008 39.5551L59.0247 38.4312C59.1027 38.4312 59.1807 38.4312 59.2587 38.4312C59.3757 38.4312 59.4537 38.4579 59.5707 38.4847C59.7656 38.5382 59.8826 38.5917 59.9216 38.672C59.9606 38.7523 59.9606 38.8326 59.9216 38.9396L59.1807 40.2509Z" fill="white"/>
<path d="M60.5847 37.3041C60.5457 37.4646 60.4288 37.5717 60.2728 37.6252C60.1168 37.7055 59.9218 37.7055 59.7269 37.6787L55.7495 37.1435C55.7495 37.1167 55.7495 37.0364 55.7495 36.9562C55.7495 36.8759 55.7885 36.7956 55.7885 36.7153C55.8275 36.635 55.8275 36.5547 55.8665 36.5012C55.9055 36.4477 55.9445 36.3942 56.0225 36.3674C56.0615 36.3406 56.1395 36.3139 56.2564 36.2871C56.3344 36.2871 56.4514 36.2871 56.5684 36.2871L59.6099 36.6885L59.9608 35.4843C60.0388 35.4575 60.1168 35.4575 60.1948 35.4575C60.3118 35.4575 60.3898 35.4575 60.5067 35.4575C60.7017 35.4843 60.8577 35.5378 60.8967 35.6181C60.9747 35.6984 60.9747 35.7787 60.9747 35.8589L60.5847 37.3041Z" fill="white"/>
<path d="M57.1531 34.6573C56.9191 34.6573 56.7631 34.6038 56.6461 34.5235C56.5292 34.4432 56.4512 34.3094 56.4512 34.1489L56.5292 32.4094C56.5682 32.3826 56.6461 32.3559 56.7631 32.3559C56.8411 32.3291 56.9581 32.3291 57.0751 32.3291C57.27 32.3291 57.426 32.3559 57.504 32.4361C57.582 32.4897 57.621 32.57 57.621 32.677L57.582 33.801H58.3229L58.3619 32.5967C58.4009 32.57 58.4788 32.5432 58.5958 32.5432C58.6738 32.5164 58.7908 32.5164 58.9078 32.5164C59.1027 32.5164 59.2587 32.5432 59.3367 32.5967C59.4147 32.6502 59.4537 32.7305 59.4537 32.8376L59.4147 33.801L60.2336 33.8277L60.2726 32.4629C60.3116 32.4361 60.3895 32.4094 60.5065 32.4094C60.5845 32.3826 60.7015 32.3826 60.8185 32.3826C61.0134 32.3826 61.1694 32.4094 61.2474 32.4897C61.3254 32.5432 61.3644 32.6235 61.3644 32.7305L61.2864 34.2827C61.2864 34.4432 61.2084 34.5503 61.0914 34.6306C60.9744 34.7109 60.7795 34.7644 60.5455 34.7644L57.1531 34.6573Z" fill="white"/>
<path d="M59.7269 28.6366C59.8829 28.6098 59.9998 28.6366 60.0778 28.6633C60.1558 28.6901 60.2728 28.7436 60.3508 28.8239C60.3898 28.8774 60.4678 28.9309 60.5068 28.9845C60.5457 29.0648 60.6237 29.1183 60.6627 29.2253C60.7017 29.3056 60.7407 29.3859 60.7797 29.4929C60.8187 29.6 60.8577 29.6803 60.8577 29.7873C60.9357 30.0282 60.9357 30.269 60.8967 30.5099C60.8577 30.7507 60.7407 30.938 60.5847 31.1254C60.4288 31.3127 60.1948 31.4733 59.9218 31.6071C59.6489 31.7409 59.298 31.8212 58.908 31.8747C58.4791 31.9282 58.0891 31.9015 57.7772 31.8479C57.4262 31.7677 57.1533 31.6874 56.8803 31.5268C56.6074 31.3662 56.4124 31.2057 56.2564 30.9916C56.1005 30.7775 55.9835 30.5634 55.9445 30.3493C55.8665 30.0282 55.8665 29.7338 55.9835 29.5465C56.1005 29.3324 56.2564 29.2253 56.5294 29.1986C56.6464 29.1718 56.8024 29.1986 56.8803 29.2253C56.9973 29.2521 57.0753 29.3056 57.1533 29.3591C57.1143 29.4662 57.0363 29.5732 56.9973 29.707C56.9583 29.8408 56.9583 30.0014 56.9973 30.162C57.0753 30.4563 57.2313 30.6704 57.5432 30.831C57.8162 30.9648 58.2061 31.0183 58.6351 30.9648C58.869 30.938 59.064 30.8845 59.22 30.831C59.3759 30.7507 59.4929 30.6972 59.6099 30.5902C59.6879 30.5099 59.7659 30.4028 59.8049 30.2958C59.8439 30.1887 59.8439 30.0817 59.8049 29.9479C59.8049 29.8676 59.7659 29.8141 59.7269 29.7605C59.6879 29.707 59.6489 29.6535 59.6099 29.6267L58.869 29.707L59.025 30.269C58.986 30.2958 58.908 30.3225 58.83 30.3493C58.752 30.3761 58.6351 30.4028 58.5571 30.4028C58.3621 30.4296 58.2451 30.4028 58.1281 30.3493C58.0502 30.2958 57.9722 30.2423 57.9332 30.1352L57.6992 29.2521C57.6602 29.145 57.6992 29.0648 57.7772 28.9845C57.8552 28.9042 57.9722 28.8774 58.1281 28.8507L59.7269 28.6366Z" fill="white"/>
<path d="M56.2957 28.5267C56.1007 28.5802 55.9057 28.5802 55.7498 28.5267C55.5938 28.4732 55.4768 28.3661 55.3988 28.2323L54.502 26.5999C54.5409 26.5731 54.6189 26.5196 54.6969 26.4928C54.7749 26.4393 54.8529 26.4125 54.9699 26.3858C55.1648 26.3322 55.3208 26.3322 55.3988 26.359C55.5158 26.3858 55.5938 26.4661 55.6328 26.5463L56.2177 27.59L56.8806 27.4027L56.2567 26.2787C56.2957 26.252 56.3737 26.1984 56.4126 26.1717C56.4906 26.1182 56.5686 26.0914 56.6856 26.0646C56.8806 26.0111 56.9976 26.0111 57.1145 26.0379C57.2315 26.0646 57.3095 26.1182 57.3485 26.2252L57.8554 27.1351L58.6353 26.9478L57.9334 25.6632C57.9724 25.6365 58.0504 25.5829 58.1284 25.5562C58.2064 25.5294 58.2843 25.4759 58.4013 25.4491C58.5963 25.3956 58.7523 25.3956 58.8303 25.4224C58.9082 25.4491 59.0252 25.5294 59.0642 25.6097L59.8831 27.0548C59.9611 27.1886 59.9611 27.3224 59.8831 27.4295C59.8051 27.5365 59.6491 27.6168 59.4542 27.6703L56.2957 28.5267Z" fill="white"/>
<path d="M56.4119 10.1693C56.2949 10.1426 56.2169 10.1426 56.1 10.1426C55.71 10.1426 55.3201 10.3031 55.1641 10.5707C54.9691 10.8651 54.3842 11.4003 52.5515 11.4806C51.8496 11.5074 51.1867 11.5877 50.5628 11.7215C50.6018 11.6412 50.6408 11.5877 50.6798 11.5074C52.0056 9.7679 53.9943 9.52704 55.0861 9.52704C55.3981 9.52704 55.593 9.5538 55.593 9.5538C55.671 9.5538 55.71 9.5538 55.788 9.5538C56.2559 9.5538 56.6849 9.31295 56.8018 8.99182C56.9188 8.61716 56.5679 8.2425 56.022 8.16221C55.788 8.13545 54.9301 8.00165 53.8383 8.00165C52.3566 8.00165 51.1088 8.21574 50.0949 8.5904C51.2257 6.77062 53.4874 6.2354 53.6044 6.20864C54.1503 6.10159 54.4232 5.70017 54.2673 5.32551C54.1503 5.03114 53.7213 4.81704 53.2924 4.81704C53.2144 4.81704 53.0974 4.81704 53.0195 4.84381C49.783 5.45932 48.0283 6.61006 47.0924 7.60023C47.0924 7.51994 47.0534 7.43966 47.0534 7.35937C46.5855 5.43256 48.3792 4.09449 49.1591 3.61278C49.588 3.34517 49.627 2.91699 49.2761 2.62261C49.0811 2.46204 48.7691 2.38176 48.4962 2.38176C48.2622 2.38176 48.0672 2.43528 47.8723 2.54233C47.7943 2.59585 47.7163 2.62261 47.6383 2.67614C46.2345 3.39869 43.7 4.76352 43.505 7.22557C42.9201 4.95085 45.2207 2.40852 45.2597 2.38176C45.5717 2.06062 45.4157 1.63244 44.9867 1.41835C44.7918 1.33807 44.5968 1.28455 44.4018 1.28455C44.0899 1.28455 43.7779 1.39159 43.583 1.57892C38.7477 6.18187 39.9176 8.37631 40.1515 8.69744C40.8144 9.71437 40.9704 10.8651 40.6584 11.8553C40.1515 11.4806 39.3716 11.1327 38.3968 11.106C38.3578 11.106 38.3188 11.106 38.2798 11.106C37.9679 11.106 37.149 11.1327 36.1352 11.4539C35.6672 11.5877 35.3553 11.6412 35.2383 11.668C35.0823 11.6144 34.9654 11.5877 34.8094 11.5877C34.5364 11.5877 34.3025 11.668 34.0685 11.8018C33.9125 11.9088 33.8345 12.0426 33.7955 12.1764C33.7176 12.1497 33.6396 12.1229 33.6006 12.0694C33.4056 11.9623 33.1716 11.9088 32.9767 11.9088C32.7037 11.9088 32.4308 11.9891 32.2358 12.1229C31.8848 12.3905 31.8459 12.7919 32.1578 13.0595C32.1968 13.1131 32.4308 13.3004 32.7817 13.4877C32.5867 13.5412 32.3918 13.6483 32.2748 13.7821C32.2358 13.8356 32.1968 13.8624 32.1968 13.9159C30.2471 12.6581 30.0521 10.2764 31.105 8.85801C31.105 8.83125 31.144 8.80449 31.144 8.80449C31.183 8.7242 31.6119 7.92136 31.3779 6.47625C31.066 4.62972 29.8572 2.56909 27.7905 0.321136C27.5955 0.107045 27.2446 0 26.9326 0C26.7377 0 26.5817 0.0267613 26.3867 0.107045C25.9188 0.294375 25.7628 0.722557 26.0358 1.07045C26.0748 1.09722 28.7264 4.44239 27.3226 7.03824C27.3226 6.93119 27.3226 6.79739 27.3226 6.69034C27.4786 3.90716 24.71 2.27472 23.2282 1.39159C23.1503 1.33807 23.0333 1.28455 22.9553 1.23102C22.7603 1.12398 22.5264 1.04369 22.2924 1.04369C22.0194 1.04369 21.7465 1.12398 21.5515 1.25778C21.1616 1.5254 21.1616 1.98034 21.5515 2.24795C22.3704 2.8367 24.2421 4.38886 23.5792 6.52977C23.5402 6.69034 23.5012 6.85091 23.4622 6.98471C22.5653 5.80721 20.7326 4.38886 17.0672 3.5325C16.9502 3.50574 16.8333 3.50574 16.7163 3.50574C16.2874 3.50574 15.8974 3.69307 15.7414 3.96068C15.5465 4.30858 15.8194 4.71 16.3263 4.87057C16.4433 4.89733 19.0949 5.64665 20.1477 7.8946C19.0949 7.38614 17.5352 6.95795 15.1955 6.95795C14.3377 6.95795 13.7138 7.01148 13.4798 7.03824C12.9339 7.09176 12.544 7.46642 12.6219 7.84108C12.6999 8.18898 13.1289 8.45659 13.6358 8.45659C13.6748 8.45659 13.7138 8.45659 13.7528 8.45659C13.7528 8.45659 13.8697 8.45659 14.0647 8.45659C15.1175 8.45659 17.6521 8.69744 19.0949 10.8919C19.1729 11.0257 19.2119 11.1595 19.2899 11.2933C18.549 11.106 17.7691 10.9722 16.9502 10.8919C14.9226 10.7045 14.2597 10.089 14.0647 9.71437C13.9087 9.44676 13.5188 9.25943 13.0899 9.25943C13.0119 9.25943 12.9339 9.25943 12.8559 9.28619C12.349 9.36647 12.037 9.71437 12.076 10.0623C12.115 10.2496 12.544 11.882 16.1704 12.8722C16.6383 13.006 17.0672 13.2736 17.5352 13.568C16.5213 13.3539 15.5075 13.2201 14.4936 13.2201C14.0647 13.2201 13.7528 13.2469 13.5578 13.2469C13.5188 13.2469 13.4798 13.2469 13.4408 13.2469C12.8949 13.2469 12.427 13.5412 12.427 13.9159C12.388 14.2906 12.8169 14.6385 13.4018 14.6652C14.1037 14.692 17.7301 14.9596 19.8748 16.7794C20.2647 17.1273 20.8106 17.3681 21.4345 17.5555C21.3955 17.609 21.3955 17.6357 21.3955 17.6893C21.3175 18.0372 21.6295 18.3583 22.1364 18.4653C22.2144 18.4921 22.6433 18.5724 23.3842 18.5724C23.8911 18.5724 24.476 18.5456 25.2169 18.4386C25.3729 18.5724 25.5679 18.6794 25.8408 18.7062C25.8798 18.7062 26.3087 18.7597 26.9326 18.7597C27.1666 18.7597 27.4006 18.7597 27.6345 18.733C27.6345 18.7597 27.6345 18.8132 27.6345 18.84C27.6735 19.1344 27.9465 19.3752 28.3364 19.4555C28.4144 19.4823 28.8823 19.5626 29.6622 19.5626C29.7402 19.5626 29.8182 19.5626 29.8962 19.5626C28.8433 20.7936 27.7515 22.6133 28.1804 24.5937C28.6094 26.6276 30.5981 28.367 33.9905 29.7586C34.1465 29.8122 34.3415 29.8657 34.4974 29.8657C34.8094 29.8657 35.1603 29.7586 35.3553 29.5445C35.5503 29.3304 35.5893 29.0896 35.4333 28.8755C36.6031 29.1966 37.8899 29.3572 39.2157 29.3572C41.2044 29.3572 43.31 28.9826 45.4547 28.2868C45.9616 28.1262 46.1566 27.7248 45.9616 27.3769C45.8056 27.136 45.4937 26.9754 45.1037 26.9487C46.7415 26.3064 48.1452 25.4768 49.2371 24.6205C48.6911 24.112 48.2232 23.5768 47.7943 23.0415C47.4823 22.6133 47.1704 22.1852 47.0924 21.7035C46.7415 22.0514 46.3125 22.3993 45.8056 22.7204C45.8446 22.6669 45.8836 22.6133 45.9616 22.5331L45.0647 22.2119L44.3628 21.7035C44.3239 21.7302 41.6723 23.3627 38.7867 23.3627C38.0069 23.3627 37.266 23.2289 36.6031 22.988C36.6031 22.988 36.6031 22.988 36.5641 22.988C35.3553 22.5866 34.5754 21.9176 34.4584 21.195C34.3415 20.4457 34.8874 19.6696 36.0962 18.9738C37.11 19.3485 38.5138 19.3485 38.7867 19.3485C39.1377 19.3485 39.4106 19.3217 39.6446 19.2949C39.8786 19.2682 40.0735 19.1611 40.2295 19.0541C40.3855 19.0541 40.5025 19.0808 40.6194 19.0808C41.3213 19.0808 41.8283 18.9203 41.9452 18.8935C42.2182 18.8132 42.4522 18.6259 42.4911 18.4118C42.9591 18.4653 43.31 18.4921 43.505 18.4921C43.583 18.4921 43.622 18.4921 43.622 18.4921C43.9339 18.4653 44.2459 18.3583 44.4018 18.1977C45.1427 18.3048 45.7666 18.3583 46.2735 18.3583C46.9364 18.3583 47.3264 18.3048 47.4044 18.278C47.9113 18.1977 48.2622 17.8766 48.2232 17.5287C48.2232 17.4752 48.1842 17.3949 48.1842 17.3414C48.3792 17.2878 48.6522 17.2076 48.8081 17.1273C48.7691 17.2076 49.354 16.9399 50.0169 16.5653H50.0559C50.4459 16.378 50.7578 16.2174 51.0308 16.0568C52.4346 15.3343 52.7075 15.1737 54.3452 15.0666C54.8912 15.0399 55.2811 14.7187 55.2811 14.3441C55.2421 13.9694 54.8522 13.6751 54.3062 13.6751C54.2673 13.6751 54.2673 13.6751 54.2283 13.6751C54.0333 13.6483 53.7213 13.6215 53.2924 13.6215C53.0195 13.6215 52.7465 13.6215 52.5125 13.6483C52.7465 13.5412 52.9805 13.4342 53.2144 13.3807C56.6459 12.6046 57.1528 11.106 57.1918 10.9186C57.2308 10.6243 56.9188 10.2764 56.4119 10.1693Z" fill="white"/>
<path d="M28.5712 18.8681C28.5712 18.8681 30.014 19.1893 32.2366 18.547C32.2366 18.547 31.6127 19.0019 30.9498 19.7512H35.3951C34.7322 19.4033 34.6152 18.9752 35.4341 18.4667C38.3196 16.6469 36.8379 15.3089 37.0328 14.1046C37.2668 12.9806 39.0995 11.9637 40.2303 12.7665C40.2303 12.7665 39.5674 11.8566 38.2806 11.8566C38.2806 11.8566 37.5398 11.8299 36.4479 12.151C35.4341 12.4454 34.9272 12.4722 34.7322 12.3919C34.8882 12.4722 35.4341 12.6862 36.214 12.4186C36.331 12.3651 36.4479 12.3383 36.5649 12.3383C36.5259 12.3651 36.4869 12.3919 36.4479 12.4186C35.3951 13.0341 34.0303 13.3285 32.8605 12.6862C32.8605 12.6862 34.1083 13.7567 35.3561 13.3553C35.3561 13.3553 34.3033 14.4793 33.0945 14.2116C33.0945 14.2116 33.9913 14.8004 34.8882 14.5595C34.8882 14.5595 33.6404 15.8708 31.5347 14.5863C29.1561 13.1412 28.8052 10.3312 30.092 8.61852C30.092 8.61852 31.6127 5.94238 26.8165 0.804199C26.8165 0.804199 29.975 4.6846 27.9863 7.68187C27.9863 7.68187 26.8165 9.50164 27.2064 10.1439C26.9725 9.79602 26.1146 8.43119 26.1926 6.74522C26.3486 4.14937 23.541 2.65073 22.1762 1.84789C23.1121 2.49016 25.2567 4.30994 24.4769 6.79874C23.8919 8.56499 24.5158 10.0101 25.7636 11.3482C25.7636 11.3482 23.736 9.55516 22.6831 7.84244C21.2014 5.43391 17.614 4.57755 16.6001 4.3367C16.6001 4.3367 19.9536 5.21982 21.0844 7.97624C21.9033 9.90306 23.268 11.8031 24.7888 12.4989C24.7888 12.4989 22.0202 11.482 20.7724 9.68897C19.2907 7.54806 14.8064 7.70863 13.5196 7.8692C13.9096 7.84244 17.9649 7.62835 19.9926 10.7327C20.9284 12.8468 23.0341 13.6229 25.1008 13.8637C25.1008 13.8637 23.0341 14.2116 21.6303 13.3018C20.2265 12.3919 18.7838 11.8566 16.7171 11.6693C14.2215 11.4552 13.2857 10.5989 13.0127 10.0369C13.0127 10.0369 13.2857 11.4285 16.4831 12.2848C19.0177 12.9806 20.3045 16.1117 24.5548 15.175C24.5548 15.175 22.4882 16.5131 20.8504 15.6568C16.8731 13.6229 13.7926 14.0778 13.3636 14.0778C13.7146 14.1046 18.0429 14.2919 20.5775 16.4596C21.3574 17.1286 23.424 17.7174 26.2706 16.4596C26.2706 16.4596 24.7108 17.9047 22.2932 17.9315C22.2932 17.9315 24.7108 18.4132 28.2982 16.861C28.2982 16.861 27.5184 17.7441 25.9196 18.1188C25.9196 18.1188 28.4152 18.4667 30.6379 17.316C30.6379 17.2892 29.936 18.4132 28.5712 18.8681Z" fill="#FE120D"/>
<path d="M52.8253 12.7649C55.7498 12.0959 56.1007 10.8381 56.1007 10.8381C55.7888 11.3198 54.8919 12.0691 52.6303 12.1762C50.7976 12.2564 49.4328 12.7114 48.068 13.4607C46.7422 14.2368 44.8705 13.8621 44.8705 13.8621C46.7812 13.7283 48.7309 13.086 49.7448 11.2127C51.8114 8.45632 55.4768 8.80422 55.7888 8.83098C54.619 8.64365 50.6026 8.34928 49.0819 10.2226C47.8341 11.8015 45.2605 12.6311 45.2605 12.6311C46.7033 12.0423 48.068 10.3831 48.9649 8.67041C50.2127 6.23513 53.2932 5.53934 53.2932 5.53934C52.3573 5.72667 49.0429 6.3957 47.5221 8.50985C46.4303 10.0352 44.4806 11.5606 44.4806 11.5606C45.7284 10.4099 46.3913 9.12536 46.0014 7.49292C45.4555 5.2182 47.5221 3.66604 48.419 3.10405C47.1712 3.77309 44.4806 5.03087 44.4416 7.38587C44.4026 8.91127 43.5058 10.1155 43.2718 10.4099C43.6617 9.82115 42.7259 8.16195 42.7259 8.16195C41.1271 5.37877 44.2856 2.00684 44.2856 2.00684C39.5674 6.50274 40.9322 8.42956 40.9322 8.42956C42.4139 10.7043 41.946 14.0494 37.6957 14.8791C37.8127 15.6551 38.4756 17.0735 36.2529 18.3313C37.0328 18.6792 38.6705 18.7327 39.2554 18.6524C38.8655 18.3848 38.5926 18.1172 38.5146 17.8496C39.9573 18.7327 41.3221 18.2777 41.3221 18.2777C40.1133 17.8228 39.5674 16.7523 39.5674 16.7523C41.4781 17.8763 43.4278 17.796 43.4278 17.796C42.024 17.3946 41.2831 16.4847 41.2831 16.4847C44.4026 18.0101 47.0932 17.5819 47.0932 17.5819C44.9095 17.5017 43.2328 16.1636 43.2328 16.1636C45.7284 17.4214 47.8731 16.7256 48.8479 16.2706C51.5775 14.9326 51.6945 14.5579 54.1511 14.3973C53.7611 14.3973 51.9674 13.9692 48.497 15.4678C46.8982 16.1636 45.1435 15.0396 45.1435 15.0396C48.9649 16.0566 50.4856 13.3001 52.8253 12.7649Z" fill="#FE120D"/>
<path d="M34.7704 12.3896C34.7314 12.3628 34.7314 12.3628 34.7314 12.3628C34.7314 12.3896 34.7314 12.3896 34.7704 12.3896Z" fill="#FE120D"/>
<path d="M13.3636 58.528L21.2404 57.752L24.1649 59.7055L24.0479 60.8563L13.0127 59.0633L13.3636 58.528Z" fill="#FE120D"/>
<path d="M24.0475 61.2313C24.0085 61.2313 23.9695 61.2313 23.9305 61.2313L12.8953 59.4383C12.7393 59.4115 12.6223 59.3312 12.5443 59.251C12.4663 59.1439 12.4663 59.0369 12.5443 58.9298L12.8953 58.3946C12.9733 58.2876 13.1292 58.1805 13.3242 58.1805L21.2009 57.4044C21.3569 57.3777 21.5519 57.4312 21.6689 57.5115L24.6324 59.4651C24.7494 59.5453 24.8274 59.6524 24.7884 59.7594L24.6714 60.9369C24.6714 61.044 24.5934 61.151 24.4374 61.2045C24.2814 61.2045 24.1645 61.2313 24.0475 61.2313ZM13.9871 58.8495L23.5796 60.4017L23.6186 59.8397L21.045 58.1537L13.9871 58.8495Z" fill="#E88330"/>
<path d="M54.3061 58.528L46.4293 57.752L43.4658 59.7055L43.5828 60.8563L54.618 59.0633L54.3061 58.528Z" fill="#FE120D"/>
<path d="M43.5828 61.23C43.4658 61.23 43.3489 61.2032 43.2709 61.1497C43.1539 61.0962 43.0759 60.9892 43.0369 60.8821L42.9199 59.7046C42.9199 59.5976 42.9589 59.4905 43.0759 59.4102L46.0394 57.4567C46.1564 57.3764 46.3124 57.3496 46.5073 57.3496L54.3841 58.1257C54.579 58.1525 54.735 58.2327 54.813 58.3398L55.164 58.875C55.2419 58.9821 55.2029 59.0891 55.164 59.1961C55.086 59.3032 54.969 59.3567 54.813 59.3835L43.7778 61.1765C43.6608 61.23 43.6218 61.23 43.5828 61.23ZM44.0507 59.8384L44.0897 60.4004L53.6822 58.8482L46.6243 58.1525L44.0507 59.8384Z" fill="#E88330"/>
<path d="M34.5366 45.9236C34.3026 45.9236 34.0686 45.8969 33.8737 45.8166L20.1089 41.3207C18.8221 41.0263 18.1592 39.8488 18.1592 37.8149V20.5539C18.1592 19.9651 18.8611 19.4834 19.7189 19.4834H49.3932C50.251 19.4834 50.9529 19.9651 50.9529 20.5539V37.8417C50.9529 39.8756 50.29 41.0531 49.0032 41.3474L35.1994 45.8433C34.9655 45.8969 34.7315 45.9236 34.5366 45.9236Z" fill="white"/>
<path d="M34.5369 45.2279C34.4589 45.2279 34.3809 45.2279 34.3029 45.2012L20.4601 40.6785C19.9922 40.5982 19.1733 40.1165 19.1733 37.8418V20.554C19.1733 20.3666 19.4073 20.2061 19.6803 20.2061H49.3545C49.6274 20.2061 49.8614 20.3666 49.8614 20.554V37.8418C49.8614 40.1433 49.0425 40.5982 48.5746 40.6785L34.6928 45.2012C34.6539 45.2279 34.5759 45.2279 34.5369 45.2279Z" fill="white"/>
<path d="M48.4576 40.3303C48.4576 40.3303 49.3935 40.2767 49.3935 37.8147C49.3935 36.1555 49.3935 20.5269 49.3935 20.5269H34.3809H34.7318H19.7192C19.7192 20.5269 19.7192 36.1555 19.7192 37.8147C19.7192 40.2767 20.6551 40.3303 20.6551 40.3303L34.5369 44.8529L48.4576 40.3303Z" fill="#66C6DD"/>
<path d="M34.5368 45.3061L20.4601 40.7031C19.2513 40.5158 19.1343 38.6425 19.1343 37.8129V20.1504H49.9393V37.8396C49.9393 38.6693 49.8223 40.5158 48.6135 40.7299L34.5368 45.3061ZM20.772 39.9538L34.4978 44.4229L48.2626 39.9538C48.3796 39.8735 48.8085 39.4453 48.8085 37.8129V20.9265H20.2651V37.8396C20.2651 39.4721 20.694 39.8735 20.772 39.9538Z" fill="#130972"/>
<path d="M19.7972 27.3501C19.8362 27.3769 19.8362 27.3769 19.8752 27.4036H49.3935C49.3935 23.7641 49.3935 20.5527 49.3935 20.5527H19.7192C19.7192 20.5527 19.7192 23.7106 19.7192 27.3501C19.7192 27.3234 19.7582 27.3234 19.7972 27.3501Z" fill="#FE120D"/>
<path d="M19.1343 28.0985V20.1504H49.9393V27.7774H19.7582L19.1343 28.0985ZM20.2651 27.0013H48.8085V20.9265H20.2651V27.0013Z" fill="#130972"/>
<path d="M20.0317 27.5107C22.5273 29.2502 25.0619 30.9897 27.5575 32.7292C32.1198 35.9138 36.7211 39.0984 41.2833 42.283C41.4003 42.3633 41.5563 42.4703 41.6733 42.5506L48.4192 40.3562C48.4192 40.3562 49.355 40.3027 49.355 37.8406V27.5107H20.0317Z" fill="#66C6DD"/>
<path d="M41.6733 42.9248C41.5173 42.9248 41.3613 42.8981 41.2833 42.8178L36.994 39.8205C33.7186 37.5458 30.4431 35.2711 27.1676 32.9964C24.672 31.2569 22.1374 29.5174 19.6418 27.7779C19.4858 27.6709 19.4468 27.5103 19.5248 27.3497C19.6028 27.2159 19.8368 27.1089 20.0318 27.1089H49.394C49.706 27.1089 49.9789 27.2695 49.9789 27.5103V37.8402C49.9789 38.6698 49.862 40.5163 48.6532 40.7304L41.9462 42.9248C41.8293 42.9248 41.7513 42.9248 41.6733 42.9248ZM21.3965 27.885C23.5802 29.4104 25.7638 30.9358 27.9475 32.4344C31.223 34.7091 34.4984 36.9838 37.7739 39.2585L41.7903 42.0417L48.1852 39.9543C48.2242 39.9543 48.2242 39.9276 48.2632 39.9276C48.3412 39.8741 48.8091 39.4726 48.8091 37.7867V27.8582H21.3965V27.885Z" fill="#130972"/>
<path d="M33.4055 36.9572C28.8432 33.7726 24.242 30.588 19.6797 27.4302V37.8136C19.6797 40.2756 20.6155 40.3292 20.6155 40.3292L34.4973 44.8518L41.4772 42.5771C38.8256 40.7306 36.0961 38.8573 33.4055 36.9572Z" fill="#E88330"/>
<path d="M34.5368 45.2544C34.4588 45.2544 34.3808 45.2544 34.3028 45.2276L20.4601 40.7049C19.9141 40.6247 19.1343 40.0894 19.1343 37.8147V27.4313C19.1343 27.2707 19.2902 27.1369 19.4852 27.0834C19.6802 27.0299 19.9531 27.0566 20.1091 27.1637C24.8664 30.4553 29.5066 33.6935 33.8349 36.6907L41.9456 42.3106C42.0626 42.3909 42.1406 42.5247 42.1016 42.6585C42.0626 42.7923 41.9456 42.8994 41.7896 42.9529L34.8098 45.2276C34.6928 45.2544 34.6148 45.2544 34.5368 45.2544ZM20.811 39.9824C20.85 39.9824 20.85 39.9824 20.889 40.0091L34.5368 44.4515L40.5808 42.4979L33.055 37.2527C29.0387 34.4428 24.7104 31.4455 20.3041 28.3947V37.8415C20.2651 39.5274 20.694 39.9021 20.811 39.9824Z" fill="#130972"/>
<path d="M49.5877 27.1089H19.3286V27.885H49.5877V27.1089Z" fill="#130972"/>
<path d="M24.3595 60.4812C24.0085 58.4741 19.0173 56.8952 19.0173 56.8952C19.0173 56.8952 9.65884 54.2458 7.43619 53.6838C5.21355 53.1218 3.92676 51.3556 3.92676 51.3556L8.13808 47.6357C8.13808 47.6357 8.87896 48.7597 11.0626 49.3485C13.2853 49.9105 22.6438 52.5598 22.6438 52.5598C22.6438 52.5598 27.596 54.1388 27.9859 56.1459C27.9859 56.1459 25.7243 57.3501 25.2173 58.153C24.7104 59.0896 24.3595 60.4812 24.3595 60.4812Z" fill="#FE120D"/>
<path d="M24.3594 60.8535C24.3204 60.8535 24.3204 60.8535 24.3594 60.8535C24.0864 60.8535 23.8524 60.7197 23.8135 60.5324C23.5405 59.0605 20.109 57.6422 18.8223 57.2408C18.4323 57.1337 9.42476 54.5914 7.28011 54.0294C4.90149 53.4139 3.5367 51.5941 3.49771 51.5138C3.41972 51.38 3.41973 51.2195 3.53671 51.1124L7.74803 47.3926C7.86501 47.2855 8.05998 47.232 8.25495 47.2588C8.44992 47.2855 8.60589 47.3658 8.68388 47.4729C8.72287 47.4996 9.38577 48.4898 11.3355 48.9715C13.5191 49.5335 22.8386 52.1561 22.9166 52.1829C22.9166 52.1829 22.9166 52.1829 22.9556 52.1829C23.1506 52.2631 28.1808 53.8688 28.6097 56.0633C28.6487 56.1971 28.5707 56.3309 28.4147 56.4112C27.8298 56.7323 26.1921 57.6689 25.8411 58.2845C25.3342 59.1676 24.9443 60.5324 24.9443 60.5324C24.8273 60.7197 24.5933 60.8535 24.3594 60.8535ZM4.58954 51.38C4.97947 51.835 6.0713 52.9322 7.63105 53.3336C9.8147 53.8956 19.1342 56.5182 19.2122 56.545C19.2122 56.545 19.2122 56.545 19.2512 56.545C19.4072 56.5985 22.7216 57.6689 24.2034 59.2211C24.3594 58.8197 24.5543 58.3915 24.7493 57.9901C25.1782 57.2408 26.777 56.3309 27.4009 55.9562C26.894 54.5379 23.6965 53.2533 22.4487 52.8519C22.0977 52.7448 13.0512 50.2025 10.9065 49.6405C9.46375 49.2659 8.5669 48.6504 8.09897 48.2489L4.58954 51.38Z" fill="#E88330"/>
<path d="M43.8173 60.4812C44.1683 58.4741 49.1595 56.8952 49.1595 56.8952C49.1595 56.8952 58.518 54.2458 60.7406 53.6838C62.9633 53.1218 64.2501 51.3556 64.2501 51.3556L60.0387 47.6357C60.0387 47.6357 59.2978 48.7597 57.1142 49.3485C54.9305 49.9372 45.5331 52.5598 45.5331 52.5598C45.5331 52.5598 40.5809 54.1388 40.1909 56.1459C40.1909 56.1459 42.4526 57.3501 42.9595 58.153C43.4664 59.0896 43.8173 60.4812 43.8173 60.4812Z" fill="#FE120D"/>
<path d="M43.817 60.8566C43.544 60.8566 43.349 60.7228 43.271 60.5622C43.271 60.5354 42.9201 59.1974 42.3742 58.3142C42.0232 57.7255 40.3855 56.7621 39.8006 56.4409C39.6446 56.3607 39.5666 56.2268 39.6056 56.093C39.9956 53.8986 45.0258 52.2662 45.2597 52.2126C45.2597 52.2126 45.2597 52.2126 45.2987 52.2126C45.3767 52.1859 54.6962 49.5633 56.8799 49.0013C58.8296 48.4928 59.4924 47.5026 59.5314 47.5026C59.6094 47.3956 59.7654 47.2886 59.9604 47.2886C60.1553 47.2618 60.3503 47.3153 60.4673 47.4224L64.6786 51.1422C64.7956 51.2492 64.8346 51.4098 64.7176 51.5436C64.6786 51.6239 63.3138 53.4437 60.9352 54.0592C58.7906 54.6212 49.744 57.1635 49.3931 57.2705C48.0673 57.6987 44.6358 59.0903 44.4019 60.5622C44.3239 60.7228 44.0899 60.8566 43.817 60.8566ZM40.7365 55.986C41.3993 56.3607 42.9591 57.2705 43.388 58.0199C43.622 58.3945 43.817 58.8495 43.9339 59.2509C45.4157 57.6987 48.7302 56.6283 48.8862 56.5747C48.8862 56.5747 48.8861 56.5747 48.9251 56.5747C49.0031 56.548 58.3226 53.9254 60.5063 53.3634C62.066 52.962 63.1579 51.8647 63.5478 51.4098L59.9994 48.3055C59.5314 48.7337 58.6736 49.3224 57.1918 49.6971C55.0472 50.2591 46.0006 52.8014 45.6497 52.9084C44.4409 53.2831 41.2434 54.5676 40.7365 55.986Z" fill="#E88330"/>
<path d="M55.2816 60.267C55.1646 59.9191 54.8527 59.4106 54.4628 58.9557C48.8087 60.5614 41.8678 61.5248 34.342 61.5248C26.4263 61.5248 19.1734 60.4811 13.3634 58.7148C12.9344 59.2501 12.5055 59.8656 12.3495 60.2938C11.8816 61.7656 11.0237 62.9164 10.0879 63.7192C16.8728 65.6728 25.2565 66.8235 34.342 66.8235C43.0766 66.8235 51.1483 65.7531 57.8162 63.9333C56.7634 63.0769 55.8275 61.8727 55.2816 60.267Z" fill="#FE120D"/>
<path d="M34.3806 67.1968C25.529 67.1968 17.0673 66.0996 9.89249 64.0657C9.73651 64.0122 9.61953 63.9319 9.58054 63.7981C9.54155 63.691 9.58054 63.5572 9.69752 63.4502C10.7114 62.5671 11.4522 61.4431 11.8812 60.1585C11.9982 59.7839 12.3491 59.2219 12.934 58.4726C13.09 58.2852 13.4019 58.2317 13.6359 58.312C19.6019 60.1318 26.7768 61.0952 34.3806 61.0952C41.5944 61.0952 48.4573 60.2121 54.2674 58.5796C54.5403 58.4993 54.8523 58.5796 54.9692 58.7669C55.4372 59.3557 55.7101 59.8374 55.8271 60.1853C56.373 61.9248 57.4649 63.0488 58.2447 63.6643C58.3617 63.7713 58.4007 63.8784 58.3617 64.0122C58.3227 64.146 58.2057 64.2263 58.0108 64.2798C51.0699 66.1798 42.8812 67.1968 34.3806 67.1968ZM11.0233 63.5305C17.8862 65.4305 25.9579 66.4207 34.3806 66.4207C42.4523 66.4207 50.251 65.5108 56.9189 63.7446C55.9051 62.8079 55.1642 61.6304 54.7353 60.3459C54.6963 60.1853 54.5403 59.9177 54.2284 59.436C48.3793 61.0417 41.5554 61.898 34.3806 61.898C26.8548 61.898 19.6799 60.9614 13.6749 59.1951C13.2849 59.7036 13.051 60.105 12.973 60.3459C12.5831 61.5501 11.8812 62.6206 11.0233 63.5305Z" fill="#E88330"/>
<path d="M25.7631 62.5416C25.8411 62.5416 25.8801 62.5684 25.9191 62.5952C25.9581 62.6219 25.9581 62.6754 25.9581 62.729C25.9581 62.7557 25.9581 62.7825 25.9191 62.836C25.9191 62.8628 25.8801 62.8895 25.8801 62.9163L25.4902 62.8895L25.1782 64.4149C25.1392 64.4149 25.1002 64.4149 25.0223 64.4149C24.9443 64.4149 24.8663 64.4149 24.8273 64.4149C24.7103 64.4149 24.5933 64.3882 24.5543 64.3346C24.4763 64.3079 24.4763 64.2276 24.4763 64.1473L24.5543 63.8262C24.4763 63.8529 24.3984 63.8529 24.3204 63.8529C24.2424 63.8529 24.1644 63.8529 24.0864 63.8529C23.7745 63.8262 23.5795 63.7459 23.4235 63.6121C23.2675 63.4783 23.2285 63.3177 23.2675 63.0769L23.3455 62.6754L23.1506 62.6487C23.0726 62.6487 23.0336 62.6219 22.9946 62.5952C22.9556 62.5684 22.9556 62.5149 22.9946 62.4614C22.9946 62.4346 22.9946 62.4078 23.0336 62.3811C23.0336 62.3543 23.0726 62.3275 23.0726 62.3008L25.7631 62.5416ZM24.2814 63.4783C24.3204 63.4783 24.3984 63.4783 24.4373 63.4783C24.4763 63.4783 24.5543 63.4515 24.5933 63.4515L24.7103 62.836L24.0084 62.7825L23.9304 63.1571C23.8914 63.2642 23.9304 63.3445 23.9694 63.398C24.0474 63.4248 24.1254 63.4515 24.2814 63.4783Z" fill="white"/>
<path d="M24.7495 64.3085C24.8665 64.3085 24.9835 64.3353 25.1005 64.362C25.2175 64.3888 25.2955 64.4423 25.3734 64.4958C25.4514 64.5493 25.4904 64.6029 25.5294 64.6832C25.5684 64.7634 25.5684 64.817 25.5684 64.8972C25.5684 64.9775 25.5294 65.0578 25.4514 65.1113C25.3734 65.1649 25.3345 65.2184 25.2175 65.2719C25.1395 65.3254 25.0225 65.3522 24.8665 65.3522C24.7495 65.379 24.5936 65.379 24.4376 65.3522C24.2816 65.3522 24.1646 65.3254 24.0477 65.2987C23.9307 65.2719 23.8137 65.2184 23.6967 65.1916C23.5797 65.1381 23.5017 65.0846 23.4628 65.0311C23.4238 64.9775 23.3848 64.8972 23.3848 64.8437C23.3848 64.7902 23.4238 64.7367 23.5017 64.6832C23.5797 64.6564 23.6577 64.6296 23.7357 64.6029C23.8137 64.6832 23.9307 64.7634 24.0477 64.8437C24.1646 64.924 24.3206 64.9508 24.4766 64.9775C24.5546 64.9775 24.6326 64.9775 24.7106 64.9508C24.7495 64.924 24.7885 64.8972 24.7885 64.8437C24.7885 64.817 24.7885 64.7902 24.7495 64.7367C24.7106 64.7099 24.6716 64.6832 24.6326 64.6832C24.5546 64.6832 24.4766 64.7099 24.3986 64.7634C24.2816 64.7367 24.2036 64.7099 24.1257 64.6564C24.0477 64.6029 24.0477 64.5493 24.0477 64.4958C24.0477 64.4423 24.1256 64.3888 24.2036 64.3353C24.2816 64.2817 24.3986 64.2817 24.5936 64.2817C24.6326 64.2817 24.6326 64.2817 24.6716 64.2817C24.6716 64.3085 24.7106 64.3085 24.7495 64.3085Z" fill="white"/>
<path d="M29.1946 62.7814C29.2726 62.7814 29.3116 62.8081 29.3505 62.8349C29.3895 62.8617 29.3895 62.9152 29.3895 62.9687C29.3895 62.9955 29.3895 63.0222 29.3505 63.0758C29.3505 63.1025 29.3115 63.1293 29.3115 63.156L28.9216 63.1293L28.7266 64.6547C28.6876 64.6547 28.6487 64.6547 28.5707 64.6547C28.4927 64.6547 28.4147 64.6547 28.3757 64.6547C28.2587 64.6547 28.1417 64.6279 28.1027 64.6012C28.0248 64.5744 28.0248 64.4941 28.0248 64.4138L28.2197 63.0758L27.7908 63.049C27.7908 63.1293 27.7908 63.2096 27.7908 63.3166C27.7908 63.3969 27.7908 63.5039 27.7518 63.5842C27.7518 63.6913 27.7128 63.7715 27.6348 63.8518C27.5958 63.9321 27.5178 63.9856 27.4009 64.0392C27.3229 64.0927 27.2059 64.1194 27.0889 64.1194C26.9719 64.1462 26.816 64.1462 26.699 64.1194C26.543 64.1194 26.426 64.0927 26.309 64.0659C26.1921 64.0392 26.0751 63.9856 25.9971 63.9321C25.9191 63.8786 25.8411 63.7983 25.8021 63.718C25.7631 63.6377 25.7631 63.5575 25.7631 63.4504C25.7631 63.3701 25.8021 63.2631 25.8021 63.1828C25.8021 63.1025 25.8411 63.0222 25.8801 62.9152L25.6461 62.8884C25.5682 62.8884 25.5292 62.8617 25.4902 62.8349C25.4512 62.8081 25.4512 62.7546 25.4512 62.7011C25.4512 62.6743 25.4512 62.6476 25.4902 62.6208C25.4902 62.594 25.5292 62.5673 25.5292 62.5405L29.1946 62.7814ZM26.699 63.7448C26.8549 63.7448 26.9329 63.6913 26.9719 63.5575L27.0499 62.9955L26.582 62.9687L26.504 63.5307C26.465 63.6645 26.543 63.718 26.699 63.7448Z" fill="white"/>
<path d="M28.1419 62.7824C28.1029 62.7289 28.0249 62.6486 27.9859 62.5951C27.9079 62.5416 27.83 62.4881 27.752 62.4345C27.674 62.381 27.557 62.3543 27.479 62.3007C27.401 62.274 27.284 62.2472 27.2061 62.2205V62.1937V62.1669C27.2061 62.1134 27.2061 62.0866 27.2451 62.0599C27.284 62.0331 27.284 61.9796 27.323 61.9528C27.362 61.9261 27.401 61.8993 27.44 61.8993C27.479 61.8726 27.557 61.8726 27.635 61.8726C27.752 61.8726 27.8689 61.8993 27.9859 61.9796C28.1029 62.0331 28.2199 62.1134 28.2979 62.1937C28.3759 62.274 28.4928 62.381 28.5708 62.4881C28.6488 62.5951 28.6878 62.7022 28.7268 62.8092L28.1419 62.7824Z" fill="white"/>
<path d="M30.4817 64.9507C30.4427 65.0042 30.3647 65.0309 30.3257 65.0309C30.2477 65.0577 30.2087 65.0577 30.0917 65.0577C29.9747 65.0577 29.8578 65.0309 29.7798 64.9774C29.8578 64.8436 29.9358 64.7366 29.9748 64.6028C30.0137 64.469 30.0917 64.3619 30.1307 64.2549C30.1697 64.2281 30.2477 64.2281 30.3257 64.2013C30.4037 64.2013 30.4817 64.1746 30.5597 64.2013C30.6376 64.2013 30.7156 64.2281 30.7936 64.2549C30.8716 64.2816 30.9106 64.3352 30.8716 64.4154C30.8716 64.469 30.8716 64.4957 30.8326 64.5492C30.7936 64.6028 30.7936 64.6563 30.7546 64.7098C30.7156 64.7633 30.6766 64.8169 30.6376 64.8704C30.5597 64.8704 30.5207 64.9239 30.4817 64.9507Z" fill="white"/>
<path d="M32.2356 64.3876C32.0406 64.3876 31.9236 64.3608 31.8456 64.2806C31.7676 64.227 31.7287 64.1468 31.7287 64.0665C31.7287 63.9862 31.7676 63.9327 31.8456 63.8524H31.9236C32.0016 63.8524 32.0406 63.8524 32.0796 63.7989C32.1186 63.7721 32.1186 63.7186 32.1576 63.6651V63.1833H31.7287C31.6507 63.1833 31.6117 63.1566 31.5727 63.1298C31.5337 63.1031 31.5337 63.0495 31.5337 62.996C31.5337 62.9693 31.5337 62.9425 31.5337 62.9157C31.5337 62.889 31.5727 62.8622 31.5727 62.8354L34.4972 62.8622C34.5752 62.8622 34.6142 62.889 34.6532 62.9157C34.6922 62.9425 34.6922 62.996 34.6922 63.0495C34.6922 63.0763 34.6922 63.1031 34.6922 63.1566C34.6922 63.1833 34.6532 63.2101 34.6532 63.2369H34.2633L34.2243 64.789C34.1853 64.789 34.1463 64.789 34.0683 64.8158C33.9903 64.8158 33.9123 64.8158 33.8733 64.8158C33.7563 64.8158 33.6394 64.789 33.5614 64.7623C33.4834 64.7355 33.4834 64.682 33.4834 64.5749V64.12H32.8205C32.7425 64.3073 32.5475 64.3876 32.2356 64.3876ZM32.8595 63.7453H33.4834V63.2369H32.8595V63.7453Z" fill="white"/>
<path d="M35.3946 64.4938C35.3946 64.5741 35.4336 64.6543 35.5505 64.6811C35.6675 64.7346 35.8235 64.7346 36.0185 64.7346C36.0575 64.7346 36.0964 64.7346 36.1744 64.7346C36.2524 64.7346 36.2914 64.7346 36.3304 64.7346C36.3694 64.7614 36.3694 64.7881 36.3694 64.8149C36.3694 64.8417 36.3694 64.8684 36.3694 64.8952C36.3694 64.9755 36.3304 65.029 36.2524 65.0825C36.1744 65.136 36.0575 65.136 35.9015 65.136C35.7065 65.136 35.5505 65.136 35.3946 65.1093C35.2386 65.0825 35.1216 65.029 35.0046 64.9755C34.8876 64.922 34.8097 64.8417 34.7317 64.7614C34.6537 64.6811 34.6537 64.6008 34.6537 64.4938C34.6537 64.4135 34.6537 64.3332 34.7317 64.2529C34.7707 64.1994 34.8486 64.1191 34.9266 64.0923C34.8486 64.0656 34.8097 64.0121 34.7707 63.9585C34.7317 63.905 34.6927 63.8515 34.6927 63.7712C34.6927 63.6374 34.7317 63.5571 34.8487 63.4768C34.9656 63.3966 35.1216 63.3698 35.3556 63.3698H35.8625V63.2092L34.4977 63.236C34.4197 63.236 34.3807 63.2092 34.3417 63.1825C34.3027 63.1557 34.3027 63.1022 34.3027 63.0487C34.3027 63.0219 34.3027 62.9951 34.3027 62.9684C34.3027 62.9416 34.3027 62.9148 34.3417 62.8881L36.8763 62.8613C36.9543 62.8613 36.9933 62.8881 37.0323 62.9149C37.0713 62.9416 37.0713 62.9951 37.0713 63.0487C37.0713 63.0754 37.0713 63.1022 37.0713 63.1557C37.0713 63.1825 37.0323 63.2092 37.0323 63.236H36.6034V63.5839C36.6034 63.6909 36.5254 63.7445 36.3694 63.7445H35.6675C35.5895 63.7445 35.5115 63.7445 35.4725 63.7712C35.4336 63.798 35.4336 63.8247 35.4336 63.8515C35.4336 63.8783 35.4725 63.905 35.5115 63.9318C35.5505 63.9318 35.5895 63.9318 35.6285 63.9318C35.6675 63.9318 35.7065 63.9318 35.7455 63.9318C36.0964 63.9318 36.3304 63.9585 36.5254 64.0388C36.6814 64.1191 36.7983 64.2262 36.7983 64.3332C36.7983 64.3867 36.7983 64.4135 36.7593 64.4402C36.7203 64.467 36.7203 64.4938 36.6814 64.5205C36.6424 64.5473 36.6034 64.5473 36.5644 64.5741C36.5254 64.5741 36.4474 64.6008 36.4084 64.6008C36.2914 64.6008 36.2134 64.5741 36.0964 64.5473V64.5205V64.4938C36.0964 64.4402 36.0575 64.3867 36.0185 64.3332C35.9795 64.3064 35.9015 64.2797 35.7455 64.2797C35.6285 64.2797 35.5505 64.3064 35.5115 64.3332C35.3946 64.3867 35.3946 64.4402 35.3946 64.4938Z" fill="white"/>
<path d="M38.0457 62.8354C38.1237 62.8354 38.1627 62.8354 38.2017 62.889C38.2407 62.9157 38.2407 62.9693 38.2407 63.0228C38.2407 63.0495 38.2407 63.0763 38.2407 63.1298C38.2407 63.1566 38.2407 63.1833 38.2017 63.2101H37.8118L37.8897 64.7623C37.8508 64.7623 37.8118 64.789 37.7338 64.789C37.6558 64.789 37.5778 64.789 37.5388 64.8158C37.4218 64.8158 37.3048 64.8158 37.2269 64.789C37.1489 64.7623 37.1099 64.7087 37.1099 64.6017L37.0319 63.2636H36.7589C36.6809 63.2636 36.642 63.2636 36.603 63.2101C36.564 63.1833 36.564 63.1298 36.564 63.0763C36.564 63.0495 36.564 63.0228 36.564 62.996C36.564 62.9693 36.564 62.9425 36.603 62.9157L38.0457 62.8354Z" fill="white"/>
<path d="M39.9179 62.7544C39.9959 62.7544 40.0349 62.7544 40.0739 62.7812C40.1128 62.8079 40.1128 62.8614 40.1518 62.915C40.1518 62.9417 40.1518 62.9685 40.1518 63.022C40.1518 63.0488 40.1518 63.1023 40.1129 63.1023L39.6839 63.1291C39.7229 63.1826 39.7619 63.2361 39.8009 63.2896C39.8399 63.3431 39.8399 63.3967 39.8399 63.4502C39.8399 63.584 39.8009 63.691 39.6839 63.7981C39.5669 63.9051 39.411 63.9854 39.177 64.0122C39.294 64.0925 39.411 64.1727 39.5669 64.2263C39.7229 64.2798 39.8399 64.3333 39.9569 64.3333C39.9569 64.4404 39.9179 64.5206 39.8789 64.5742C39.8009 64.6545 39.6839 64.6812 39.5279 64.6812C39.333 64.6812 39.177 64.6545 38.982 64.5474C38.8261 64.4671 38.6701 64.2798 38.5531 64.0657C38.4361 64.0657 38.3581 64.0657 38.2801 64.0122C38.2411 63.9854 38.2022 63.9319 38.2022 63.8516C38.2022 63.7981 38.2022 63.7713 38.2412 63.7446C38.2412 63.7178 38.2801 63.6643 38.3191 63.6375C38.3581 63.6375 38.3971 63.6375 38.4361 63.6375C38.4751 63.6375 38.5531 63.6375 38.5921 63.6375C38.7481 63.6375 38.904 63.6108 38.982 63.5572C39.06 63.5037 39.099 63.4234 39.099 63.3431C39.099 63.3164 39.099 63.2629 39.06 63.2361C39.06 63.2093 39.021 63.1558 38.982 63.1291L38.1242 63.1558C38.0462 63.1558 38.0072 63.1558 37.9682 63.1023C37.9292 63.0755 37.9292 63.022 37.9292 62.9685C37.9292 62.9417 37.9292 62.915 37.9292 62.8882C37.9292 62.8614 37.9292 62.8347 37.9682 62.8079L39.9179 62.7544Z" fill="white"/>
<path d="M41.1264 62.6768C41.2043 62.6768 41.2433 62.6768 41.2823 62.7035C41.3213 62.7303 41.3213 62.7838 41.3603 62.8373C41.3603 62.8641 41.3603 62.8908 41.3603 62.9444C41.3603 62.9711 41.3603 63.0247 41.3213 63.0247L40.9314 63.0514L41.1264 64.6036C41.0874 64.6036 41.0484 64.6303 40.9704 64.6303C40.8924 64.6303 40.8534 64.6571 40.7754 64.6571C40.6584 64.6571 40.5415 64.6571 40.4635 64.6303C40.3855 64.6036 40.3465 64.5501 40.3465 64.4698L40.1905 63.1317L39.9176 63.1585C39.8396 63.1585 39.8006 63.1585 39.7616 63.1317C39.7226 63.1049 39.7226 63.0514 39.6836 62.9979C39.6836 62.9711 39.6836 62.9444 39.6836 62.9176C39.6836 62.8908 39.6836 62.8641 39.7226 62.8373L41.1264 62.6768Z" fill="white"/>
<path d="M44.6754 63.8261C44.7534 63.8261 44.8314 63.8528 44.8704 63.9063C44.9094 63.9599 44.9483 63.9866 44.9483 64.0402C44.9483 64.0937 44.9483 64.1204 44.9094 64.174C44.8704 64.2275 44.8314 64.2542 44.7534 64.281C44.6754 64.3078 44.5974 64.3345 44.4804 64.3613C44.3634 64.3881 44.2465 64.4148 44.1295 64.4148C43.7785 64.4416 43.4666 64.4148 43.2326 64.3345C42.9987 64.2542 42.8427 64.1472 42.7647 63.9599C42.6477 63.9866 42.5697 64.0134 42.4527 64.0134C42.1408 64.0402 41.9068 63.9866 41.7119 63.9063C41.5169 63.7993 41.3999 63.6387 41.3609 63.4246L41.2829 63.0232L41.088 63.05C41.01 63.05 40.971 63.05 40.932 63.0232C40.893 62.9965 40.893 62.9429 40.854 62.8894C40.854 62.8627 40.854 62.8359 40.854 62.8091C40.854 62.7824 40.854 62.7556 40.893 62.7289L44.7534 62.4077C44.8314 62.4077 44.8704 62.4077 44.9094 62.4345C44.9483 62.4612 44.9873 62.5148 44.9873 62.5683C44.9873 62.595 44.9873 62.6218 44.9873 62.6753C44.9873 62.7021 44.9873 62.7556 44.9483 62.7556L44.5194 62.7824L44.5974 63.2373C44.5974 63.3444 44.5584 63.3979 44.3634 63.3979L43.8565 63.4246C43.7005 63.4246 43.5836 63.4782 43.5056 63.5317C43.4276 63.5852 43.3886 63.6655 43.4276 63.7458C43.4276 63.8528 43.5056 63.9063 43.6226 63.9599C43.7395 64.0134 43.8565 64.0134 44.0125 64.0134C44.1295 64.0134 44.2465 63.9866 44.3634 63.9331C44.5194 63.9063 44.5974 63.8796 44.6754 63.8261ZM42.5697 63.6387C42.6477 63.6387 42.6867 63.612 42.7647 63.612C42.7647 63.5852 42.7647 63.5852 42.8037 63.5584C42.8037 63.5317 42.8037 63.5317 42.8427 63.5049L42.1408 63.2106L42.1798 63.3444C42.1798 63.4514 42.2188 63.5049 42.2968 63.5584C42.2968 63.6387 42.4138 63.6387 42.5697 63.6387ZM42.1408 62.9697L42.9597 63.3176C43.0377 63.2641 43.1546 63.2106 43.2716 63.157C43.3886 63.1035 43.5446 63.0767 43.7005 63.0767H43.8565L43.8175 62.8359L42.1408 62.9697Z" fill="white"/>
<path d="M44.831 64.577C44.87 64.6038 44.87 64.6038 44.909 64.6305C44.909 64.6573 44.948 64.6573 44.948 64.684C44.948 64.7108 44.948 64.7643 44.948 64.7911C44.948 64.8178 44.909 64.8446 44.87 64.8714C44.831 64.8981 44.792 64.8981 44.753 64.9249C44.714 64.9249 44.6751 64.9517 44.6361 64.9517C44.5971 64.9517 44.5581 64.9517 44.5191 64.9517L44.0902 64.684C44.0512 64.7376 44.0122 64.7643 43.9732 64.8178C43.9342 64.8714 43.8952 64.8981 43.8562 64.9249C43.8172 64.9517 43.7782 64.9784 43.7392 65.0052C43.7002 65.0319 43.6612 65.0319 43.5832 65.0587C43.5052 65.0587 43.3883 65.0587 43.3103 65.0052C43.2323 64.9517 43.1543 64.8981 43.1543 64.8178C43.1933 64.7911 43.2713 64.7376 43.3103 64.7108C43.3493 64.6573 43.4273 64.6305 43.4662 64.577C43.5442 64.5235 43.5832 64.4967 43.6222 64.4432C43.6612 64.3897 43.7392 64.3629 43.7782 64.3094C43.8172 64.2826 43.8172 64.2826 43.8562 64.2826C43.8952 64.2826 43.9342 64.2559 43.9342 64.2559C44.0122 64.2559 44.0901 64.2559 44.1291 64.2826L44.831 64.577Z" fill="white"/>
<path d="M17.3407 52.6934C17.4187 52.7201 17.4577 52.7469 17.4577 52.7737C17.4577 52.8004 17.4577 52.8539 17.4187 52.9075C17.4187 52.9342 17.3797 52.961 17.3407 52.9877C17.3017 53.0145 17.3017 53.0413 17.2627 53.068L16.8728 52.961L16.0149 54.4061C15.9759 54.4061 15.937 54.4061 15.859 54.3793C15.781 54.3793 15.742 54.3526 15.664 54.3258C15.547 54.2991 15.469 54.2455 15.43 54.2188C15.391 54.1652 15.391 54.1117 15.43 54.0314L15.82 53.3892L15.3131 53.2554C15.352 53.3089 15.391 53.3624 15.391 53.4427C15.391 53.4962 15.391 53.5765 15.352 53.6568C15.2741 53.7906 15.1571 53.8709 15.0011 53.8976C14.8451 53.9512 14.6112 53.9244 14.3772 53.8976C14.4162 53.9779 14.4942 54.0314 14.5332 54.085C14.6112 54.1385 14.6502 54.192 14.6892 54.2455C14.6502 54.3258 14.5332 54.3793 14.4552 54.4061C14.3382 54.4329 14.2602 54.4329 14.1043 54.4061C13.9093 54.3526 13.7923 54.2188 13.7533 54.0047L13.7143 53.7103C13.5973 53.6568 13.4803 53.5765 13.4414 53.523C13.4024 53.4427 13.4024 53.3892 13.4414 53.3089C13.4803 53.2554 13.5193 53.2018 13.6363 53.1751C13.7143 53.1483 13.7923 53.1483 13.8703 53.1483C13.9093 53.2018 13.9483 53.2554 13.9873 53.3356C14.0653 53.3892 14.1432 53.4427 14.2212 53.4695C14.3382 53.4962 14.4162 53.4962 14.4942 53.4962C14.5722 53.4695 14.6112 53.4427 14.6502 53.3892C14.6892 53.3356 14.6892 53.3089 14.6892 53.2554C14.6892 53.2018 14.6502 53.1751 14.6112 53.1483L14.0653 52.9877C13.9873 52.961 13.9483 52.9342 13.9483 52.9075C13.9483 52.8807 13.9483 52.8272 13.9873 52.7469C13.9873 52.7201 14.0263 52.6934 14.0653 52.6666C14.1043 52.6398 14.1042 52.6131 14.1432 52.5863L16.0149 53.1216L16.1709 52.8539L14.0263 52.2384C13.9483 52.2117 13.9093 52.1849 13.9093 52.1581C13.9093 52.1314 13.9093 52.0779 13.9483 52.0243C13.9483 51.9976 13.9873 51.9708 14.0263 51.9441C14.0653 51.9173 14.0653 51.8905 14.1043 51.8638L17.3407 52.6934Z" fill="white"/>
<path d="M18.5493 53.0426C18.6273 53.0694 18.6663 53.0961 18.6663 53.1229C18.6663 53.1497 18.6663 53.2032 18.6273 53.2567C18.6273 53.2835 18.5883 53.3102 18.5493 53.337C18.5103 53.3638 18.5103 53.3905 18.4713 53.4173L18.0814 53.3102L17.2235 54.7286C17.1845 54.7286 17.1455 54.7286 17.0676 54.7018C16.9896 54.7018 16.9506 54.6751 16.8726 54.6483C16.7556 54.6216 16.6776 54.568 16.6386 54.5413C16.5996 54.4877 16.5996 54.4342 16.6386 54.3539L17.3795 53.0962L17.1455 53.0426C17.0675 53.0159 17.0286 52.9891 17.0286 52.9623C17.0286 52.9356 17.0286 52.8821 17.0676 52.8285C17.0676 52.8018 17.1065 52.775 17.1455 52.7483C17.1845 52.7215 17.1845 52.6947 17.2235 52.668L18.5493 53.0426Z" fill="white"/>
<path d="M19.7191 54.1654L19.9141 53.8175L18.3934 53.3893C18.3154 53.3625 18.2764 53.3358 18.2764 53.309C18.2764 53.2823 18.2764 53.2287 18.3154 53.1752C18.3154 53.1485 18.3544 53.1217 18.3934 53.0949C18.4323 53.0682 18.4323 53.0414 18.4713 53.0146L21.0449 53.7372C21.1229 53.764 21.1619 53.7907 21.1619 53.8175C21.1619 53.8443 21.1619 53.8978 21.1229 53.9513C21.1229 53.9781 21.0839 54.0048 21.0449 54.0316C21.0059 54.0583 21.0059 54.0851 20.9669 54.1119L20.577 54.0048L19.7191 55.4232C19.6801 55.4232 19.6412 55.4232 19.5632 55.3964C19.4852 55.3964 19.4462 55.3696 19.3682 55.3429C19.2512 55.3161 19.1732 55.2626 19.1342 55.2358C19.0952 55.1823 19.0952 55.1288 19.1342 55.0485L19.4462 54.5133L18.9003 54.3527C18.8223 54.326 18.7443 54.3527 18.7053 54.433L18.6273 54.5668C18.5883 54.5668 18.5103 54.5668 18.4713 54.5668C18.4323 54.5668 18.3934 54.5668 18.3154 54.54C18.2764 54.5133 18.1984 54.5133 18.1594 54.4598C18.1204 54.433 18.0814 54.4062 18.0424 54.3527C18.0034 54.326 18.0034 54.2724 18.0034 54.2189C18.0034 54.1654 18.0034 54.1119 18.0424 54.0583C18.1204 53.9513 18.1984 53.8978 18.3154 53.8443C18.4323 53.8175 18.5883 53.8175 18.7443 53.871L19.7191 54.1654Z" fill="white"/>
<path d="M46.4691 54.2984C46.4301 54.2717 46.3911 54.2449 46.3521 54.2181C46.3131 54.1914 46.2741 54.1379 46.2351 54.1111C46.1572 54.0308 46.1572 53.9505 46.1182 53.8702C46.1182 53.79 46.1572 53.7097 46.1962 53.6294C46.2351 53.5491 46.3521 53.4688 46.4691 53.3885C46.5861 53.3083 46.7421 53.228 46.937 53.1744C47.171 53.0942 47.444 53.0139 47.6779 52.9871C47.9119 52.9604 48.1458 52.9336 48.3408 52.9336C48.5358 52.9336 48.6917 52.9336 48.8087 52.9604C48.9257 52.9871 49.0037 53.0139 49.0427 53.0406C49.0817 53.0674 49.0817 53.0942 49.0817 53.1477C49.0817 53.1744 49.0817 53.2012 49.0427 53.228C49.0037 53.2547 49.0037 53.2815 48.9647 53.3083C48.9257 53.335 48.8867 53.3618 48.8477 53.3618C48.7307 53.335 48.6138 53.335 48.4968 53.3083C48.3798 53.3083 48.2238 53.3083 48.1068 53.335C47.9899 53.3618 47.8339 53.3618 47.7169 53.3885C47.5999 53.4153 47.444 53.4421 47.327 53.4956C47.132 53.5491 47.015 53.6294 46.976 53.7097C46.937 53.79 46.937 53.8702 46.976 53.9505C47.015 53.9773 47.015 54.004 47.054 54.0308C47.093 54.0576 47.132 54.0843 47.171 54.0843L47.366 54.004C47.4439 53.9773 47.4829 53.9773 47.5219 54.004C47.5609 54.0308 47.5999 54.0576 47.6389 54.1111C47.6389 54.1379 47.6779 54.1646 47.6779 54.1914C47.6779 54.2181 47.7169 54.2449 47.7169 54.2717L47.366 54.4055L48.4188 55.7703C48.4188 55.7703 48.3798 55.7971 48.3018 55.8238C48.2238 55.8506 48.1848 55.8773 48.1458 55.9041C48.0289 55.9576 47.9509 55.9576 47.8729 55.9576C47.7949 55.9576 47.7169 55.9041 47.6779 55.8238L46.7031 54.6196L46.4691 54.6998C46.3911 54.7266 46.3521 54.7266 46.3131 54.6998C46.2741 54.6731 46.2351 54.6463 46.1962 54.5928C46.1962 54.566 46.1572 54.5393 46.1572 54.5125C46.1572 54.4858 46.1182 54.459 46.1182 54.4322L46.4691 54.2984Z" fill="white"/>
<path d="M50.0169 53.2266C50.0949 53.1999 50.1339 53.1999 50.1728 53.2266C50.2118 53.2534 50.2508 53.2801 50.2898 53.3337C50.2898 53.3604 50.3288 53.3872 50.3288 53.4139C50.3288 53.4407 50.3288 53.4942 50.3288 53.4942L49.9389 53.6013L50.7968 55.0196C50.7968 55.0196 50.7188 55.0464 50.6798 55.0731C50.6408 55.0999 50.5628 55.1267 50.4848 55.1267C50.3678 55.1534 50.2508 55.1802 50.1728 55.1534C50.0949 55.1534 50.0169 55.0999 49.9779 55.0196L49.8999 54.9126C49.8609 54.9661 49.7829 54.9929 49.7439 55.0464C49.6659 55.0731 49.5879 55.1267 49.471 55.1534C49.354 55.1802 49.198 55.207 49.081 55.207C48.964 55.207 48.8471 55.207 48.7301 55.1802C48.6131 55.1534 48.5351 55.0999 48.4181 55.0464C48.3401 54.9929 48.2622 54.9126 48.2232 54.8323C48.1842 54.752 48.1452 54.6717 48.1452 54.5914C48.1452 54.5112 48.1842 54.4309 48.2232 54.3774C48.2622 54.2971 48.3401 54.2435 48.4181 54.19C48.4961 54.1365 48.6131 54.083 48.7301 54.0562C48.8861 54.0295 49.003 54.0027 49.081 54.0295C49.198 54.0562 49.237 54.083 49.276 54.1633C49.276 54.19 49.315 54.2168 49.315 54.2435C49.315 54.2703 49.315 54.2971 49.315 54.3238C49.276 54.3238 49.276 54.3238 49.237 54.3238C49.198 54.3238 49.159 54.3238 49.12 54.3506C49.003 54.3774 48.9251 54.4309 48.8861 54.4844C48.8471 54.5379 48.8471 54.5914 48.8861 54.645C48.9251 54.6985 48.964 54.752 49.081 54.752C49.159 54.7788 49.237 54.752 49.354 54.7252C49.432 54.6985 49.51 54.6717 49.549 54.6182C49.5879 54.5647 49.6269 54.5379 49.6659 54.4844L49.237 53.7351L47.7162 54.1633C47.6383 54.19 47.5993 54.19 47.5603 54.1633C47.5213 54.1365 47.4823 54.1097 47.4433 54.0562C47.4433 54.0295 47.4043 54.0027 47.4043 53.9759C47.4043 53.9492 47.4043 53.9224 47.4043 53.8956L50.0169 53.2266Z" fill="white"/>
<path d="M53.1755 52.3448C53.2535 52.318 53.2925 52.318 53.3315 52.3448C53.3705 52.3715 53.4095 52.3983 53.4485 52.4518C53.4485 52.4786 53.4875 52.5053 53.4875 52.5589C53.4875 52.5856 53.4875 52.6392 53.4875 52.6392L53.0975 52.7462L53.9554 54.1646C53.9554 54.1646 53.8774 54.1913 53.8384 54.2181C53.7604 54.2448 53.7214 54.2716 53.6434 54.2716C53.5265 54.2984 53.4095 54.3251 53.3315 54.2984C53.2535 54.2984 53.1755 54.2448 53.1365 54.1646L52.7466 53.5223L52.2397 53.6561C52.3177 53.6828 52.3956 53.7096 52.4736 53.7364C52.5516 53.7899 52.5906 53.8434 52.6296 53.9237C52.7076 54.0575 52.7076 54.1645 52.6296 54.2716C52.5516 54.3786 52.3956 54.4857 52.1617 54.566C52.2787 54.5927 52.3566 54.6195 52.4736 54.6195C52.5906 54.6463 52.6686 54.6463 52.7466 54.6463C52.7856 54.7265 52.7856 54.8068 52.7466 54.8871C52.7076 54.9674 52.6296 55.0209 52.5126 55.0477C52.3177 55.1012 52.0837 55.0744 51.8497 54.9139L51.5378 54.7265C51.3818 54.7533 51.2648 54.7533 51.1478 54.7265C51.0309 54.6998 50.9529 54.6463 50.9139 54.566C50.8749 54.5124 50.8749 54.4322 50.9139 54.3786C50.9529 54.3251 50.9919 54.2716 51.0699 54.2448C51.1478 54.2716 51.2258 54.2984 51.3428 54.2984C51.4598 54.2984 51.5378 54.2984 51.6548 54.2716C51.7717 54.2448 51.8497 54.1913 51.8887 54.1378C51.9277 54.0843 51.9277 54.0307 51.8887 53.9772C51.8497 53.9237 51.8107 53.8969 51.7717 53.8702C51.7327 53.8434 51.6548 53.8167 51.6158 53.8167L51.0699 53.9772C50.9919 54.004 50.9139 54.004 50.8749 53.9772C50.8359 53.9505 50.7969 53.9237 50.7579 53.8434C50.7579 53.8167 50.7189 53.7899 50.7189 53.7364C50.7189 53.7096 50.7189 53.6561 50.7189 53.6561L52.5906 53.1209L52.4346 52.8532L50.29 53.4688C50.212 53.4955 50.173 53.4955 50.134 53.4688C50.095 53.442 50.056 53.4152 50.017 53.3617C50.017 53.3349 49.978 53.3082 49.978 53.2814C49.978 53.2547 49.978 53.2279 49.978 53.2011L53.1755 52.3448Z" fill="white"/>
<path d="M54.4234 51.9981C54.5014 51.9713 54.5404 51.9713 54.5794 51.9981C54.6184 52.0249 54.6574 52.0516 54.6964 52.1051C54.6964 52.1319 54.7354 52.1587 54.7354 52.2122C54.7354 52.239 54.7354 52.2925 54.7354 52.2925L54.3455 52.3995L55.2033 53.8446C55.2033 53.8446 55.1253 53.8714 55.0863 53.8982C55.0084 53.9249 54.9694 53.9517 54.8914 53.9517C54.7744 53.9784 54.6574 54.0052 54.5794 53.9784C54.5014 53.9784 54.4234 53.9249 54.3845 53.8446L53.6436 52.5868L53.4096 52.6404C53.3316 52.6671 53.2926 52.6671 53.2536 52.6404C53.2146 52.6136 53.1756 52.5868 53.1367 52.5333C53.1367 52.5066 53.0977 52.4798 53.0977 52.453C53.0977 52.4263 53.0977 52.3995 53.0977 52.3728L54.4234 51.9981Z" fill="white"/>
<path d="M56.3734 52.2366L56.1784 51.8887L54.6576 52.3169C54.5797 52.3436 54.5407 52.3436 54.5017 52.3169C54.4627 52.2901 54.4237 52.2634 54.3847 52.2098C54.3847 52.1831 54.3457 52.1563 54.3457 52.1296C54.3457 52.1028 54.3457 52.076 54.3457 52.0493L56.9193 51.3267C56.9973 51.3 57.0363 51.3 57.0753 51.3267C57.1143 51.3535 57.1532 51.3802 57.1922 51.4338C57.1922 51.4605 57.2312 51.4873 57.2312 51.5408C57.2312 51.5676 57.2312 51.6211 57.2312 51.6211L56.8413 51.7281L57.6992 53.1732C57.6992 53.1732 57.6212 53.2 57.5822 53.2268C57.5042 53.2535 57.4652 53.2803 57.3872 53.2803C57.2702 53.3071 57.1533 53.3338 57.0753 53.3071C56.9973 53.3071 56.9193 53.2535 56.8803 53.1732L56.5683 52.638L56.0224 52.7986C55.9444 52.8253 55.9054 52.8789 55.9444 52.9592L56.0224 53.093C55.9834 53.1197 55.9444 53.1465 55.9055 53.1732C55.8665 53.2 55.8275 53.2 55.7885 53.2268C55.7495 53.2535 55.6715 53.2535 55.6325 53.2535C55.5545 53.2535 55.5155 53.2535 55.4765 53.2268C55.4375 53.2 55.3595 53.1732 55.3205 53.1465C55.2816 53.1197 55.2426 53.0662 55.2036 53.0127C55.1256 52.9056 55.1256 52.8253 55.2036 52.7183C55.2816 52.6113 55.3595 52.5577 55.5155 52.531L56.3734 52.2366Z" fill="white"/>
<path d="M34.7711 22.0513L35.473 23.5767H37.7346L35.9019 24.4866L36.6038 25.9852L34.7711 25.0753L32.8994 25.9852L33.6403 24.4866L31.7686 23.5767H34.0692L34.7711 22.0513Z" fill="white"/>
<path d="M29.0771 23.4155L29.5451 24.4057H31.0268L29.818 25.0212L30.2859 25.9846L29.0771 25.3959L27.8683 25.9846L28.3362 25.0212L27.1274 24.4057H28.6092L29.0771 23.4155Z" fill="white"/>
<path d="M23.3462 23.4155L23.8141 24.4057H25.2959L24.0871 25.0212L24.555 25.9846L23.3462 25.3959L22.1374 25.9846L22.6053 25.0212L21.3965 24.4057H22.8782L23.3462 23.4155Z" fill="white"/>
<path d="M45.8061 23.4155L46.2741 24.4057H47.7558L46.547 25.0212L47.0149 25.9846L45.8061 25.3959L44.5973 25.9846L45.0653 25.0212L43.8564 24.4057H45.3382L45.8061 23.4155Z" fill="white"/>
<path d="M40.8144 23.4155L41.2824 24.4057H42.7641L41.5553 25.0212L42.0232 25.9846L40.8144 25.3959L39.6056 25.9846L40.0736 25.0212L38.8647 24.4057H40.3465L40.8144 23.4155Z" fill="white"/>
<path d="M35.2387 37.1189C35.2387 36.9583 35.2777 36.8245 35.2777 36.6639C35.3167 36.0216 35.3557 35.3794 35.3947 34.7639C35.4337 34.3089 35.4727 33.8807 35.4727 33.4258C35.4727 33.3455 35.5506 33.3455 35.6676 33.292C35.5896 34.5765 35.5506 35.8343 35.4727 37.1189C39.2551 37.1189 42.9985 37.1189 46.7808 37.1189C46.7029 35.8611 46.6639 34.5765 46.5859 33.3188C46.7029 33.3723 46.7419 33.4258 46.7419 33.5061C46.8198 34.5498 46.8978 35.5935 46.9368 36.6372C46.9368 36.8245 46.9758 37.0118 46.9758 37.2259C43.0374 37.2259 39.0991 37.2259 35.1997 37.2259C35.2387 37.1724 35.2387 37.1456 35.2387 37.1189Z" fill="#130972"/>
<path d="M46.4293 33.0769C46.4683 34.3347 46.5073 35.6192 46.5463 36.9037C46.3124 36.877 46.0784 36.877 45.8444 36.8502C45.1815 36.7967 44.5576 36.6629 43.9337 36.5023C43.5048 36.3953 43.0759 36.2882 42.6079 36.2615C42.101 36.2347 41.6331 36.2882 41.2432 36.5826C41.2432 36.5291 41.2432 36.5023 41.2432 36.4756C41.2432 35.2713 41.2432 34.0403 41.2432 32.836C41.2432 32.7825 41.2822 32.729 41.3212 32.6754C41.9451 32.2473 42.6469 32.1937 43.4658 32.3275C43.7778 32.3811 44.0117 32.4614 44.2847 32.5952C44.9086 32.8895 45.5715 32.9966 46.3123 33.0501C46.3513 33.0501 46.3903 33.0501 46.4293 33.0501C46.3903 33.0769 46.4293 33.0769 46.4293 33.0769ZM42.374 35.2178C42.6469 35.2178 42.8809 35.191 43.1149 35.2178C43.4658 35.2445 43.8167 35.3783 44.1287 35.4586C44.4796 35.5657 44.7916 35.646 45.1425 35.753C45.2595 35.7798 45.3765 35.7798 45.4935 35.8065C45.4935 35.753 45.4935 35.6995 45.4935 35.646C45.0256 35.5924 44.6356 35.4586 44.2067 35.3248C43.8168 35.191 43.4268 35.084 42.9979 35.0304C42.7639 35.0037 42.53 35.0304 42.296 35.084C42.335 35.1375 42.374 35.191 42.374 35.2178ZM42.374 33.8529C42.6079 33.8529 42.8029 33.8262 42.9979 33.8529C43.3098 33.8797 43.5828 33.96 43.8557 34.0403C44.2067 34.1473 44.5576 34.2544 44.9086 34.3614C45.0645 34.4149 45.2595 34.4417 45.4545 34.4685C45.4545 34.4149 45.4545 34.4149 45.4935 34.3882C45.4935 34.3614 45.4935 34.3347 45.4935 34.3079C44.9866 34.2544 44.5576 34.0938 44.0897 33.96C43.7778 33.8797 43.4658 33.7994 43.1149 33.7459C42.8419 33.6924 42.5689 33.7191 42.296 33.7727C42.335 33.7727 42.335 33.8262 42.374 33.8529ZM42.374 34.5487C42.53 34.5487 42.6859 34.522 42.8419 34.522C43.2318 34.522 43.5828 34.629 43.9337 34.7361C44.3237 34.8431 44.7136 34.9502 45.1035 35.0572C45.2205 35.084 45.3375 35.084 45.4545 35.1107C45.4545 35.0572 45.4545 35.0037 45.4545 34.9769C45.1815 34.8966 44.8696 34.8431 44.6356 34.7628C44.4017 34.7093 44.1677 34.629 43.9337 34.5487C43.5828 34.4417 43.2708 34.3614 42.8809 34.3346C42.6859 34.3346 42.491 34.3346 42.257 34.3882C42.335 34.4685 42.374 34.4952 42.374 34.5487ZM45.4935 33.6121C45.1035 33.5586 44.7526 33.4783 44.4017 33.3445C44.1677 33.2642 43.8947 33.1839 43.6608 33.1036C43.2708 32.9966 42.8809 32.9431 42.452 32.9966C42.413 32.9966 42.374 33.0233 42.296 33.0233C42.335 33.0769 42.335 33.1036 42.335 33.1572C42.53 33.1572 42.7249 33.1304 42.8809 33.1304C43.1928 33.1304 43.4658 33.2107 43.7388 33.291C44.0897 33.398 44.4407 33.505 44.7916 33.6121C44.9866 33.6656 45.1815 33.6924 45.4155 33.7459C45.4935 33.7191 45.4935 33.6656 45.4935 33.6121Z" fill="#130972"/>
<path d="M35.9012 33.0779C36.5641 33.0511 37.149 32.9441 37.6949 32.7568C37.8119 32.7032 37.9678 32.6497 38.0848 32.5962C38.7477 32.3018 39.4106 32.1948 40.1905 32.3553C40.5024 32.4356 40.7754 32.5427 41.0093 32.73C41.0483 32.7568 41.0483 32.8103 41.0483 32.837C41.0483 33.5864 41.0483 34.3624 41.0483 35.1118C41.0483 35.5667 41.0483 36.0217 41.0483 36.4766C41.0483 36.5034 41.0483 36.5301 41.0483 36.5569H41.0093C40.6584 36.2893 40.2295 36.2357 39.7225 36.2625C39.1766 36.2893 38.6697 36.3963 38.2018 36.5301C37.4999 36.7174 36.759 36.8513 35.9791 36.878C35.9402 36.878 35.9012 36.878 35.8622 36.878C35.8232 36.878 35.8232 36.878 35.7842 36.878C35.8232 35.6202 35.8622 34.3624 35.9012 33.0779ZM36.759 35.1385C36.915 35.1118 37.071 35.1118 37.188 35.0582C37.5779 34.9512 37.9678 34.8174 38.3968 34.7103C38.7087 34.6033 39.0597 34.523 39.4106 34.523C39.5666 34.523 39.7225 34.5498 39.8785 34.5498C39.8785 34.4963 39.9175 34.4695 39.9175 34.416C39.7225 34.3624 39.5276 34.3624 39.3326 34.3624C38.9427 34.3892 38.6307 34.4695 38.2798 34.5765C37.8508 34.7103 37.4609 34.8174 37.032 34.9244C36.954 34.9512 36.837 34.9512 36.759 34.978C36.759 35.0315 36.759 35.0582 36.759 35.1385ZM39.9565 35.085C39.7615 35.085 39.5666 35.0582 39.4106 35.0582C38.9427 35.0582 38.5527 35.192 38.1238 35.3259C37.7729 35.4329 37.3829 35.5399 37.032 35.6202C36.954 35.647 36.837 35.647 36.759 35.6738C36.759 35.7005 36.759 35.7273 36.759 35.754C36.759 35.7808 36.759 35.8076 36.759 35.8343C36.798 35.8343 36.837 35.8343 36.876 35.8343C37.2659 35.7808 37.6559 35.6738 38.0068 35.5399C38.5917 35.3526 39.1766 35.1385 39.8395 35.2723C39.9175 35.192 39.9175 35.1385 39.9565 35.085ZM39.9565 33.7202C39.7225 33.7202 39.5276 33.6934 39.3326 33.6934C38.9427 33.6934 38.5527 33.8272 38.2018 33.9343C37.8119 34.0413 37.4609 34.1484 37.071 34.2554C36.993 34.2822 36.876 34.2822 36.759 34.3089C36.759 34.3624 36.759 34.3892 36.798 34.4427C36.876 34.4427 36.915 34.4427 36.954 34.416C37.4219 34.3624 37.8119 34.2019 38.2408 34.0681C38.5527 33.961 38.9037 33.854 39.2546 33.8272C39.4496 33.8272 39.6446 33.8272 39.8785 33.8272C39.9175 33.8272 39.9175 33.7737 39.9565 33.7202ZM36.759 33.7737C36.954 33.7469 37.11 33.7202 37.3049 33.6667C37.6559 33.5596 38.0068 33.4526 38.3578 33.3455C38.6697 33.2652 38.9817 33.1582 39.2936 33.1582C39.4886 33.1582 39.6836 33.1582 39.8785 33.1849C39.8785 33.1582 39.9175 33.1047 39.9175 33.0511C39.8395 33.0511 39.8005 33.0244 39.7615 33.0244C39.3326 32.9709 38.9037 33.0244 38.5137 33.1314C37.9288 33.292 37.3829 33.5328 36.72 33.6131C36.759 33.6667 36.759 33.7202 36.759 33.7737Z" fill="#130972"/>
<path d="M41.1273 36.9841C41.2832 36.7432 41.5562 36.5559 41.9461 36.5023C42.1801 36.4756 42.4141 36.4756 42.648 36.5291C43.1939 36.6094 43.7008 36.7432 44.2468 36.8235C44.5587 36.877 44.8707 36.9305 45.1826 36.9841C42.492 36.9841 39.8015 36.9841 37.1499 36.9841C37.9298 36.8502 38.7097 36.6897 39.4895 36.5291C39.7235 36.4756 39.9575 36.4756 40.1914 36.4756C40.5814 36.4756 40.8543 36.6094 41.0493 36.8502C41.0883 36.9038 41.1273 36.9305 41.1273 36.9841Z" fill="#130972"/>
<path d="M42.7651 30.3759C42.8041 30.4026 42.8431 30.4026 42.8821 30.4294C43.0381 30.3223 43.2331 30.1885 43.428 30.028C43.896 29.6533 44.2859 29.3322 44.2469 29.3054C44.2079 29.2786 43.779 29.573 43.3111 29.9477C43.1161 30.1082 42.9211 30.2688 42.7651 30.3759Z" fill="#130972"/>
<path d="M42.3745 30.2399C42.4135 30.2399 42.4525 30.2666 42.4915 30.2666C42.6085 30.1596 42.7644 30.0258 42.9594 29.892C43.3104 29.5708 43.5833 29.3032 43.5443 29.2764C43.5053 29.2497 43.1934 29.4905 42.8034 29.8117C42.6475 29.9722 42.4915 30.1328 42.3745 30.2399Z" fill="#130972"/>
<path d="M42.1409 30.1615C42.2579 30.0277 42.3749 29.8136 42.5308 29.5995C42.8428 29.1446 43.0378 28.7699 42.9988 28.7432C42.9598 28.7432 42.6868 29.0911 42.3749 29.546C42.2189 29.7601 42.1019 29.9742 42.0239 30.1348C42.1019 30.1615 42.1409 30.1615 42.1409 30.1615Z" fill="#130972"/>
<path d="M41.4002 30.0522C41.4392 29.8916 41.4782 29.6507 41.5172 29.4099C41.5951 28.9014 41.6341 28.5 41.5951 28.5C41.5562 28.5 41.4392 28.9014 41.3612 29.4099C41.3222 29.6775 41.2832 29.8916 41.2832 30.0522C41.3222 30.0254 41.3612 30.0254 41.4002 30.0522Z" fill="#130972"/>
<path d="M41.7899 30.0806C41.8679 29.9468 41.9459 29.7595 42.0239 29.5722C42.1798 29.1707 42.2968 28.8496 42.2578 28.8496C42.2188 28.8496 42.0629 29.144 41.9069 29.5454C41.8289 29.7595 41.7509 29.9468 41.7119 30.0806C41.7119 30.0806 41.7509 30.0806 41.7899 30.0806Z" fill="#130972"/>
<path d="M44.1686 30.9624C44.0126 31.016 43.8567 31.0695 43.7007 31.0962C43.7397 31.123 43.7397 31.1498 43.7787 31.1765C43.9346 31.1498 44.0516 31.0962 44.2466 31.0427C44.7925 30.8822 45.2214 30.7216 45.1824 30.6948C45.1824 30.6948 44.7145 30.8019 44.1686 30.9624Z" fill="#130972"/>
<path d="M43.8955 31.3638C43.8955 31.3906 43.9345 31.4173 43.9345 31.4709C44.0905 31.4441 44.2854 31.4441 44.4804 31.4173C45.2213 31.3371 45.7672 31.23 45.7672 31.2033C45.7672 31.1765 45.1823 31.23 44.4414 31.3103C44.2854 31.3371 44.0905 31.3638 43.8955 31.3638Z" fill="#130972"/>
<path d="M45.455 31.6309C45.455 31.6041 44.987 31.6041 44.3631 31.6576C44.2462 31.6576 44.1292 31.6844 44.0122 31.6844C44.0122 31.7111 44.0122 31.7647 44.0512 31.7914C44.1682 31.7914 44.2852 31.7914 44.4021 31.7647C44.9871 31.7111 45.455 31.6576 45.455 31.6309Z" fill="#130972"/>
<path d="M43.0771 30.5617C43.1161 30.5884 43.1551 30.5884 43.1551 30.6152C43.3111 30.5617 43.5061 30.4814 43.6621 30.3744C44.169 30.1335 44.5199 29.9462 44.5199 29.9194C44.4809 29.8927 44.091 30.0532 43.5841 30.2941C43.3891 30.3744 43.2331 30.4814 43.0771 30.5617Z" fill="#130972"/>
<path d="M43.3887 30.7761C43.4277 30.8028 43.4277 30.8296 43.4667 30.8564C43.6616 30.7761 43.8566 30.6958 44.0906 30.6155C44.7145 30.3479 45.2214 30.1338 45.1824 30.107C45.1434 30.0803 44.6365 30.2676 44.0126 30.5352C43.7786 30.6155 43.5836 30.6958 43.3887 30.7761Z" fill="#130972"/>
<path d="M40.9325 30.0252C40.9715 29.8914 40.9715 29.6773 41.0105 29.4632C41.0495 29.0618 41.0105 28.7139 40.9715 28.7139C40.9325 28.7139 40.8545 29.035 40.8545 29.4364C40.8545 29.6773 40.8545 29.8646 40.8545 29.9984C40.8935 30.0252 40.8935 30.0252 40.9325 30.0252Z" fill="#130972"/>
<path d="M40.5034 30.0806C40.5424 30.0806 40.5814 30.0806 40.6204 30.0806C40.5814 29.92 40.5424 29.6792 40.4644 29.4383C40.3084 28.9566 40.1524 28.5552 40.1135 28.5552C40.0745 28.5552 40.1524 28.9566 40.3084 29.4651C40.3474 29.6792 40.4254 29.92 40.5034 30.0806Z" fill="#130972"/>
<path d="M38.1636 31.5243C38.1636 31.4976 38.2026 31.4708 38.2026 31.444C38.0076 31.4173 37.8127 31.3905 37.5787 31.3638C36.8378 31.2835 36.2529 31.2567 36.2529 31.2835C36.2529 31.3102 36.8378 31.3905 37.5397 31.4708C37.7737 31.4976 37.9687 31.5243 38.1636 31.5243Z" fill="#130972"/>
<path d="M37.8519 30.7767C38.0859 30.857 38.3589 30.9373 38.5538 30.9908C38.5928 30.964 38.5928 30.9373 38.6318 30.9105C38.4368 30.8302 38.2029 30.7499 37.9299 30.6697C37.267 30.4556 36.7211 30.295 36.6821 30.3218C36.6821 30.3485 37.189 30.5626 37.8519 30.7767Z" fill="#130972"/>
<path d="M44.5197 32.0351C44.3638 32.0083 44.2468 32.0083 44.0908 32.0083C44.0908 32.0351 44.0908 32.0618 44.0908 32.1153C44.2078 32.1421 44.3638 32.1421 44.4808 32.1689C45.2216 32.2492 45.8065 32.2759 45.8065 32.2492C45.8455 32.1956 45.2606 32.1153 44.5197 32.0351Z" fill="#130972"/>
<path d="M38.0466 32.1131C38.0466 32.0863 38.0466 32.0863 38.0466 32.0596C37.8907 32.0863 37.7347 32.0863 37.5397 32.1131C36.7988 32.1934 36.2529 32.3004 36.2529 32.3272C36.2529 32.3539 36.8378 32.3004 37.5787 32.2201C37.7347 32.1934 37.8907 32.1934 38.0466 32.1666C38.0466 32.1399 38.0466 32.1131 38.0466 32.1131Z" fill="#130972"/>
<path d="M36.8379 30.802C36.8379 30.8287 37.2668 30.9893 37.8127 31.1231C38.0077 31.1766 38.1637 31.2302 38.3197 31.2569C38.3197 31.2302 38.3586 31.2034 38.3586 31.1766C38.2027 31.1231 38.0467 31.0696 37.8517 31.0161C37.3058 30.8823 36.8379 30.7752 36.8379 30.802Z" fill="#130972"/>
<path d="M38.241 30.4818C38.436 30.5889 38.631 30.6959 38.7869 30.7762C38.8259 30.7494 38.8259 30.7227 38.8649 30.7227C38.7479 30.6424 38.553 30.5353 38.358 30.4283C37.8901 30.1607 37.5001 29.9733 37.5001 30.0001C37.4222 30.0001 37.7731 30.2142 38.241 30.4818Z" fill="#130972"/>
<path d="M36.604 31.711C36.604 31.7378 37.0719 31.7913 37.6568 31.818C37.8128 31.818 37.9298 31.8448 38.0858 31.8448C38.0858 31.818 38.0858 31.7913 38.1248 31.7377C38.0078 31.7377 37.8518 31.711 37.6958 31.711C37.0719 31.6842 36.604 31.6842 36.604 31.711Z" fill="#130972"/>
<path d="M40.0736 30.1596C40.1126 30.1596 40.1516 30.1329 40.1906 30.1329C40.1516 29.9991 40.0736 29.8117 39.9956 29.5977C39.8397 29.1962 39.6837 28.9019 39.6447 28.9019C39.6057 28.9019 39.6837 29.223 39.8397 29.6244C39.9177 29.8385 39.9956 30.0258 40.0736 30.1596Z" fill="#130972"/>
<path d="M38.4368 30.1596C38.6708 30.3202 38.9048 30.454 39.0607 30.5611C39.0997 30.5343 39.1387 30.5343 39.1387 30.5075C38.9827 30.4005 38.7488 30.2399 38.5148 30.0794C37.9689 29.7315 37.54 29.4639 37.501 29.4906C37.501 29.5174 37.8909 29.8118 38.4368 30.1596Z" fill="#130972"/>
<path d="M39.7622 30.2408C39.8012 30.2408 39.8402 30.214 39.8792 30.214C39.7622 30.0535 39.6062 29.8661 39.4502 29.6521C39.0993 29.2239 38.7873 28.876 38.7483 28.876C38.7094 28.9027 38.9823 29.2506 39.3332 29.7056C39.4502 29.9197 39.6062 30.107 39.7622 30.2408Z" fill="#130972"/>
<path d="M39.3726 30.3994C39.4116 30.3726 39.4506 30.3726 39.4506 30.3458C39.3726 30.2388 39.2167 30.0782 39.0607 29.8909C38.7487 29.543 38.4368 29.2754 38.3978 29.3021C38.3588 29.3289 38.5928 29.5965 38.9047 29.9444C39.0997 30.1317 39.2557 30.2923 39.3726 30.3994Z" fill="#130972"/>
<path d="M24.3988 37.3313C24.4768 37.1172 24.7107 36.9566 24.9447 36.7961C25.3346 36.5552 25.8416 36.4214 26.3095 36.4482C26.6604 36.4749 26.9334 36.5552 27.2843 36.5284C27.0504 36.4749 26.8944 36.3946 26.6994 36.2876C27.4013 36.3411 28.1422 36.3144 28.7271 36.5017C29.117 36.6355 29.429 36.8496 29.663 37.0904C29.8969 37.3313 30.0139 37.6257 30.1309 37.8933C30.2479 38.1341 30.3648 38.4017 30.6378 38.5623C30.5988 38.5088 30.5988 38.4285 30.6378 38.375C30.6768 38.2947 30.7158 38.2144 30.7938 38.1341C30.8718 38.0538 30.9108 37.9736 30.8328 37.8933C30.9497 37.9736 31.0667 38.0806 31.1057 38.1877C31.1447 38.2679 31.1447 38.3482 31.1837 38.4285C31.3007 38.6426 31.6516 38.7764 31.6906 38.9905C31.6906 39.0975 31.6126 39.2313 31.5736 39.3384C31.5347 39.4454 31.5347 39.5792 31.6516 39.6595C31.7686 39.5525 31.8466 39.4187 31.9246 39.2849C32.2755 39.606 32.1196 40.061 32.1975 40.4624C32.2755 41.1314 33.0164 41.6666 33.9133 41.8272C33.2894 41.8004 32.7435 41.5596 32.5095 41.4525C31.7686 41.0244 31.8076 40.6229 31.4957 40.168C31.4177 40.0609 31.3397 39.9539 31.2227 39.8469C31.1057 39.7398 30.9887 39.606 30.8718 39.499C30.8718 39.3384 30.9497 38.8835 31.1057 38.6426C30.9108 38.9102 30.7938 39.2313 30.7938 39.3919C30.3648 39.0173 29.8189 38.6158 29.273 38.2947C29.156 37.6524 28.6491 36.9566 27.9472 36.6355C28.7271 37.144 28.8441 37.8398 28.8831 38.0538C28.2592 37.706 27.5963 37.4383 26.9334 37.2778C27.2064 37.3848 28.3372 37.8933 29.468 38.6158C29.0781 38.5891 28.4152 38.5891 27.8303 38.6426C28.3762 38.5891 29.39 38.7229 29.7019 38.7764C30.0529 39.0173 30.4038 39.2849 30.7548 39.5525C30.3648 39.499 29.624 39.4454 28.8831 39.5257C29.507 39.4722 30.6378 39.6595 30.9108 39.7131C31.1837 39.9807 31.4957 40.3553 31.5736 40.6765C31.3787 40.4624 30.9498 40.3821 30.5598 40.3553C30.1699 40.3286 29.7409 40.3286 29.351 40.2483C29.117 40.1948 28.9221 40.061 28.8051 39.9271C29.0001 39.9807 29.273 40.0074 29.507 39.9539C29.312 39.8469 29.117 39.7398 28.8831 39.7131C28.7661 39.6863 28.6491 39.6863 28.5321 39.6863C28.1422 39.6595 27.8302 39.499 27.5963 39.3116C28.0642 39.4454 28.7271 39.1243 29.195 39.2849C28.9611 39.0975 28.6101 38.9905 28.2202 38.937C28.0642 38.9102 27.9082 38.9102 27.7523 38.8834C27.6353 38.8567 27.5183 38.8299 27.4013 38.7764C27.1284 38.6694 26.8164 38.5623 26.6214 38.4285C27.0114 38.482 27.4403 38.3215 27.8303 38.375C27.6353 38.3215 27.4403 38.3215 27.2453 38.3215C26.8944 38.2947 26.5045 38.1877 26.3095 38.0003C26.1925 37.8665 26.1145 37.7059 25.9975 37.5454C25.8806 37.4383 25.7246 37.3313 25.5296 37.3045C25.3346 37.2778 25.0617 37.3045 24.8667 37.4116C24.6718 37.5186 24.5938 37.6792 24.6718 37.813C24.3598 37.7595 24.2818 37.5454 24.3988 37.3313Z" fill="#130972"/>
<path d="M25.4118 37.0646C25.9967 37.0111 26.8156 37.3322 26.8156 37.3322C26.8156 37.3322 26.9716 37.4125 27.2056 37.5196C27.7125 37.7604 28.5313 38.1618 29.3502 38.6971C28.9603 38.6703 28.2974 38.6703 27.7125 38.7238C28.2584 38.6703 29.2722 38.8041 29.5842 38.8576C29.9351 39.0985 30.2861 39.3661 30.637 39.6337C30.2471 39.5802 29.5062 39.5267 28.7653 39.6069C29.3892 39.5534 30.52 39.7408 30.793 39.7943C31.0659 40.0619 31.3779 40.4365 31.4559 40.7577C31.2609 40.5436 30.832 40.4633 30.442 40.4365C30.0521 40.4098 29.6232 40.4098 29.2332 40.3295C28.9993 40.276 28.8043 40.1422 28.6873 40.0084C28.8823 40.0619 29.1552 40.0886 29.3892 40.0351C29.1942 39.9281 28.9993 39.821 28.7653 39.7943C28.6483 39.7675 28.5313 39.7675 28.4144 39.7675C28.0244 39.7407 27.7125 39.5802 27.4785 39.3929C27.9464 39.5267 28.6093 39.2055 29.0773 39.3661C28.8433 39.1788 28.4923 39.0717 28.1024 39.0182C27.9464 38.9914 27.7905 38.9914 27.6345 38.9647C27.5175 38.9379 27.4005 38.9111 27.2835 38.8576C27.0106 38.7506 26.6986 38.6435 26.5037 38.5097C26.8936 38.5632 27.3225 38.4027 27.7125 38.4562C27.5175 38.4027 27.3225 38.4027 27.1276 38.4027C26.7766 38.3759 26.3867 38.2689 26.1917 38.0815C26.0747 37.9477 25.9967 37.7872 25.8798 37.6266C25.7628 37.5196 25.6068 37.4125 25.4118 37.3858C25.2169 37.359 24.9439 37.3857 24.7489 37.4928C24.554 37.5998 24.476 37.7604 24.554 37.8942C24.32 37.5196 24.7879 37.1181 25.4118 37.0646Z" fill="#130972"/>
<path d="M22.566 35.271C22.0201 35.0034 21.6691 34.5752 21.5522 34.1203C21.4352 33.6653 21.5911 33.2372 21.9811 32.916C21.9031 33.1301 21.9811 33.3977 22.0981 33.6118C22.254 33.8259 22.527 34.0132 22.8779 34.04C22.8389 33.9062 22.8389 33.7991 22.8389 33.6921C22.8779 33.7724 22.9949 33.8259 23.0729 33.8259C23.1899 33.8527 23.3069 33.8259 23.3849 33.8527C23.5798 33.8794 23.7358 34.0132 23.8528 34.1203C23.9698 34.2273 24.0478 34.3611 24.2427 34.4414C24.2817 34.2006 24.5547 34.04 24.8276 33.9329C24.7886 34.2006 24.9446 34.4682 25.1786 34.6823C25.3345 34.8161 25.4905 34.9231 25.6855 35.0034C25.9974 35.1104 26.3484 35.1372 26.6993 35.2175C27.2452 35.3513 27.7522 35.6992 27.9471 36.0739C27.9471 36.0739 27.4402 35.4583 25.9195 35.4048C25.7635 35.4048 25.6075 35.3781 25.4125 35.3781C25.0616 35.164 24.6717 34.7625 24.5547 34.4147C24.6327 34.8161 25.0616 35.2175 25.2176 35.3513C24.8666 35.2978 24.4767 35.2443 24.1257 35.164C23.7358 34.9231 23.2289 34.4949 23.0339 34.0935C23.1509 34.5217 23.6188 34.9231 23.8528 35.1104C23.0339 34.8696 22.332 34.5217 21.9811 34.0935C22.371 34.6823 23.3069 35.1104 24.2427 35.3245C24.3597 35.3513 24.4767 35.3781 24.6327 35.4048C24.3207 35.4851 23.5798 35.6457 22.9949 35.5119C23.6968 35.726 24.6327 35.5119 24.8666 35.4316C25.1786 35.4851 25.5685 35.5386 25.8415 35.5654C26.1144 35.5654 26.3484 35.5922 26.6213 35.6724C26.3874 35.6724 26.2314 35.726 26.1144 35.7527C25.8805 35.833 25.6855 35.94 25.4515 36.0203C24.9836 36.2077 24.4377 36.2879 23.8918 36.2612C24.1257 36.1541 24.3597 36.0471 24.5547 35.94C24.1257 36.0471 23.6578 36.0471 23.2289 35.9133C22.9949 35.833 22.8 35.6992 22.605 35.5921C22.41 35.4851 22.1371 35.4048 21.9031 35.4583C22.215 35.3513 22.371 35.2978 22.566 35.271Z" fill="#130972"/>
<path d="M22.566 35.271C22.0201 35.0034 21.6691 34.5752 21.5522 34.1203C21.4352 33.6653 21.5911 33.2372 21.9811 32.916C21.6691 33.5048 22.0981 34.0668 22.0981 34.0668C22.488 34.6555 23.4239 35.0837 24.3597 35.2978C24.4767 35.3245 24.5937 35.3513 24.7496 35.3781C24.4377 35.4583 23.6968 35.6189 23.1119 35.4851C23.8138 35.6992 24.7496 35.4851 24.9836 35.4048C25.2956 35.4583 25.6855 35.5119 25.9584 35.5386C26.2314 35.5386 26.4654 35.5654 26.7383 35.6457C26.5044 35.6457 26.3484 35.6992 26.2314 35.726C25.9974 35.8062 25.8025 35.9133 25.5685 35.9936C25.1006 36.1809 24.5547 36.2612 24.0088 36.2344C24.2427 36.1274 24.4767 36.0203 24.6717 35.9133C24.2427 36.0203 23.7748 36.0203 23.3459 35.8865C23.1119 35.8062 22.9169 35.6724 22.722 35.5654C22.527 35.4583 22.254 35.3781 22.0201 35.4316C22.215 35.3513 22.371 35.2978 22.566 35.271Z" fill="#130972"/>
<path d="M30.6761 57.6963C30.8711 57.6963 30.988 57.723 31.144 57.7498C31.261 57.7766 31.378 57.8301 31.495 57.8836C31.5729 57.9371 31.6509 57.9907 31.7289 58.0709C31.7679 58.1512 31.8069 58.2315 31.8069 58.3118C31.8069 58.5259 31.6119 58.74 31.261 58.9541L30.6371 59.2752H31.7289C31.7289 59.302 31.7679 59.3287 31.7679 59.3555C31.7679 59.3823 31.8069 59.4358 31.8069 59.4625C31.8069 59.5428 31.7679 59.5963 31.7289 59.6231C31.6899 59.6499 31.6119 59.6766 31.5339 59.6766H29.9352C29.8572 59.6499 29.8182 59.5963 29.7792 59.5428C29.7402 59.4893 29.7402 59.4358 29.7402 59.3555C29.7402 59.2752 29.7792 59.2217 29.8182 59.1682C29.8572 59.1146 29.8962 59.0879 29.9742 59.0611L30.5981 58.6865C30.6761 58.6329 30.7541 58.6062 30.7931 58.5527C30.8321 58.5259 30.8711 58.4724 30.91 58.4456C30.949 58.4188 30.949 58.3921 30.988 58.3653C30.988 58.3386 31.027 58.3118 31.027 58.285C31.027 58.2315 30.988 58.178 30.91 58.1512C30.8321 58.1245 30.7541 58.0977 30.6371 58.0977C30.5201 58.0977 30.4031 58.0977 30.3251 58.1245C30.2472 58.1512 30.1302 58.178 30.0912 58.2048C30.0522 58.178 30.0132 58.1512 29.9742 58.0977C29.9352 58.0709 29.9352 58.0174 29.9352 57.9639C29.9352 57.8569 30.0132 57.7766 30.1692 57.7231C30.2082 57.7231 30.4031 57.6963 30.6761 57.6963Z" fill="#130972"/>
<path d="M34.6152 58.7162C34.6152 58.8768 34.5762 59.0374 34.5372 59.1444C34.4593 59.2782 34.3813 59.3853 34.2643 59.4656C34.1473 59.5458 34.0303 59.6261 33.8743 59.6529C33.7184 59.7064 33.5624 59.7064 33.3674 59.7064C33.1725 59.7064 33.0165 59.6797 32.8605 59.6529C32.7045 59.5994 32.5876 59.5458 32.4706 59.4656C32.3536 59.3853 32.2756 59.2782 32.1976 59.1444C32.1196 59.0106 32.1196 58.8768 32.1196 58.7162C32.1196 58.5557 32.1586 58.4219 32.1976 58.2881C32.2756 58.1543 32.3536 58.0472 32.4706 57.9669C32.5876 57.8866 32.7045 57.8064 32.8605 57.7796C33.0165 57.7261 33.1725 57.7261 33.3674 57.7261C33.5624 57.7261 33.7184 57.7528 33.8743 57.7796C34.0303 57.8331 34.1473 57.8866 34.2643 57.9669C34.3813 58.0472 34.4593 58.1543 34.5372 58.2881C34.5762 58.4219 34.6152 58.5557 34.6152 58.7162ZM33.8354 58.7162C33.8354 58.5289 33.7964 58.3951 33.7184 58.2881C33.6404 58.181 33.5234 58.1275 33.3674 58.1275C33.2115 58.1275 33.0945 58.181 33.0555 58.2881C32.9775 58.3951 32.9385 58.5289 32.9385 58.7162C32.9385 58.9036 32.9775 59.0374 33.0555 59.1444C33.1335 59.2515 33.2504 59.305 33.3674 59.305C33.5234 59.305 33.6404 59.2515 33.7184 59.1444C33.7964 59.0374 33.8354 58.9036 33.8354 58.7162Z" fill="#130972"/>
<path d="M35.4333 58.2613L34.9654 58.3683C34.9264 58.3416 34.8874 58.3148 34.8094 58.2881C34.7704 58.2613 34.7314 58.2078 34.7314 58.1275C34.7314 57.9937 34.8484 57.9134 35.0824 57.8599L35.5893 57.7261H35.7453C35.8623 57.7261 35.9792 57.7528 36.0572 57.8064C36.1352 57.8599 36.1742 57.9402 36.1742 58.0204V59.6796C36.1352 59.6796 36.0962 59.6797 36.0182 59.7064C35.9403 59.7064 35.9013 59.7064 35.8233 59.7064C35.7453 59.7064 35.7063 59.7064 35.6283 59.7064C35.5893 59.7064 35.5113 59.6796 35.5113 59.6796C35.4723 59.6529 35.4333 59.6261 35.4333 59.5994C35.3943 59.5726 35.3943 59.5191 35.3943 59.4656V58.2613H35.4333Z" fill="#130972"/>
<path d="M37.5395 59.3042C37.7345 59.3042 37.8904 59.2775 38.0074 59.1972C38.1244 59.1169 38.2024 59.0366 38.2024 58.9028C38.1634 58.9296 38.1244 58.9563 38.0074 58.9563C37.9294 58.9831 37.8125 58.9831 37.6565 58.9831C37.5005 58.9831 37.3835 58.9563 37.2665 58.9296C37.1496 58.9028 37.0326 58.8493 36.9546 58.7958C36.8766 58.7422 36.7986 58.6887 36.7596 58.6084C36.7206 58.5281 36.6816 58.4479 36.6816 58.3408C36.6816 58.2605 36.7206 58.1535 36.7596 58.0732C36.7986 57.9929 36.8766 57.9126 36.9546 57.8591C37.0326 57.8056 37.1496 57.7521 37.3055 57.6985C37.4615 57.6718 37.6175 57.645 37.7735 57.645C38.1244 57.645 38.4364 57.7253 38.6313 57.8859C38.8263 58.0464 38.9433 58.2873 38.9433 58.6084C38.9433 58.7958 38.9043 58.9296 38.8653 59.0634C38.7873 59.1972 38.7093 59.3042 38.5923 59.3845C38.4754 59.4648 38.3194 59.5451 38.1634 59.5718C38.0074 59.6254 37.8125 59.6254 37.6175 59.6254C37.3835 59.6254 37.1886 59.5986 37.0326 59.5451C36.8766 59.4916 36.8376 59.438 36.8376 59.331C36.8376 59.2775 36.8376 59.2507 36.8766 59.1972C36.9156 59.1437 36.9546 59.1169 36.9936 59.0901C37.0716 59.1169 37.1496 59.1437 37.2665 59.1437C37.3445 59.3042 37.4615 59.3042 37.5395 59.3042ZM37.8125 58.6084C37.8904 58.6084 37.9294 58.6084 38.0074 58.5817C38.0854 58.5549 38.1244 58.5281 38.1634 58.5014V58.4746C38.1634 58.3408 38.1244 58.2605 38.0854 58.207C38.0074 58.1535 37.9294 58.1267 37.8125 58.1267C37.6955 58.1267 37.6175 58.1535 37.5785 58.1802C37.5395 58.2338 37.5005 58.2873 37.5005 58.3676C37.5005 58.4479 37.5395 58.5014 37.5785 58.5281C37.6175 58.5817 37.7345 58.6084 37.8125 58.6084Z" fill="#130972"/>
<path d="M32.4311 10.8394L29.9355 12.0169L30.7934 13.4887L31.9632 14.4521L33.211 13.5958C33.211 13.5958 31.5343 13.0605 32.4311 10.8394Z" fill="white"/>
</svg>
