<svg width="68" height="68" viewBox="0 0 68 68" fill="none" xmlns="http://www.w3.org/2000/svg">
<path d="M33.1049 0.0405257C31.1032 0.242209 29.1925 1.17802 27.5407 2.76728C27.2538 3.04964 27.0088 3.29973 26.9948 3.332C26.9878 3.37233 27.2258 3.42074 27.5337 3.44494L28.1007 3.49334L28.5976 3.05771C29.6334 2.16223 31.1522 1.4039 32.475 1.11348C33.3779 0.919864 34.8266 0.99247 35.7085 1.27483C37.7662 1.92828 39.4739 3.18678 40.7897 5.01807C41.9656 6.65574 42.6865 8.35794 43.0224 10.3183C43.2044 11.359 43.2114 13.1257 43.0434 14.2632C42.8684 15.433 42.4765 16.8609 42.1685 17.4337L42.0355 17.6918L41.7766 17.5708C41.6366 17.4982 41.2027 17.353 40.8247 17.2481C39.264 16.8044 38.3611 16.0461 37.4582 14.4326C37.2903 14.118 36.8213 13.1741 36.4294 12.3351C36.0305 11.4881 35.6665 10.7217 35.6105 10.6329C35.5195 10.4635 35.5335 10.4393 36.0235 10.0924C37.4232 9.084 39.278 8.36601 40.8947 8.21273C41.2097 8.18046 41.4686 8.14819 41.4686 8.13206C41.4686 8.11592 41.3846 7.8981 41.2797 7.64802L41.0837 7.19625L40.6288 7.24465C38.956 7.4302 36.9263 8.22886 35.6035 9.22115C35.3586 9.40669 35.1346 9.55997 35.1066 9.57611C35.0786 9.58418 34.8476 9.28568 34.6027 8.91459C33.0699 6.57506 30.8162 4.94546 28.4856 4.50176C27.1068 4.2436 25.2801 4.44529 23.7613 5.0342C22.8934 5.36496 21.3817 6.29271 20.5838 6.97843C18.1272 9.09207 16.2585 12.44 15.6006 15.9332C15.4046 16.9496 15.4186 19.2166 15.6285 20.3299C15.8245 21.3705 16.0765 22.2337 16.4264 23.105L16.7064 23.7907L16.8324 23.468C17.1473 22.621 17.1473 22.6048 16.9443 22.024C16.4264 20.5315 16.1885 18.6438 16.3284 17.1191C16.4404 15.8928 16.6294 15.078 17.0423 14.1099C18.2951 11.125 20.8148 8.91459 23.8943 8.08365C24.7692 7.8497 26.7079 7.79323 27.6107 7.97071C28.4366 8.14012 29.5144 8.55156 30.2843 8.99526C31.3762 9.62451 32.629 10.6652 33.0349 11.2864L33.2239 11.5607L32.9859 11.9076C32.8529 12.1012 32.622 12.4803 32.482 12.7546C31.6981 14.2632 30.7253 15.0942 29.1925 15.5621C28.6746 15.7234 27.3728 16.0219 25.2591 16.4656C25.0491 16.5059 25.0421 16.4979 24.9301 16.038C24.6642 14.9167 24.5732 14.1099 24.5732 12.7385C24.5662 11.3429 24.6362 10.6571 24.8881 9.55997C24.9651 9.23728 25.0141 8.94686 24.9931 8.93072C24.9581 8.89039 24.1743 9.05173 24.1253 9.1082C24.0553 9.18081 23.8383 10.399 23.7543 11.1331C23.5933 12.6498 23.7613 15.0377 24.1323 16.4253L24.2372 16.7964L23.6003 17.0545C22.0746 17.6676 20.9757 18.4663 19.7999 19.8297C18.3791 21.4754 17.7072 22.9275 17.3083 25.2187C17.0843 26.5175 17.0843 28.5666 17.3083 29.8735C17.8262 32.8665 19.002 35.3835 20.8848 37.5455C22.7325 39.6672 24.2862 40.6757 26.5609 41.2242C27.2048 41.3856 29.3745 41.434 30.0044 41.313L30.3403 41.2484L29.9064 40.8289L29.4655 40.4094L28.7936 40.4417C27.0508 40.4982 25.3501 40.0061 23.7823 38.9896C23.0544 38.5136 21.8226 37.118 21.2767 36.1499C18.988 32.0759 19.107 26.6869 21.5636 22.9033C22.4455 21.548 24.0203 20.0072 25.0351 19.5151L25.2801 19.4021L25.574 19.862C25.735 20.112 26.022 20.5396 26.2179 20.8058C27.2888 22.2822 27.4848 23.8069 27.0578 27.3242C26.9388 28.2923 26.8408 29.2281 26.8408 29.4137V29.7444L26.057 29.696C25.2521 29.6396 24.1603 29.3975 23.3414 29.0748C22.7815 28.8651 21.5357 28.1874 21.0807 27.8486C20.8987 27.7115 20.7308 27.6227 20.7098 27.6389C20.6958 27.6631 20.6468 27.8889 20.6118 28.1471C20.5348 28.7118 20.4788 28.6553 21.6266 29.3169C22.9424 30.0671 24.4472 30.5592 25.742 30.656C26.057 30.6802 26.4139 30.7125 26.5329 30.7367L26.7499 30.769L26.7919 31.8016C26.9738 36.5613 29.4305 40.3288 33.3149 41.8132C34.6307 42.3133 35.2536 42.4182 36.9893 42.4263C38.3611 42.4263 38.6621 42.4021 39.362 42.2407C42.5535 41.4985 45.528 39.4091 47.0468 36.8517C47.9147 35.3835 48.5586 33.5683 48.7825 31.9226L48.8315 31.5838L48.3556 31.9468L47.8797 32.3179L47.5857 33.3344C47.2568 34.5042 47.0048 35.1253 46.4659 36.0773C46.0319 36.8517 45.0871 38.0134 44.4782 38.5217C43.5963 39.2639 42.3785 39.8528 41.0487 40.1836C40.1598 40.4014 38.1861 40.3772 37.2273 40.1432C33.4478 39.2074 30.7113 36.4 29.5774 32.2856C29.3885 31.5999 29.1785 30.4544 29.2345 30.414C29.2485 30.3979 29.5424 30.2769 29.8854 30.1317C30.2353 29.9864 30.6833 29.8009 30.8862 29.7122C31.5091 29.4459 32.279 29.3572 32.9649 29.4701C33.8188 29.6073 34.4487 29.8735 36.1704 30.8255C37.0173 31.2853 37.8292 31.7209 37.9762 31.7935C38.1231 31.8581 38.2491 31.9307 38.2491 31.9468C38.2491 31.9629 38.1721 32.205 38.0811 32.4793C37.5072 34.2541 36.3314 36.1983 35.0996 37.4245C34.8476 37.6746 34.6377 37.9005 34.6237 37.9328C34.6167 37.965 34.7846 38.0941 35.0016 38.2151L35.3866 38.441L35.6595 38.1909C36.0795 37.8037 36.9823 36.6662 37.4232 35.9643C37.9902 35.0366 38.4941 33.9878 38.795 33.0843C39.019 32.3986 39.075 32.3018 39.194 32.3421C40.9927 32.9149 41.9936 33.0843 43.1134 32.9956C45.584 32.7939 47.4387 31.8581 49.1045 29.9622C51.953 26.7272 53.1079 21.9191 52.24 16.9738C52.037 15.8122 51.6591 14.4972 51.2602 13.5856C50.5743 12.0044 49.3214 10.3667 48.0126 9.34216C47.1868 8.69677 46.5499 8.28534 46.5989 8.43055C46.6199 8.49509 46.6898 8.79358 46.7668 9.10014C46.8858 9.63258 46.9068 9.66485 47.3128 9.97947C48.8455 11.1654 50.0703 12.8111 50.7142 14.5536C51.3511 16.2801 51.4981 18.2969 51.1272 20.3621C50.4343 24.2506 47.9427 27.655 44.8281 28.9538C43.7643 29.3975 42.9244 29.5669 41.6086 29.6154C40.7967 29.6476 40.2508 29.6315 39.9849 29.5669L39.5929 29.4701L39.5439 28.373C39.5159 27.7679 39.5089 27.0257 39.5299 26.7272C39.6139 25.5898 40.1178 24.4361 41.0627 23.2099C41.9866 22.0079 43.6453 19.9991 43.7363 19.9749C43.8833 19.9346 45.2901 21.54 45.801 22.3225C46.0599 22.7339 46.4379 23.3874 46.6339 23.7827C46.9838 24.4765 47.4177 25.5817 47.4177 25.7592C47.4177 25.9205 47.5297 25.8479 47.8377 25.4849L48.1386 25.1299L47.9427 24.5571C47.3547 22.8711 46.0389 20.8462 44.6602 19.507L44.2542 19.1036L44.6392 18.4179C45.388 17.1029 45.864 15.796 46.1369 14.3116C46.2349 13.7792 46.2629 13.279 46.2559 12.0931C46.2559 10.6975 46.2349 10.4877 46.0739 9.77779C45.0101 5.25202 41.7206 1.7266 37.4092 0.476161C36.1004 0.096997 34.3227 -0.0885516 33.1049 0.0405257ZM34.3017 13.3597C35.0716 14.7634 35.4915 15.4007 36.0934 16.0542C37.1083 17.1675 38.2211 17.7322 40.1038 18.1033C40.9717 18.2727 41.3916 18.3937 41.4966 18.5147C41.5316 18.547 41.2237 19.0472 40.7897 19.6522C39.3899 21.6206 39.026 22.2902 38.6971 23.5487C38.5221 24.2102 38.5081 24.3958 38.5011 25.6462C38.4941 26.5659 38.5361 27.3323 38.6201 27.9696C38.6831 28.494 38.7181 28.978 38.6831 29.0345C38.6411 29.1232 38.3891 29.0345 37.4792 28.6231C36.0655 27.9696 35.1976 27.7034 34.3297 27.6469C33.1469 27.5663 31.8871 27.9454 30.3753 28.8167C30.0324 29.0103 29.6264 29.2281 29.4794 29.2846L29.2065 29.3975L29.2625 28.3649C29.2975 27.8002 29.3185 26.7918 29.3185 26.1303C29.3045 24.7185 29.1785 24.0328 28.7306 22.9517C28.3456 22.0321 27.9327 21.3786 27.0438 20.3137C26.2319 19.3376 26.078 19.0956 26.2249 19.031C26.2739 19.0068 26.8548 18.8293 27.5127 18.6357C28.1706 18.4421 28.9475 18.1678 29.2415 18.0387C30.3683 17.5386 31.4601 16.5382 32.174 15.3604C32.349 15.07 32.699 14.3923 32.9509 13.8518C33.3499 12.9967 33.6858 12.3755 33.7418 12.3755C33.7488 12.3755 34.0008 12.8192 34.3017 13.3597Z" fill="black"/>
<path d="M15.5166 50.994L15.5376 51.4619H33.9798H52.422L52.443 50.994L52.464 50.5342H33.9798H15.4956L15.5166 50.994Z" fill="#0A0A0A"/>
<path d="M23.1108 59.5453C23.0898 59.5856 22.6489 60.715 22.1309 62.0703C21.613 63.4256 20.9271 65.1843 20.6122 65.983C20.2972 66.7816 19.9893 67.5561 19.9403 67.6933L19.8423 67.9595H20.2202H20.5982L20.7591 67.4109C20.8431 67.1124 21.0671 66.4105 21.2561 65.8539L21.592 64.8374L21.963 64.7809C22.4319 64.7164 23.3488 64.7164 23.8807 64.7809L24.3006 64.8374L24.7625 66.1766C25.0215 66.9107 25.2595 67.6126 25.3015 67.7336C25.3644 67.9514 25.3854 67.9595 25.8964 67.9595C26.1833 67.9595 26.4213 67.9433 26.4213 67.9272C26.4213 67.903 26.1693 67.2415 25.8684 66.4509C25.3505 65.1117 24.0906 61.6831 23.5517 60.1503C23.3418 59.5614 23.2018 59.3678 23.1108 59.5453ZM23.6217 62.869C23.8877 63.587 24.1116 64.192 24.1116 64.2082C24.1116 64.2324 23.6077 64.2485 22.9918 64.2485C22.2499 64.2485 21.872 64.2162 21.872 64.1598C21.872 64.1194 22.1169 63.4256 22.4109 62.627C22.9148 61.2555 22.9568 61.1829 23.0408 61.3685C23.0898 61.4733 23.3488 62.151 23.6217 62.869Z" fill="black"/>
<path d="M35.1698 61.5621C34.7289 62.7076 34.001 64.5873 33.5461 65.741C33.0912 66.8946 32.7202 67.8627 32.7202 67.8949C32.7202 67.9353 32.8812 67.9595 33.0702 67.9595C33.3711 67.9595 33.4341 67.9353 33.4761 67.7739C33.5111 67.6771 33.7351 66.9753 33.98 66.2169L34.421 64.8293L34.7779 64.7809C35.2398 64.7164 36.4507 64.7325 36.8356 64.7971L37.1365 64.8536L37.4725 65.7813C37.6545 66.2895 37.8924 66.9914 37.9974 67.3302L38.2004 67.9595H38.7393H39.2852L38.7043 66.4428C38.3824 65.6119 37.6825 63.7161 37.1365 62.2317C36.5976 60.7392 36.1147 59.521 36.0587 59.5049C35.9957 59.4888 35.7088 60.1584 35.1698 61.5621ZM36.3877 62.6754C36.6816 63.4579 36.9196 64.1275 36.9196 64.1678C36.9196 64.2162 36.4646 64.2485 35.7997 64.2485C35.1838 64.2485 34.6799 64.2243 34.6799 64.2001C34.6799 64.0872 35.7578 61.2636 35.7997 61.2636C35.8277 61.2636 36.0937 61.9009 36.3877 62.6754Z" fill="black"/>
<path d="M56.6562 59.6826C56.5582 59.9891 54.4795 65.3781 53.9406 66.7254L53.4507 67.9435L53.8286 67.9758L54.2066 68L54.3815 67.395C54.4795 67.0642 54.7035 66.3462 54.8855 65.8057L55.2144 64.8215L55.7393 64.765C56.4952 64.6843 57.853 64.7731 57.923 64.9102C57.958 64.9667 58.217 65.6766 58.4899 66.4833L59.0008 67.9597H59.5328H60.0647L59.5468 66.6124C59.1548 65.604 57.2651 60.4813 56.9572 59.5858C56.9012 59.4244 56.7262 59.4728 56.6562 59.6826ZM57.1671 62.6917C57.4681 63.4823 57.706 64.1519 57.706 64.1842C57.706 64.2245 57.2021 64.2487 56.5862 64.2487C55.9703 64.2487 55.4664 64.2245 55.4664 64.2003C55.4664 64.0873 56.5442 61.2638 56.5862 61.2638C56.6072 61.2638 56.8732 61.9092 57.1671 62.6917Z" fill="black"/>
<path d="M0 63.8211V67.9516L0.454931 67.9758L0.909862 68V63.8453V59.6907H0.454931H0V63.8211Z" fill="black"/>
<path d="M3.00977 63.8453V68H3.4647H3.91963V63.8453V59.6907H3.4647H3.00977V63.8453Z" fill="black"/>
<path d="M5.28418 60.0537V60.4248L5.8301 60.3602C6.12405 60.336 6.62798 60.3038 6.94993 60.3038L7.53084 60.2957L7.50984 64.1196L7.48885 67.9516L7.97877 67.9758L8.4687 68L8.4477 64.1438L8.41971 60.2957L9.04261 60.3038C9.37856 60.3038 9.88948 60.336 10.1694 60.3683L10.6734 60.4248V60.0537V59.6907H7.97877H5.28418V60.0537Z" fill="black"/>
<path d="M15.3345 59.9327C15.4045 60.2554 15.4045 67.5482 15.3345 67.7741C15.2855 67.9355 15.3065 67.9516 15.8104 67.9758L16.3353 68L16.2933 66.1203L16.2513 64.2487H16.9162C18.1131 64.2487 18.9109 63.9502 19.4289 63.3048C19.8208 62.8127 19.9328 62.4658 19.9328 61.7398C19.9398 60.7233 19.5898 60.1263 18.8129 59.8278C18.547 59.731 18.148 59.6987 16.8812 59.6987L15.2925 59.6907L15.3345 59.9327ZM18.183 60.2473C18.757 60.4893 18.9599 60.8846 18.9599 61.7882C18.9599 62.6836 18.715 63.208 18.1271 63.5468C17.7981 63.7405 17.1192 63.8534 16.6783 63.7969L16.2723 63.7405V61.9414V60.1344H17.0982C17.6021 60.1424 18.0221 60.1828 18.183 60.2473Z" fill="black"/>
<path d="M27.7861 63.8453V68H29.6968H31.6006V67.645C31.6006 67.3062 31.5936 67.2981 31.4116 67.3465C31.2996 67.3707 30.6557 67.4192 29.9698 67.4434L28.724 67.4998L28.745 63.5952L28.766 59.6907H28.2761H27.7861V63.8453Z" fill="black"/>
<path d="M40.6641 63.8211V67.9516L41.133 67.9758L41.6089 68L41.5599 65.8783C41.5319 64.3858 41.5389 63.7647 41.5949 63.7647C41.6579 63.7647 42.7357 65.1926 44.2545 67.3062L44.7374 67.9839L45.2904 67.9677C45.5913 67.9597 45.8503 67.9355 45.8643 67.9193C45.8783 67.9032 45.1294 66.9028 44.2055 65.6927C43.2747 64.4746 42.5188 63.4662 42.5188 63.442C42.5188 63.3613 44.0935 61.53 44.9474 60.6103L45.8083 59.6907H45.3534L44.8984 59.6987L44.1495 60.6587C43.1627 61.9334 41.7629 63.5226 41.6229 63.5226C41.5319 63.5226 41.5249 63.3048 41.5599 61.6026L41.6089 59.6907H41.14H40.6641V63.8211Z" fill="black"/>
<path d="M47.2432 63.8453V68L47.7541 67.9758L48.258 67.9435L48.23 67.5724C48.153 66.7576 48.111 63.8615 48.174 63.8131C48.265 63.7485 48.629 64.2164 50.0707 66.2091C50.7356 67.1368 51.3235 67.9113 51.3655 67.9274C51.4145 67.9516 51.6945 67.9597 51.9884 67.9435L52.5204 67.9193L52.0514 67.3062C51.7925 66.9674 51.0226 65.959 50.3297 65.0554L49.0839 63.4258L50.2597 62.0786C50.9106 61.3364 51.6665 60.4974 51.9395 60.207L52.4364 59.6907H51.9744H51.5055L51.1276 60.207C50.9176 60.4974 50.1827 61.3848 49.4968 62.1835C48.524 63.321 48.237 63.6114 48.188 63.5226C48.132 63.4178 48.146 61.5461 48.216 60.215L48.244 59.6907H47.7471H47.2432V63.8453Z" fill="black"/>
<path d="M61.3807 60.0538C61.4297 60.5378 61.4577 64.999 61.4227 66.6528L61.3877 67.9678H63.1024C64.4322 67.9759 64.9152 67.9517 65.2861 67.8468C66.5879 67.4918 67.5608 66.4269 67.8897 65.0071C68.0227 64.4343 68.0367 63.0629 67.9247 62.4175C67.6867 61.0944 67.0638 60.2877 65.965 59.8763C65.5451 59.7149 65.3491 59.7069 63.4244 59.6988L61.3457 59.6907L61.3807 60.0538ZM65.0761 60.3038C66.4269 60.6023 67.1268 62.0222 66.9799 64.16C66.8539 66.0317 66.084 67.1691 64.7402 67.4757C64.2783 67.5806 62.5145 67.5564 62.4165 67.4515C62.3466 67.3628 62.3396 60.4087 62.4165 60.328C62.5565 60.1586 64.3622 60.1425 65.0761 60.3038Z" fill="black"/>
</svg>
