<svg width="25" height="25" viewBox="0 0 25 25" fill="none" xmlns="http://www.w3.org/2000/svg">
<path d="M20.5315 11.2177H22.5315C22.5315 6.08775 18.6585 2.21875 13.5215 2.21875V4.21875C17.5835 4.21875 20.5315 7.16175 20.5315 11.2177Z" fill="white"/>
<path d="M13.5315 8.21899C15.6345 8.21899 16.5315 9.11599 16.5315 11.219H18.5315C18.5315 7.99399 16.7565 6.21899 13.5315 6.21899V8.21899ZM16.9535 13.662C16.7614 13.4873 16.5089 13.3942 16.2493 13.4022C15.9898 13.4102 15.7435 13.5188 15.5625 13.705L13.1695 16.166C12.5935 16.056 11.4355 15.695 10.2435 14.506C9.05153 13.313 8.69053 12.152 8.58353 11.58L11.0425 9.18599C11.2289 9.00512 11.3377 8.75881 11.3457 8.4992C11.3537 8.23958 11.2604 7.98703 11.0855 7.79499L7.39053 3.73199C7.21557 3.53935 6.97241 3.42249 6.71268 3.40625C6.45296 3.39 6.19713 3.47565 5.99953 3.64499L3.82953 5.50599C3.65664 5.6795 3.55345 5.91044 3.53953 6.15499C3.52453 6.40499 3.23853 12.327 7.83053 16.921C11.8365 20.926 16.8545 21.219 18.2365 21.219C18.4385 21.219 18.5625 21.213 18.5955 21.211C18.84 21.1973 19.0709 21.0937 19.2435 20.92L21.1035 18.749C21.273 18.5515 21.3588 18.2958 21.3428 18.036C21.3267 17.7763 21.21 17.5331 21.0175 17.358L16.9535 13.662Z" fill="#1D104F"/>
</svg>
