<svg width="25" height="25" viewBox="0 0 25 25" fill="none" xmlns="http://www.w3.org/2000/svg">
<path d="M12.5313 1.71875C10.344 1.72133 8.24709 2.59135 6.70048 4.13797C5.15386 5.68459 4.28384 7.78151 4.28126 9.96875C4.27864 11.7562 4.86249 13.4951 5.94326 14.9188C5.94326 14.9188 6.16826 15.215 6.20501 15.2577L12.5313 22.7188L18.8605 15.254C18.8935 15.2143 19.1193 14.9188 19.1193 14.9188L19.12 14.9165C20.2002 13.4935 20.7838 11.7553 20.7813 9.96875C20.7787 7.78151 19.9087 5.68459 18.362 4.13797C16.8154 2.59135 14.7185 1.72133 12.5313 1.71875ZM12.5313 12.9688C11.9379 12.9688 11.3579 12.7928 10.8645 12.4632C10.3712 12.1335 9.98668 11.665 9.75962 11.1168C9.53256 10.5686 9.47315 9.96542 9.5889 9.38348C9.70466 8.80154 9.99038 8.26699 10.4099 7.84743C10.8295 7.42787 11.364 7.14215 11.946 7.02639C12.5279 6.91064 13.1311 6.97005 13.6793 7.19711C14.2275 7.42417 14.696 7.80869 15.0257 8.30204C15.3553 8.79539 15.5313 9.37541 15.5313 9.96875C15.5303 10.7641 15.2139 11.5266 14.6515 12.089C14.0891 12.6514 13.3266 12.9678 12.5313 12.9688Z" fill="#1D104F"/>
</svg>
