<svg width="29" height="24" viewBox="0 0 29 24" fill="none" xmlns="http://www.w3.org/2000/svg">
<g clip-path="url(#clip0_5377_3531)">
<path d="M5.03846 4.32715C5.03846 4.32715 5.68989 3.78434 6.99274 2.69873C8.2956 1.61312 10.798 1.07031 14.4999 1.07031C18.2018 1.07031 21.3556 2.15592 23.9613 4.32715C26.5671 6.49837 27.8699 9.1263 27.8699 12.2109C27.8699 15.2956 26.5671 17.9235 23.9613 20.0947C21.3556 22.266 18.2018 23.3516 14.4999 23.3516C10.798 23.3516 7.64417 22.266 5.03846 20.0947C2.43274 17.9235 1.12988 15.2956 1.12988 12.2109C1.12988 9.1263 2.43274 6.49837 5.03846 4.32715ZM26.1448 12.2109C26.1448 9.51562 25.0036 7.22461 22.7214 5.33789C20.4391 3.45117 17.6986 2.50781 14.4999 2.50781C11.2652 2.50781 8.51574 3.45866 6.25146 5.36035C3.98719 7.26204 2.85505 9.54557 2.85505 12.2109C2.85505 14.9062 3.99617 17.1973 6.27842 19.084C8.56067 20.9707 11.3012 21.9141 14.4999 21.9141C17.7346 21.9141 20.4841 20.9632 22.7483 19.0615C25.0126 17.1598 26.1448 14.8763 26.1448 12.2109ZM20.1067 16.748C18.669 17.916 16.872 18.5 14.7155 18.5C12.631 18.5 10.8878 17.901 9.48615 16.7031C8.08445 15.5052 7.3836 13.9928 7.3836 12.166C7.3836 10.429 8.08445 8.96908 9.48615 7.78613C10.8878 6.60319 12.622 6.01172 14.6886 6.01172C16.7552 6.01172 18.4354 6.49088 19.7293 7.44922C19.8731 7.56901 19.945 7.70378 19.945 7.85352C19.945 7.97331 19.909 8.07812 19.8371 8.16797L19.3519 8.70703C19.1003 9.03646 18.7948 9.08138 18.4354 8.8418C17.3572 8.12305 16.1172 7.76367 14.7155 7.76367C13.242 7.76367 12.029 8.18294 11.0765 9.02148C10.1241 9.86003 9.64788 10.9082 9.64788 12.166C9.64788 13.4837 10.1331 14.5768 11.1035 15.4453C12.0739 16.3138 13.2959 16.748 14.7695 16.748C16.279 16.748 17.6088 16.3138 18.7589 15.4453C19.0824 15.2057 19.3879 15.2357 19.6754 15.5352L20.1606 16.0293C20.4122 16.2988 20.3942 16.5384 20.1067 16.748Z" fill="white"/>
</g>
<defs>
<clipPath id="clip0_5377_3531">
<rect width="29" height="23" fill="white" transform="matrix(1 0 0 -1 0 23.7109)"/>
</clipPath>
</defs>
</svg>
