<svg width="29" height="23" viewBox="0 0 29 23" fill="none" xmlns="http://www.w3.org/2000/svg">
<path d="M5.03846 3.61621C5.03846 3.61621 5.68989 3.0734 6.99274 1.98779C8.2956 0.902182 10.798 0.359375 14.4999 0.359375C18.2018 0.359375 21.3556 1.44499 23.9613 3.61621C26.5671 5.78744 27.8699 8.41536 27.8699 11.5C27.8699 14.5846 26.5671 17.2126 23.9613 19.3838C21.3556 21.555 18.2018 22.6406 14.4999 22.6406C10.798 22.6406 7.64417 21.555 5.03846 19.3838C2.43274 17.2126 1.12988 14.5846 1.12988 11.5C1.12988 8.41536 2.43274 5.78744 5.03846 3.61621ZM26.1448 11.5C26.1448 8.80469 25.0036 6.51367 22.7214 4.62695C20.4391 2.74023 17.6986 1.79688 14.4999 1.79688C11.2652 1.79688 8.51574 2.74772 6.25146 4.64941C3.98719 6.55111 2.85505 8.83464 2.85505 11.5C2.85505 14.1953 3.99617 16.4863 6.27842 18.373C8.56067 20.2598 11.3012 21.2031 14.4999 21.2031C17.7346 21.2031 20.4841 20.2523 22.7483 18.3506C25.0126 16.4489 26.1448 14.1654 26.1448 11.5ZM20.1067 16.0371C18.669 17.2051 16.872 17.7891 14.7155 17.7891C12.631 17.7891 10.8878 17.1901 9.48615 15.9922C8.08445 14.7943 7.3836 13.2819 7.3836 11.4551C7.3836 9.7181 8.08445 8.25814 9.48615 7.0752C10.8878 5.89225 12.622 5.30078 14.6886 5.30078C16.7552 5.30078 18.4354 5.77995 19.7293 6.73828C19.8731 6.85807 19.945 6.99284 19.945 7.14258C19.945 7.26237 19.909 7.36719 19.8371 7.45703L19.3519 7.99609C19.1003 8.32552 18.7948 8.37044 18.4354 8.13086C17.3572 7.41211 16.1172 7.05273 14.7155 7.05273C13.242 7.05273 12.029 7.472 11.0765 8.31055C10.1241 9.14909 9.64788 10.1973 9.64788 11.4551C9.64788 12.7728 10.1331 13.8659 11.1035 14.7344C12.0739 15.6029 13.2959 16.0371 14.7695 16.0371C16.279 16.0371 17.6088 15.6029 18.7589 14.7344C19.0824 14.4948 19.3879 14.5247 19.6754 14.8242L20.1606 15.3184C20.4122 15.5879 20.3942 15.8275 20.1067 16.0371Z" fill="white"/>
</svg>
