<svg width="27" height="25" viewBox="0 0 27 25" fill="none" xmlns="http://www.w3.org/2000/svg">
<path d="M4.69175 3.93066C4.69175 3.93066 5.29825 3.34066 6.51126 2.16064C7.72427 0.980631 10.0541 0.390625 13.5007 0.390625C16.9473 0.390625 19.8836 1.57064 22.3096 3.93066C24.7356 6.29069 25.9486 9.14714 25.9486 12.5C25.9486 15.8529 24.7356 18.7093 22.3096 21.0693C19.8836 23.4294 16.9473 24.6094 13.5007 24.6094C10.0541 24.6094 7.11776 23.4294 4.69175 21.0693C2.26574 18.7093 1.05273 15.8529 1.05273 12.5C1.05273 9.14714 2.26574 6.29069 4.69175 3.93066ZM24.3424 12.5C24.3424 9.57031 23.28 7.08008 21.1552 5.0293C19.0303 2.97852 16.4788 1.95312 13.5007 1.95312C10.4891 1.95312 7.92922 2.98665 5.8211 5.05371C3.71298 7.12077 2.65892 9.60286 2.65892 12.5C2.65892 15.4297 3.72135 17.9199 5.8462 19.9707C7.97105 22.0215 10.5225 23.0469 13.5007 23.0469C16.5123 23.0469 19.0721 22.0133 21.1803 19.9463C23.2884 17.8792 24.3424 15.3971 24.3424 12.5ZM18.7208 17.4316C17.3823 18.7012 15.7092 19.3359 13.7015 19.3359C11.7606 19.3359 10.1377 18.6849 8.8327 17.3828C7.52768 16.0807 6.87516 14.4368 6.87516 12.4512C6.87516 10.5632 7.52768 8.97624 8.8327 7.69043C10.1377 6.40462 11.7523 5.76172 13.6764 5.76172C15.6004 5.76172 17.1648 6.28255 18.3694 7.32422C18.5033 7.45443 18.5702 7.60091 18.5702 7.76367C18.5702 7.89388 18.5367 8.00781 18.4698 8.10547L18.0181 8.69141C17.7838 9.04948 17.4994 9.09831 17.1648 8.83789C16.1609 8.05664 15.0065 7.66602 13.7015 7.66602C12.3295 7.66602 11.2002 8.12174 10.3134 9.0332C9.42666 9.94466 8.98328 11.084 8.98328 12.4512C8.98328 13.8835 9.43502 15.0716 10.3385 16.0156C11.242 16.9596 12.3797 17.4316 13.7516 17.4316C15.1571 17.4316 16.3952 16.9596 17.466 16.0156C17.7671 15.7552 18.0515 15.7878 18.3192 16.1133L18.771 16.6504C19.0052 16.9434 18.9885 17.2038 18.7208 17.4316Z" fill="white"/>
</svg>
