<svg width="26" height="26" viewBox="0 0 26 26" fill="none" xmlns="http://www.w3.org/2000/svg">
<path d="M21.75 5.83594C21.75 6.87147 20.9105 7.71094 19.875 7.71094C18.8395 7.71094 18 6.87147 18 5.83594C18 4.8004 18.8395 3.96094 19.875 3.96094C20.9105 3.96094 21.75 4.8004 21.75 5.83594Z" fill="white"/>
<path fill-rule="evenodd" clip-rule="evenodd" d="M13 18.9609C16.4518 18.9609 19.25 16.1627 19.25 12.7109C19.25 9.25916 16.4518 6.46094 13 6.46094C9.54822 6.46094 6.75 9.25916 6.75 12.7109C6.75 16.1627 9.54822 18.9609 13 18.9609ZM13 16.4609C15.0711 16.4609 16.75 14.782 16.75 12.7109C16.75 10.6399 15.0711 8.96094 13 8.96094C10.9289 8.96094 9.25 10.6399 9.25 12.7109C9.25 14.782 10.9289 16.4609 13 16.4609Z" fill="white"/>
<path fill-rule="evenodd" clip-rule="evenodd" d="M0.5 12.2109C0.5 8.01054 0.5 5.91035 1.31745 4.30601C2.0365 2.89479 3.18386 1.74744 4.59507 1.02839C6.19941 0.210938 8.29961 0.210938 12.5 0.210938H13.5C17.7004 0.210938 19.8006 0.210938 21.4049 1.02839C22.8161 1.74744 23.9635 2.89479 24.6825 4.30601C25.5 5.91035 25.5 8.01054 25.5 12.2109V13.2109C25.5 17.4113 25.5 19.5115 24.6825 21.1159C23.9635 22.5271 22.8161 23.6744 21.4049 24.3935C19.8006 25.2109 17.7004 25.2109 13.5 25.2109H12.5C8.29961 25.2109 6.19941 25.2109 4.59507 24.3935C3.18386 23.6744 2.0365 22.5271 1.31745 21.1159C0.5 19.5115 0.5 17.4113 0.5 13.2109V12.2109ZM12.5 2.71094H13.5C15.6414 2.71094 17.0972 2.71288 18.2224 2.80482C19.3184 2.89437 19.879 3.05668 20.27 3.2559C21.2108 3.73527 21.9757 4.50017 22.455 5.44099C22.6543 5.83198 22.8166 6.39249 22.9061 7.48853C22.9981 8.61376 23 10.0695 23 12.2109V13.2109C23 15.3524 22.9981 16.8081 22.9061 17.9333C22.8166 19.0294 22.6543 19.5899 22.455 19.9809C21.9757 20.9217 21.2108 21.6866 20.27 22.166C19.879 22.3652 19.3184 22.5275 18.2224 22.6171C17.0972 22.709 15.6414 22.7109 13.5 22.7109H12.5C10.3586 22.7109 8.90282 22.709 7.77759 22.6171C6.68156 22.5275 6.12105 22.3652 5.73005 22.166C4.78924 21.6866 4.02433 20.9217 3.54497 19.9809C3.34574 19.5899 3.18343 19.0294 3.09388 17.9333C3.00194 16.8081 3 15.3524 3 13.2109V12.2109C3 10.0695 3.00194 8.61376 3.09388 7.48853C3.18343 6.39249 3.34574 5.83198 3.54497 5.44099C4.02433 4.50017 4.78924 3.73527 5.73005 3.2559C6.12105 3.05668 6.68156 2.89437 7.77759 2.80482C8.90282 2.71288 10.3586 2.71094 12.5 2.71094Z" fill="white"/>
</svg>
