<svg width="19" height="19" viewBox="0 0 19 19" fill="none" xmlns="http://www.w3.org/2000/svg">
<path d="M4.7732 2.82612C4.7732 3.99431 3.76064 4.94131 2.5116 4.94131C1.26255 4.94131 0.25 3.99431 0.25 2.82612C0.25 1.65794 1.26255 0.710938 2.5116 0.710938C3.76064 0.710938 4.7732 1.65794 4.7732 2.82612Z" fill="white"/>
<path d="M0.559278 6.49606H4.42526V18.2109H0.559278V6.49606Z" fill="white"/>
<path d="M10.6495 6.49606H6.78351V18.2109H10.6495C10.6495 18.2109 10.6495 14.5229 10.6495 12.217C10.6495 10.833 11.1221 9.44286 13.0077 9.44286C15.1388 9.44286 15.1259 11.2541 15.116 12.6573C15.103 14.4915 15.134 16.3633 15.134 18.2109H19V12.0281C18.9673 8.08016 17.9385 6.26104 14.5541 6.26104C12.5442 6.26104 11.2984 7.17351 10.6495 7.99905V6.49606Z" fill="white"/>
</svg>
