<svg width="449" height="54" viewBox="0 0 449 54" fill="none" xmlns="http://www.w3.org/2000/svg">
<g filter="url(#filter0_dd_5377_4362)">
<path d="M431.83 45.2477C429.154 45.2477 426.77 44.7894 424.68 43.8727C422.59 42.9561 420.94 41.7094 419.73 40.1327C418.52 38.5194 417.842 36.7227 417.695 34.7427H426.99C427.1 35.8061 427.595 36.6677 428.475 37.3277C429.355 37.9877 430.437 38.3177 431.72 38.3177C432.894 38.3177 433.792 38.0977 434.415 37.6577C435.075 37.1811 435.405 36.5761 435.405 35.8427C435.405 34.9627 434.947 34.3211 434.03 33.9177C433.114 33.4777 431.629 33.0011 429.575 32.4877C427.375 31.9744 425.542 31.4427 424.075 30.8927C422.609 30.3061 421.344 29.4077 420.28 28.1977C419.217 26.9511 418.685 25.2827 418.685 23.1927C418.685 21.4327 419.162 19.8377 420.115 18.4077C421.105 16.9411 422.535 15.7861 424.405 14.9427C426.312 14.0994 428.567 13.6777 431.17 13.6777C435.02 13.6777 438.045 14.6311 440.245 16.5377C442.482 18.4444 443.765 20.9744 444.095 24.1277H435.405C435.259 23.0644 434.782 22.2211 433.975 21.5977C433.205 20.9744 432.179 20.6627 430.895 20.6627C429.795 20.6627 428.952 20.8827 428.365 21.3227C427.779 21.7261 427.485 22.2944 427.485 23.0277C427.485 23.9077 427.944 24.5677 428.86 25.0077C429.814 25.4477 431.28 25.8877 433.26 26.3277C435.534 26.9144 437.385 27.5011 438.815 28.0877C440.245 28.6377 441.492 29.5544 442.555 30.8377C443.655 32.0844 444.224 33.7711 444.26 35.8977C444.26 37.6944 443.747 39.3077 442.72 40.7377C441.73 42.1311 440.282 43.2311 438.375 44.0377C436.505 44.8444 434.324 45.2477 431.83 45.2477Z" fill="white"/>
</g>
<g filter="url(#filter1_dd_5377_4362)">
<path d="M413.584 28.9677C413.584 29.8477 413.529 30.7644 413.419 31.7177H392.134C392.281 33.6244 392.886 35.0911 393.949 36.1177C395.049 37.1077 396.388 37.6027 397.964 37.6027C400.311 37.6027 401.943 36.6127 402.859 34.6327H412.869C412.356 36.6494 411.421 38.4644 410.064 40.0777C408.744 41.6911 407.076 42.9561 405.059 43.8727C403.043 44.7894 400.788 45.2477 398.294 45.2477C395.288 45.2477 392.611 44.6061 390.264 43.3227C387.918 42.0394 386.084 40.2061 384.764 37.8227C383.444 35.4394 382.784 32.6527 382.784 29.4627C382.784 26.2727 383.426 23.4861 384.709 21.1027C386.029 18.7194 387.863 16.8861 390.209 15.6027C392.556 14.3194 395.251 13.6777 398.294 13.6777C401.264 13.6777 403.904 14.3011 406.214 15.5477C408.524 16.7944 410.321 18.5727 411.604 20.8827C412.924 23.1927 413.584 25.8877 413.584 28.9677ZM403.959 26.4927C403.959 24.8794 403.409 23.5961 402.309 22.6427C401.209 21.6894 399.834 21.2127 398.184 21.2127C396.608 21.2127 395.269 21.6711 394.169 22.5877C393.106 23.5044 392.446 24.8061 392.189 26.4927H403.959Z" fill="white"/>
</g>
<g filter="url(#filter2_dd_5377_4362)">
<path d="M372.364 10.927C370.714 10.927 369.357 10.4503 368.294 9.49695C367.267 8.50695 366.754 7.29696 366.754 5.86696C366.754 4.40029 367.267 3.19029 368.294 2.23695C369.357 1.24695 370.714 0.751953 372.364 0.751953C373.977 0.751953 375.297 1.24695 376.324 2.23695C377.387 3.19029 377.919 4.40029 377.919 5.86696C377.919 7.29696 377.387 8.50695 376.324 9.49695C375.297 10.4503 373.977 10.927 372.364 10.927ZM377.039 14.117V44.807H367.634V14.117H377.039Z" fill="white"/>
</g>
<g filter="url(#filter3_dd_5377_4362)">
<path d="M352.713 19.2321C353.813 17.5454 355.188 16.2254 356.838 15.2721C358.488 14.2821 360.321 13.7871 362.338 13.7871V23.7421H359.753C357.406 23.7421 355.646 24.2554 354.473 25.2821C353.299 26.2721 352.713 28.0321 352.713 30.5621V44.8071H343.308V14.1171H352.713V19.2321Z" fill="white"/>
</g>
<g filter="url(#filter4_dd_5377_4362)">
<path d="M303.309 29.4077C303.309 26.2544 303.895 23.4861 305.069 21.1027C306.279 18.7194 307.91 16.8861 309.964 15.6027C312.017 14.3194 314.309 13.6777 316.839 13.6777C319.002 13.6777 320.89 14.1177 322.504 14.9977C324.154 15.8777 325.419 17.0327 326.299 18.4627V14.1177H335.704V44.8077H326.299V40.4627C325.382 41.8927 324.099 43.0477 322.449 43.9277C320.835 44.8077 318.947 45.2477 316.784 45.2477C314.29 45.2477 312.017 44.6061 309.964 43.3227C307.91 42.0027 306.279 40.1511 305.069 37.7677C303.895 35.3477 303.309 32.5611 303.309 29.4077ZM326.299 29.4627C326.299 27.1161 325.639 25.2644 324.319 23.9077C323.035 22.5511 321.459 21.8727 319.589 21.8727C317.719 21.8727 316.124 22.5511 314.804 23.9077C313.52 25.2277 312.879 27.0611 312.879 29.4077C312.879 31.7544 313.52 33.6244 314.804 35.0177C316.124 36.3744 317.719 37.0527 319.589 37.0527C321.459 37.0527 323.035 36.3744 324.319 35.0177C325.639 33.6611 326.299 31.8094 326.299 29.4627Z" fill="white"/>
</g>
<g filter="url(#filter5_dd_5377_4362)">
<path d="M286.018 13.7871C289.612 13.7871 292.472 14.9604 294.598 17.3071C296.762 19.6171 297.843 22.8071 297.843 26.8771V44.8071H288.493V28.1421C288.493 26.0888 287.962 24.4938 286.898 23.3571C285.835 22.2204 284.405 21.6521 282.608 21.6521C280.812 21.6521 279.382 22.2204 278.318 23.3571C277.255 24.4938 276.723 26.0888 276.723 28.1421V44.8071H267.318V14.1171H276.723V18.1871C277.677 16.8304 278.96 15.7671 280.573 14.9971C282.187 14.1904 284.002 13.7871 286.018 13.7871Z" fill="white"/>
</g>
<g filter="url(#filter6_dd_5377_4362)">
<path d="M245.469 45.2477C242.462 45.2477 239.749 44.6061 237.329 43.3227C234.946 42.0394 233.057 40.2061 231.664 37.8227C230.307 35.4394 229.629 32.6527 229.629 29.4627C229.629 26.3094 230.326 23.5411 231.719 21.1577C233.112 18.7377 235.019 16.8861 237.439 15.6027C239.859 14.3194 242.572 13.6777 245.579 13.6777C248.586 13.6777 251.299 14.3194 253.719 15.6027C256.139 16.8861 258.046 18.7377 259.439 21.1577C260.832 23.5411 261.529 26.3094 261.529 29.4627C261.529 32.6161 260.814 35.4027 259.384 37.8227C257.991 40.2061 256.066 42.0394 253.609 43.3227C251.189 44.6061 248.476 45.2477 245.469 45.2477ZM245.469 37.1077C247.266 37.1077 248.787 36.4477 250.034 35.1277C251.317 33.8077 251.959 31.9194 251.959 29.4627C251.959 27.0061 251.336 25.1177 250.089 23.7977C248.879 22.4777 247.376 21.8177 245.579 21.8177C243.746 21.8177 242.224 22.4777 241.014 23.7977C239.804 25.0811 239.199 26.9694 239.199 29.4627C239.199 31.9194 239.786 33.8077 240.959 35.1277C242.169 36.4477 243.672 37.1077 245.469 37.1077Z" fill="white"/>
</g>
<g filter="url(#filter7_dd_5377_4362)">
<path d="M219.209 10.927C217.559 10.927 216.202 10.4503 215.139 9.49695C214.112 8.50695 213.599 7.29696 213.599 5.86696C213.599 4.40029 214.112 3.19029 215.139 2.23695C216.202 1.24695 217.559 0.751953 219.209 0.751953C220.822 0.751953 222.142 1.24695 223.169 2.23695C224.232 3.19029 224.764 4.40029 224.764 5.86696C224.764 7.29696 224.232 8.50695 223.169 9.49695C222.142 10.4503 220.822 10.927 219.209 10.927ZM223.884 14.117V44.807H214.479V14.117H223.884Z" fill="white"/>
</g>
<g filter="url(#filter8_dd_5377_4362)">
<path d="M195.494 45.2477C192.818 45.2477 190.434 44.7894 188.344 43.8727C186.254 42.9561 184.604 41.7094 183.394 40.1327C182.184 38.5194 181.506 36.7227 181.359 34.7427H190.654C190.764 35.8061 191.259 36.6677 192.139 37.3277C193.019 37.9877 194.101 38.3177 195.384 38.3177C196.558 38.3177 197.456 38.0977 198.079 37.6577C198.739 37.1811 199.069 36.5761 199.069 35.8427C199.069 34.9627 198.611 34.3211 197.694 33.9177C196.778 33.4777 195.293 33.0011 193.239 32.4877C191.039 31.9744 189.206 31.4427 187.739 30.8927C186.273 30.3061 185.008 29.4077 183.944 28.1977C182.881 26.9511 182.349 25.2827 182.349 23.1927C182.349 21.4327 182.826 19.8377 183.779 18.4077C184.769 16.9411 186.199 15.7861 188.069 14.9427C189.976 14.0994 192.231 13.6777 194.834 13.6777C198.684 13.6777 201.709 14.6311 203.909 16.5377C206.146 18.4444 207.429 20.9744 207.759 24.1277H199.069C198.923 23.0644 198.446 22.2211 197.639 21.5977C196.869 20.9744 195.843 20.6627 194.559 20.6627C193.459 20.6627 192.616 20.8827 192.029 21.3227C191.443 21.7261 191.149 22.2944 191.149 23.0277C191.149 23.9077 191.608 24.5677 192.524 25.0077C193.478 25.4477 194.944 25.8877 196.924 26.3277C199.198 26.9144 201.049 27.5011 202.479 28.0877C203.909 28.6377 205.156 29.5544 206.219 30.8377C207.319 32.0844 207.888 33.7711 207.924 35.8977C207.924 37.6944 207.411 39.3077 206.384 40.7377C205.394 42.1311 203.946 43.2311 202.039 44.0377C200.169 44.8444 197.988 45.2477 195.494 45.2477Z" fill="white"/>
</g>
<g filter="url(#filter9_dd_5377_4362)">
<path d="M170.718 10.927C169.068 10.927 167.712 10.4503 166.648 9.49695C165.622 8.50695 165.108 7.29696 165.108 5.86696C165.108 4.40029 165.622 3.19029 166.648 2.23695C167.712 1.24695 169.068 0.751953 170.718 0.751953C172.332 0.751953 173.652 1.24695 174.678 2.23695C175.742 3.19029 176.273 4.40029 176.273 5.86696C176.273 7.29696 175.742 8.50695 174.678 9.49695C173.652 10.4503 172.332 10.927 170.718 10.927ZM175.393 14.117V44.807H165.988V14.117H175.393Z" fill="white"/>
</g>
<g filter="url(#filter10_dd_5377_4362)">
<path d="M161.258 6.19727L147.563 44.8073H135.793L122.098 6.19727H132.108L141.678 35.3473L151.303 6.19727H161.258Z" fill="white"/>
</g>
<g filter="url(#filter11_dd_5377_4362)">
<path d="M97.6375 19.2321C98.7375 17.5454 100.112 16.2254 101.762 15.2721C103.412 14.2821 105.246 13.7871 107.262 13.7871V23.7421H104.677C102.331 23.7421 100.571 24.2554 99.3975 25.2821C98.2241 26.2721 97.6375 28.0321 97.6375 30.5621V44.8071H88.2324V14.1171H97.6375V19.2321Z" fill="white"/>
</g>
<g filter="url(#filter12_dd_5377_4362)">
<path d="M80.6767 14.1172V44.8072H71.2717V40.6272C70.3183 41.9839 69.0167 43.0839 67.3667 43.9272C65.7534 44.7339 63.9567 45.1372 61.9767 45.1372C59.63 45.1372 57.5583 44.6239 55.7617 43.5972C53.965 42.5339 52.5717 41.0122 51.5817 39.0322C50.5917 37.0522 50.0967 34.7239 50.0967 32.0472V14.1172H59.4467V30.7822C59.4467 32.8355 59.9784 34.4305 61.0417 35.5672C62.105 36.7039 63.535 37.2722 65.3317 37.2722C67.165 37.2722 68.6134 36.7039 69.6767 35.5672C70.74 34.4305 71.2717 32.8355 71.2717 30.7822V14.1172H80.6767Z" fill="white"/>
</g>
<g filter="url(#filter13_dd_5377_4362)">
<path d="M24.5943 45.1915C20.9643 45.1915 17.6276 44.3482 14.5843 42.6615C11.5776 40.9748 9.17591 38.6282 7.37924 35.6215C5.61924 32.5781 4.73926 29.1681 4.73926 25.3915C4.73926 21.6148 5.61924 18.2231 7.37924 15.2165C9.17591 12.2098 11.5776 9.86315 14.5843 8.17648C17.6276 6.48982 20.9643 5.64648 24.5943 5.64648C28.2243 5.64648 31.5426 6.48982 34.5493 8.17648C37.5926 9.86315 39.9759 12.2098 41.6992 15.2165C43.4592 18.2231 44.3393 21.6148 44.3393 25.3915C44.3393 29.1681 43.4592 32.5781 41.6992 35.6215C39.9392 38.6282 37.556 40.9748 34.5493 42.6615C31.5426 44.3482 28.2243 45.1915 24.5943 45.1915ZM24.5943 36.6115C27.6743 36.6115 30.1309 35.5848 31.9643 33.5315C33.8343 31.4781 34.7693 28.7648 34.7693 25.3915C34.7693 21.9815 33.8343 19.2682 31.9643 17.2515C30.1309 15.1981 27.6743 14.1715 24.5943 14.1715C21.4776 14.1715 18.9842 15.1798 17.1142 17.1965C15.2809 19.2131 14.3643 21.9448 14.3643 25.3915C14.3643 28.8015 15.2809 31.5331 17.1142 33.5865C18.9842 35.6031 21.4776 36.6115 24.5943 36.6115Z" fill="white"/>
</g>
<defs>
<filter id="filter0_dd_5377_4362" x="413.695" y="13.6777" width="34.5654" height="39.5703" filterUnits="userSpaceOnUse" color-interpolation-filters="sRGB">
<feFlood flood-opacity="0" result="BackgroundImageFix"/>
<feColorMatrix in="SourceAlpha" type="matrix" values="0 0 0 0 0 0 0 0 0 0 0 0 0 0 0 0 0 0 127 0" result="hardAlpha"/>
<feOffset dy="4"/>
<feGaussianBlur stdDeviation="2"/>
<feComposite in2="hardAlpha" operator="out"/>
<feColorMatrix type="matrix" values="0 0 0 0 0 0 0 0 0 0 0 0 0 0 0 0 0 0 0.25 0"/>
<feBlend mode="normal" in2="BackgroundImageFix" result="effect1_dropShadow_5377_4362"/>
<feColorMatrix in="SourceAlpha" type="matrix" values="0 0 0 0 0 0 0 0 0 0 0 0 0 0 0 0 0 0 127 0" result="hardAlpha"/>
<feOffset dy="4"/>
<feGaussianBlur stdDeviation="2"/>
<feComposite in2="hardAlpha" operator="out"/>
<feColorMatrix type="matrix" values="0 0 0 0 0 0 0 0 0 0 0 0 0 0 0 0 0 0 0.25 0"/>
<feBlend mode="normal" in2="effect1_dropShadow_5377_4362" result="effect2_dropShadow_5377_4362"/>
<feBlend mode="normal" in="SourceGraphic" in2="effect2_dropShadow_5377_4362" result="shape"/>
</filter>
<filter id="filter1_dd_5377_4362" x="378.784" y="13.6777" width="38.7998" height="39.5703" filterUnits="userSpaceOnUse" color-interpolation-filters="sRGB">
<feFlood flood-opacity="0" result="BackgroundImageFix"/>
<feColorMatrix in="SourceAlpha" type="matrix" values="0 0 0 0 0 0 0 0 0 0 0 0 0 0 0 0 0 0 127 0" result="hardAlpha"/>
<feOffset dy="4"/>
<feGaussianBlur stdDeviation="2"/>
<feComposite in2="hardAlpha" operator="out"/>
<feColorMatrix type="matrix" values="0 0 0 0 0 0 0 0 0 0 0 0 0 0 0 0 0 0 0.25 0"/>
<feBlend mode="normal" in2="BackgroundImageFix" result="effect1_dropShadow_5377_4362"/>
<feColorMatrix in="SourceAlpha" type="matrix" values="0 0 0 0 0 0 0 0 0 0 0 0 0 0 0 0 0 0 127 0" result="hardAlpha"/>
<feOffset dy="4"/>
<feGaussianBlur stdDeviation="2"/>
<feComposite in2="hardAlpha" operator="out"/>
<feColorMatrix type="matrix" values="0 0 0 0 0 0 0 0 0 0 0 0 0 0 0 0 0 0 0.25 0"/>
<feBlend mode="normal" in2="effect1_dropShadow_5377_4362" result="effect2_dropShadow_5377_4362"/>
<feBlend mode="normal" in="SourceGraphic" in2="effect2_dropShadow_5377_4362" result="shape"/>
</filter>
<filter id="filter2_dd_5377_4362" x="362.754" y="0.751953" width="19.165" height="52.0547" filterUnits="userSpaceOnUse" color-interpolation-filters="sRGB">
<feFlood flood-opacity="0" result="BackgroundImageFix"/>
<feColorMatrix in="SourceAlpha" type="matrix" values="0 0 0 0 0 0 0 0 0 0 0 0 0 0 0 0 0 0 127 0" result="hardAlpha"/>
<feOffset dy="4"/>
<feGaussianBlur stdDeviation="2"/>
<feComposite in2="hardAlpha" operator="out"/>
<feColorMatrix type="matrix" values="0 0 0 0 0 0 0 0 0 0 0 0 0 0 0 0 0 0 0.25 0"/>
<feBlend mode="normal" in2="BackgroundImageFix" result="effect1_dropShadow_5377_4362"/>
<feColorMatrix in="SourceAlpha" type="matrix" values="0 0 0 0 0 0 0 0 0 0 0 0 0 0 0 0 0 0 127 0" result="hardAlpha"/>
<feOffset dy="4"/>
<feGaussianBlur stdDeviation="2"/>
<feComposite in2="hardAlpha" operator="out"/>
<feColorMatrix type="matrix" values="0 0 0 0 0 0 0 0 0 0 0 0 0 0 0 0 0 0 0.25 0"/>
<feBlend mode="normal" in2="effect1_dropShadow_5377_4362" result="effect2_dropShadow_5377_4362"/>
<feBlend mode="normal" in="SourceGraphic" in2="effect2_dropShadow_5377_4362" result="shape"/>
</filter>
<filter id="filter3_dd_5377_4362" x="339.308" y="13.7871" width="27.0303" height="39.0195" filterUnits="userSpaceOnUse" color-interpolation-filters="sRGB">
<feFlood flood-opacity="0" result="BackgroundImageFix"/>
<feColorMatrix in="SourceAlpha" type="matrix" values="0 0 0 0 0 0 0 0 0 0 0 0 0 0 0 0 0 0 127 0" result="hardAlpha"/>
<feOffset dy="4"/>
<feGaussianBlur stdDeviation="2"/>
<feComposite in2="hardAlpha" operator="out"/>
<feColorMatrix type="matrix" values="0 0 0 0 0 0 0 0 0 0 0 0 0 0 0 0 0 0 0.25 0"/>
<feBlend mode="normal" in2="BackgroundImageFix" result="effect1_dropShadow_5377_4362"/>
<feColorMatrix in="SourceAlpha" type="matrix" values="0 0 0 0 0 0 0 0 0 0 0 0 0 0 0 0 0 0 127 0" result="hardAlpha"/>
<feOffset dy="4"/>
<feGaussianBlur stdDeviation="2"/>
<feComposite in2="hardAlpha" operator="out"/>
<feColorMatrix type="matrix" values="0 0 0 0 0 0 0 0 0 0 0 0 0 0 0 0 0 0 0.25 0"/>
<feBlend mode="normal" in2="effect1_dropShadow_5377_4362" result="effect2_dropShadow_5377_4362"/>
<feBlend mode="normal" in="SourceGraphic" in2="effect2_dropShadow_5377_4362" result="shape"/>
</filter>
<filter id="filter4_dd_5377_4362" x="299.309" y="13.6777" width="40.3945" height="39.5703" filterUnits="userSpaceOnUse" color-interpolation-filters="sRGB">
<feFlood flood-opacity="0" result="BackgroundImageFix"/>
<feColorMatrix in="SourceAlpha" type="matrix" values="0 0 0 0 0 0 0 0 0 0 0 0 0 0 0 0 0 0 127 0" result="hardAlpha"/>
<feOffset dy="4"/>
<feGaussianBlur stdDeviation="2"/>
<feComposite in2="hardAlpha" operator="out"/>
<feColorMatrix type="matrix" values="0 0 0 0 0 0 0 0 0 0 0 0 0 0 0 0 0 0 0.25 0"/>
<feBlend mode="normal" in2="BackgroundImageFix" result="effect1_dropShadow_5377_4362"/>
<feColorMatrix in="SourceAlpha" type="matrix" values="0 0 0 0 0 0 0 0 0 0 0 0 0 0 0 0 0 0 127 0" result="hardAlpha"/>
<feOffset dy="4"/>
<feGaussianBlur stdDeviation="2"/>
<feComposite in2="hardAlpha" operator="out"/>
<feColorMatrix type="matrix" values="0 0 0 0 0 0 0 0 0 0 0 0 0 0 0 0 0 0 0.25 0"/>
<feBlend mode="normal" in2="effect1_dropShadow_5377_4362" result="effect2_dropShadow_5377_4362"/>
<feBlend mode="normal" in="SourceGraphic" in2="effect2_dropShadow_5377_4362" result="shape"/>
</filter>
<filter id="filter5_dd_5377_4362" x="263.318" y="13.7871" width="38.5254" height="39.0195" filterUnits="userSpaceOnUse" color-interpolation-filters="sRGB">
<feFlood flood-opacity="0" result="BackgroundImageFix"/>
<feColorMatrix in="SourceAlpha" type="matrix" values="0 0 0 0 0 0 0 0 0 0 0 0 0 0 0 0 0 0 127 0" result="hardAlpha"/>
<feOffset dy="4"/>
<feGaussianBlur stdDeviation="2"/>
<feComposite in2="hardAlpha" operator="out"/>
<feColorMatrix type="matrix" values="0 0 0 0 0 0 0 0 0 0 0 0 0 0 0 0 0 0 0.25 0"/>
<feBlend mode="normal" in2="BackgroundImageFix" result="effect1_dropShadow_5377_4362"/>
<feColorMatrix in="SourceAlpha" type="matrix" values="0 0 0 0 0 0 0 0 0 0 0 0 0 0 0 0 0 0 127 0" result="hardAlpha"/>
<feOffset dy="4"/>
<feGaussianBlur stdDeviation="2"/>
<feComposite in2="hardAlpha" operator="out"/>
<feColorMatrix type="matrix" values="0 0 0 0 0 0 0 0 0 0 0 0 0 0 0 0 0 0 0.25 0"/>
<feBlend mode="normal" in2="effect1_dropShadow_5377_4362" result="effect2_dropShadow_5377_4362"/>
<feBlend mode="normal" in="SourceGraphic" in2="effect2_dropShadow_5377_4362" result="shape"/>
</filter>
<filter id="filter6_dd_5377_4362" x="225.629" y="13.6777" width="39.9004" height="39.5703" filterUnits="userSpaceOnUse" color-interpolation-filters="sRGB">
<feFlood flood-opacity="0" result="BackgroundImageFix"/>
<feColorMatrix in="SourceAlpha" type="matrix" values="0 0 0 0 0 0 0 0 0 0 0 0 0 0 0 0 0 0 127 0" result="hardAlpha"/>
<feOffset dy="4"/>
<feGaussianBlur stdDeviation="2"/>
<feComposite in2="hardAlpha" operator="out"/>
<feColorMatrix type="matrix" values="0 0 0 0 0 0 0 0 0 0 0 0 0 0 0 0 0 0 0.25 0"/>
<feBlend mode="normal" in2="BackgroundImageFix" result="effect1_dropShadow_5377_4362"/>
<feColorMatrix in="SourceAlpha" type="matrix" values="0 0 0 0 0 0 0 0 0 0 0 0 0 0 0 0 0 0 127 0" result="hardAlpha"/>
<feOffset dy="4"/>
<feGaussianBlur stdDeviation="2"/>
<feComposite in2="hardAlpha" operator="out"/>
<feColorMatrix type="matrix" values="0 0 0 0 0 0 0 0 0 0 0 0 0 0 0 0 0 0 0.25 0"/>
<feBlend mode="normal" in2="effect1_dropShadow_5377_4362" result="effect2_dropShadow_5377_4362"/>
<feBlend mode="normal" in="SourceGraphic" in2="effect2_dropShadow_5377_4362" result="shape"/>
</filter>
<filter id="filter7_dd_5377_4362" x="209.599" y="0.751953" width="19.165" height="52.0547" filterUnits="userSpaceOnUse" color-interpolation-filters="sRGB">
<feFlood flood-opacity="0" result="BackgroundImageFix"/>
<feColorMatrix in="SourceAlpha" type="matrix" values="0 0 0 0 0 0 0 0 0 0 0 0 0 0 0 0 0 0 127 0" result="hardAlpha"/>
<feOffset dy="4"/>
<feGaussianBlur stdDeviation="2"/>
<feComposite in2="hardAlpha" operator="out"/>
<feColorMatrix type="matrix" values="0 0 0 0 0 0 0 0 0 0 0 0 0 0 0 0 0 0 0.25 0"/>
<feBlend mode="normal" in2="BackgroundImageFix" result="effect1_dropShadow_5377_4362"/>
<feColorMatrix in="SourceAlpha" type="matrix" values="0 0 0 0 0 0 0 0 0 0 0 0 0 0 0 0 0 0 127 0" result="hardAlpha"/>
<feOffset dy="4"/>
<feGaussianBlur stdDeviation="2"/>
<feComposite in2="hardAlpha" operator="out"/>
<feColorMatrix type="matrix" values="0 0 0 0 0 0 0 0 0 0 0 0 0 0 0 0 0 0 0.25 0"/>
<feBlend mode="normal" in2="effect1_dropShadow_5377_4362" result="effect2_dropShadow_5377_4362"/>
<feBlend mode="normal" in="SourceGraphic" in2="effect2_dropShadow_5377_4362" result="shape"/>
</filter>
<filter id="filter8_dd_5377_4362" x="177.359" y="13.6777" width="34.5654" height="39.5703" filterUnits="userSpaceOnUse" color-interpolation-filters="sRGB">
<feFlood flood-opacity="0" result="BackgroundImageFix"/>
<feColorMatrix in="SourceAlpha" type="matrix" values="0 0 0 0 0 0 0 0 0 0 0 0 0 0 0 0 0 0 127 0" result="hardAlpha"/>
<feOffset dy="4"/>
<feGaussianBlur stdDeviation="2"/>
<feComposite in2="hardAlpha" operator="out"/>
<feColorMatrix type="matrix" values="0 0 0 0 0 0 0 0 0 0 0 0 0 0 0 0 0 0 0.25 0"/>
<feBlend mode="normal" in2="BackgroundImageFix" result="effect1_dropShadow_5377_4362"/>
<feColorMatrix in="SourceAlpha" type="matrix" values="0 0 0 0 0 0 0 0 0 0 0 0 0 0 0 0 0 0 127 0" result="hardAlpha"/>
<feOffset dy="4"/>
<feGaussianBlur stdDeviation="2"/>
<feComposite in2="hardAlpha" operator="out"/>
<feColorMatrix type="matrix" values="0 0 0 0 0 0 0 0 0 0 0 0 0 0 0 0 0 0 0.25 0"/>
<feBlend mode="normal" in2="effect1_dropShadow_5377_4362" result="effect2_dropShadow_5377_4362"/>
<feBlend mode="normal" in="SourceGraphic" in2="effect2_dropShadow_5377_4362" result="shape"/>
</filter>
<filter id="filter9_dd_5377_4362" x="161.108" y="0.751953" width="19.165" height="52.0547" filterUnits="userSpaceOnUse" color-interpolation-filters="sRGB">
<feFlood flood-opacity="0" result="BackgroundImageFix"/>
<feColorMatrix in="SourceAlpha" type="matrix" values="0 0 0 0 0 0 0 0 0 0 0 0 0 0 0 0 0 0 127 0" result="hardAlpha"/>
<feOffset dy="4"/>
<feGaussianBlur stdDeviation="2"/>
<feComposite in2="hardAlpha" operator="out"/>
<feColorMatrix type="matrix" values="0 0 0 0 0 0 0 0 0 0 0 0 0 0 0 0 0 0 0.25 0"/>
<feBlend mode="normal" in2="BackgroundImageFix" result="effect1_dropShadow_5377_4362"/>
<feColorMatrix in="SourceAlpha" type="matrix" values="0 0 0 0 0 0 0 0 0 0 0 0 0 0 0 0 0 0 127 0" result="hardAlpha"/>
<feOffset dy="4"/>
<feGaussianBlur stdDeviation="2"/>
<feComposite in2="hardAlpha" operator="out"/>
<feColorMatrix type="matrix" values="0 0 0 0 0 0 0 0 0 0 0 0 0 0 0 0 0 0 0.25 0"/>
<feBlend mode="normal" in2="effect1_dropShadow_5377_4362" result="effect2_dropShadow_5377_4362"/>
<feBlend mode="normal" in="SourceGraphic" in2="effect2_dropShadow_5377_4362" result="shape"/>
</filter>
<filter id="filter10_dd_5377_4362" x="118.098" y="6.19727" width="47.1602" height="46.6094" filterUnits="userSpaceOnUse" color-interpolation-filters="sRGB">
<feFlood flood-opacity="0" result="BackgroundImageFix"/>
<feColorMatrix in="SourceAlpha" type="matrix" values="0 0 0 0 0 0 0 0 0 0 0 0 0 0 0 0 0 0 127 0" result="hardAlpha"/>
<feOffset dy="4"/>
<feGaussianBlur stdDeviation="2"/>
<feComposite in2="hardAlpha" operator="out"/>
<feColorMatrix type="matrix" values="0 0 0 0 0 0 0 0 0 0 0 0 0 0 0 0 0 0 0.25 0"/>
<feBlend mode="normal" in2="BackgroundImageFix" result="effect1_dropShadow_5377_4362"/>
<feColorMatrix in="SourceAlpha" type="matrix" values="0 0 0 0 0 0 0 0 0 0 0 0 0 0 0 0 0 0 127 0" result="hardAlpha"/>
<feOffset dy="4"/>
<feGaussianBlur stdDeviation="2"/>
<feComposite in2="hardAlpha" operator="out"/>
<feColorMatrix type="matrix" values="0 0 0 0 0 0 0 0 0 0 0 0 0 0 0 0 0 0 0.25 0"/>
<feBlend mode="normal" in2="effect1_dropShadow_5377_4362" result="effect2_dropShadow_5377_4362"/>
<feBlend mode="normal" in="SourceGraphic" in2="effect2_dropShadow_5377_4362" result="shape"/>
</filter>
<filter id="filter11_dd_5377_4362" x="84.2324" y="13.7871" width="27.0303" height="39.0195" filterUnits="userSpaceOnUse" color-interpolation-filters="sRGB">
<feFlood flood-opacity="0" result="BackgroundImageFix"/>
<feColorMatrix in="SourceAlpha" type="matrix" values="0 0 0 0 0 0 0 0 0 0 0 0 0 0 0 0 0 0 127 0" result="hardAlpha"/>
<feOffset dy="4"/>
<feGaussianBlur stdDeviation="2"/>
<feComposite in2="hardAlpha" operator="out"/>
<feColorMatrix type="matrix" values="0 0 0 0 0 0 0 0 0 0 0 0 0 0 0 0 0 0 0.25 0"/>
<feBlend mode="normal" in2="BackgroundImageFix" result="effect1_dropShadow_5377_4362"/>
<feColorMatrix in="SourceAlpha" type="matrix" values="0 0 0 0 0 0 0 0 0 0 0 0 0 0 0 0 0 0 127 0" result="hardAlpha"/>
<feOffset dy="4"/>
<feGaussianBlur stdDeviation="2"/>
<feComposite in2="hardAlpha" operator="out"/>
<feColorMatrix type="matrix" values="0 0 0 0 0 0 0 0 0 0 0 0 0 0 0 0 0 0 0.25 0"/>
<feBlend mode="normal" in2="effect1_dropShadow_5377_4362" result="effect2_dropShadow_5377_4362"/>
<feBlend mode="normal" in="SourceGraphic" in2="effect2_dropShadow_5377_4362" result="shape"/>
</filter>
<filter id="filter12_dd_5377_4362" x="46.0967" y="14.1172" width="38.5801" height="39.0195" filterUnits="userSpaceOnUse" color-interpolation-filters="sRGB">
<feFlood flood-opacity="0" result="BackgroundImageFix"/>
<feColorMatrix in="SourceAlpha" type="matrix" values="0 0 0 0 0 0 0 0 0 0 0 0 0 0 0 0 0 0 127 0" result="hardAlpha"/>
<feOffset dy="4"/>
<feGaussianBlur stdDeviation="2"/>
<feComposite in2="hardAlpha" operator="out"/>
<feColorMatrix type="matrix" values="0 0 0 0 0 0 0 0 0 0 0 0 0 0 0 0 0 0 0.25 0"/>
<feBlend mode="normal" in2="BackgroundImageFix" result="effect1_dropShadow_5377_4362"/>
<feColorMatrix in="SourceAlpha" type="matrix" values="0 0 0 0 0 0 0 0 0 0 0 0 0 0 0 0 0 0 127 0" result="hardAlpha"/>
<feOffset dy="4"/>
<feGaussianBlur stdDeviation="2"/>
<feComposite in2="hardAlpha" operator="out"/>
<feColorMatrix type="matrix" values="0 0 0 0 0 0 0 0 0 0 0 0 0 0 0 0 0 0 0.25 0"/>
<feBlend mode="normal" in2="effect1_dropShadow_5377_4362" result="effect2_dropShadow_5377_4362"/>
<feBlend mode="normal" in="SourceGraphic" in2="effect2_dropShadow_5377_4362" result="shape"/>
</filter>
<filter id="filter13_dd_5377_4362" x="0.739258" y="5.64648" width="47.5996" height="47.5449" filterUnits="userSpaceOnUse" color-interpolation-filters="sRGB">
<feFlood flood-opacity="0" result="BackgroundImageFix"/>
<feColorMatrix in="SourceAlpha" type="matrix" values="0 0 0 0 0 0 0 0 0 0 0 0 0 0 0 0 0 0 127 0" result="hardAlpha"/>
<feOffset dy="4"/>
<feGaussianBlur stdDeviation="2"/>
<feComposite in2="hardAlpha" operator="out"/>
<feColorMatrix type="matrix" values="0 0 0 0 0 0 0 0 0 0 0 0 0 0 0 0 0 0 0.25 0"/>
<feBlend mode="normal" in2="BackgroundImageFix" result="effect1_dropShadow_5377_4362"/>
<feColorMatrix in="SourceAlpha" type="matrix" values="0 0 0 0 0 0 0 0 0 0 0 0 0 0 0 0 0 0 127 0" result="hardAlpha"/>
<feOffset dy="4"/>
<feGaussianBlur stdDeviation="2"/>
<feComposite in2="hardAlpha" operator="out"/>
<feColorMatrix type="matrix" values="0 0 0 0 0 0 0 0 0 0 0 0 0 0 0 0 0 0 0.25 0"/>
<feBlend mode="normal" in2="effect1_dropShadow_5377_4362" result="effect2_dropShadow_5377_4362"/>
<feBlend mode="normal" in="SourceGraphic" in2="effect2_dropShadow_5377_4362" result="shape"/>
</filter>
</defs>
</svg>
