<svg width="469" height="192" viewBox="0 0 469 192" fill="none" xmlns="http://www.w3.org/2000/svg">
<path fill-rule="evenodd" clip-rule="evenodd" d="M17.5249 0H451.475C461.154 0 469 6.4471 469 14.4V177.6C469 185.553 461.154 192 451.475 192H17.5249C7.84616 192 0 185.553 0 177.6V14.4C0 6.4471 7.84617 0 17.5249 0ZM17.5249 0.685714C8.30706 0.685714 0.83452 6.82581 0.83452 14.4V177.6C0.83452 185.174 8.30705 191.314 17.5249 191.314H451.475C460.693 191.314 468.165 185.174 468.165 177.6V14.4C468.165 6.82581 460.693 0.685714 451.475 0.685714H17.5249Z" fill="white"/>
</svg>
