<svg width="1920" height="272" viewBox="0 0 1920 272" fill="none" xmlns="http://www.w3.org/2000/svg">
<path d="M0.5 9.99999C0.5 4.75329 4.75329 0.5 10 0.5H1910C1915.25 0.5 1919.5 4.7533 1919.5 10V262C1919.5 267.247 1915.25 271.5 1910 271.5H9.99996C4.75326 271.5 0.5 267.247 0.5 262V9.99999Z" fill="url(#paint0_linear_5415_5625)"/>
<path d="M0.5 9.99999C0.5 4.75329 4.75329 0.5 10 0.5H1910C1915.25 0.5 1919.5 4.7533 1919.5 10V262C1919.5 267.247 1915.25 271.5 1910 271.5H9.99996C4.75326 271.5 0.5 267.247 0.5 262V9.99999Z" stroke="white"/>
<path d="M0.5 9.99999C0.5 4.75329 4.75329 0.5 10 0.5H1910C1915.25 0.5 1919.5 4.7533 1919.5 10V262C1919.5 267.247 1915.25 271.5 1910 271.5H9.99996C4.75326 271.5 0.5 267.247 0.5 262V9.99999Z" stroke="white" stroke-opacity="0.2"/>
<defs>
<linearGradient id="paint0_linear_5415_5625" x1="0" y1="136" x2="1920" y2="136" gradientUnits="userSpaceOnUse">
<stop stop-color="#A3A3A3" stop-opacity="0.01"/>
<stop offset="1" stop-color="#2D1E6B"/>
</linearGradient>
</defs>
</svg>
