<svg width="48" height="45" viewBox="0 0 48 45" fill="none" xmlns="http://www.w3.org/2000/svg">
<g clip-path="url(#clip0_5377_4332)">
<path d="M44.4567 0H3.54333C2.60358 0 1.70232 0.349983 1.03782 0.972955C0.373315 1.59593 0 2.44086 0 3.32188V41.6781C0 42.5591 0.373315 43.4041 1.03782 44.0271C1.70232 44.65 2.60358 45 3.54333 45H44.4567C45.3964 45 46.2977 44.65 46.9622 44.0271C47.6267 43.4041 48 42.5591 48 41.6781V3.32188C48 2.44086 47.6267 1.59593 46.9622 0.972955C46.2977 0.349983 45.3964 0 44.4567 0ZM14.3067 38.3344H7.09V16.8438H14.3067V38.3344ZM10.6933 13.8656C9.87473 13.8613 9.07583 13.6297 8.39747 13.2002C7.71911 12.7706 7.19168 12.1622 6.88175 11.4519C6.57183 10.7416 6.4933 9.96111 6.65606 9.20898C6.81883 8.45685 7.2156 7.76677 7.79631 7.22584C8.37702 6.68491 9.11563 6.31738 9.91893 6.16961C10.7222 6.02185 11.5542 6.10049 12.3099 6.3956C13.0656 6.69071 13.7111 7.18906 14.1649 7.82777C14.6188 8.46648 14.8606 9.21692 14.86 9.98438C14.8677 10.4982 14.765 11.0082 14.558 11.484C14.351 11.9598 14.044 12.3917 13.6551 12.7539C13.2663 13.1161 12.8037 13.4012 12.2948 13.5922C11.786 13.7832 11.2413 13.8762 10.6933 13.8656ZM40.9067 38.3531H33.6933V26.6125C33.6933 23.15 32.1233 22.0813 30.0967 22.0813C27.9567 22.0813 25.8567 23.5938 25.8567 26.7V38.3531H18.64V16.8594H25.58V19.8375H25.6733C26.37 18.5156 28.81 16.2563 32.5333 16.2563C36.56 16.2563 40.91 18.4969 40.91 25.0594L40.9067 38.3531Z" fill="#6461F8"/>
</g>
<defs>
<clipPath id="clip0_5377_4332">
<rect width="48" height="45" fill="white"/>
</clipPath>
</defs>
</svg>
