<svg width="43" height="41" viewBox="0 0 43 41" fill="none" xmlns="http://www.w3.org/2000/svg">
<g clip-path="url(#clip0_5377_3526)">
<path d="M42.8571 20.7109C42.8571 9.66534 33.2631 0.710938 21.4286 0.710938C9.594 0.710938 0 9.66534 0 20.7109C0 30.0901 6.91886 37.9605 16.2523 40.1221V26.8229H11.8337V20.7109H16.2523V18.0773C16.2523 11.2701 19.5531 8.11494 26.7137 8.11494C28.0714 8.11494 30.414 8.36374 31.3723 8.61174V14.1517C30.8666 14.1021 29.988 14.0773 28.8969 14.0773C25.3834 14.0773 24.0257 15.3197 24.0257 18.5493V20.7109H31.0251L29.8226 26.8229H24.0257V40.5645C34.6363 39.3685 42.858 30.9365 42.858 20.7109H42.8571Z" fill="#0866FF"/>
<path d="M29.8219 26.8232L31.0244 20.7112H24.025V18.5496C24.025 15.32 25.3827 14.0776 28.8962 14.0776C29.9873 14.0776 30.8659 14.1024 31.3716 14.152V8.61203C30.4133 8.36323 28.0707 8.11523 26.713 8.11523C19.5524 8.11523 16.2516 11.2704 16.2516 18.0776V20.7112H11.833V26.8232H16.2516V40.1224C17.9093 40.5064 19.6433 40.7112 21.4279 40.7112C22.3064 40.7112 23.173 40.6608 24.0242 40.5648V26.8232H29.821H29.8219Z" fill="white"/>
</g>
<defs>
<clipPath id="clip0_5377_3526">
<rect width="42.8571" height="40" fill="white" transform="translate(0 0.710938)"/>
</clipPath>
</defs>
</svg>
