<svg width="45" height="42" viewBox="0 0 45 42" fill="none" xmlns="http://www.w3.org/2000/svg">
<g clip-path="url(#clip0_5415_5632)">
<path d="M41.6781 0H3.32188C2.44086 0 1.59593 0.326651 0.972955 0.908092C0.349983 1.48953 0 2.27814 0 3.10042V38.8996C0 39.7219 0.349983 40.5105 0.972955 41.0919C1.59593 41.6734 2.44086 42 3.32188 42H41.6781C42.5591 42 43.4041 41.6734 44.0271 41.0919C44.65 40.5105 45 39.7219 45 38.8996V3.10042C45 2.27814 44.65 1.48953 44.0271 0.908092C43.4041 0.326651 42.5591 0 41.6781 0ZM13.4125 35.7787H6.64688V15.7208H13.4125V35.7787ZM10.025 12.9413C9.25756 12.9372 8.50859 12.7211 7.87263 12.3202C7.23666 11.9192 6.7422 11.3514 6.45165 10.6885C6.16109 10.0255 6.08746 9.29704 6.24006 8.59505C6.39265 7.89306 6.76463 7.24898 7.30904 6.74412C7.85345 6.23925 8.5459 5.89622 9.299 5.75831C10.0521 5.62039 10.8321 5.69379 11.5405 5.96922C12.249 6.24466 12.8541 6.70979 13.2796 7.30592C13.7051 7.90205 13.9319 8.60246 13.9313 9.31875C13.9385 9.79831 13.8422 10.2743 13.6481 10.7184C13.4541 11.1625 13.1662 11.5656 12.8017 11.9036C12.4372 12.2417 12.0035 12.5077 11.5264 12.686C11.0494 12.8643 10.5388 12.9511 10.025 12.9413ZM38.35 35.7962H31.5875V24.8383C31.5875 21.6067 30.1156 20.6092 28.2156 20.6092C26.2094 20.6092 24.2406 22.0208 24.2406 24.92V35.7962H17.475V15.7354H23.9813V18.515H24.0688C24.7219 17.2813 27.0094 15.1725 30.5 15.1725C34.275 15.1725 38.3531 17.2638 38.3531 23.3888L38.35 35.7962Z" fill="#6461F8"/>
</g>
<defs>
<clipPath id="clip0_5415_5632">
<rect width="45" height="42" fill="white"/>
</clipPath>
</defs>
</svg>
