<svg width="48" height="44" viewBox="0 0 48 44" fill="none" xmlns="http://www.w3.org/2000/svg">
<g clip-path="url(#clip0_5377_4330)">
<path d="M44.4567 0H3.54333C2.60358 0 1.70232 0.342205 1.03782 0.951334C0.373315 1.56046 0 2.38662 0 3.24806V40.7519C0 41.6134 0.373315 42.4395 1.03782 43.0487C1.70232 43.6578 2.60358 44 3.54333 44H44.4567C45.3964 44 46.2977 43.6578 46.9622 43.0487C47.6267 42.4395 48 41.6134 48 40.7519V3.24806C48 2.38662 47.6267 1.56046 46.9622 0.951334C46.2977 0.342205 45.3964 0 44.4567 0ZM14.3067 37.4825H7.09V16.4694H14.3067V37.4825ZM10.6933 13.5575C9.87473 13.5533 9.07583 13.3269 8.39747 12.9068C7.71911 12.4868 7.19168 11.892 6.88175 11.1974C6.57183 10.5029 6.4933 9.73975 6.65606 9.00433C6.81883 8.26892 7.2156 7.59417 7.79631 7.06527C8.37702 6.53636 9.11563 6.17699 9.91893 6.03251C10.7222 5.88803 11.5542 5.96492 12.3099 6.25347C13.0656 6.54203 13.7111 7.02931 14.1649 7.65382C14.6188 8.27834 14.8606 9.0121 14.86 9.7625C14.8677 10.2649 14.765 10.7636 14.558 11.2288C14.351 11.694 14.044 12.1163 13.6551 12.4705C13.2663 12.8246 12.8037 13.1034 12.2948 13.2901C11.786 13.4769 11.2413 13.5678 10.6933 13.5575ZM40.9067 37.5008H33.6933V26.0211C33.6933 22.6356 32.1233 21.5906 30.0967 21.5906C27.9567 21.5906 25.8567 23.0694 25.8567 26.1067V37.5008H18.64V16.4847H25.58V19.3967H25.6733C26.37 18.1042 28.81 15.895 32.5333 15.895C36.56 15.895 40.91 18.0858 40.91 24.5025L40.9067 37.5008Z" fill="#6461F8"/>
</g>
<defs>
<clipPath id="clip0_5377_4330">
<rect width="48" height="44" fill="white"/>
</clipPath>
</defs>
</svg>
