<svg width="45" height="42" viewBox="0 0 45 42" fill="none" xmlns="http://www.w3.org/2000/svg">
<g clip-path="url(#clip0_5415_5667)">
<path d="M45 21C45 9.40212 34.9263 0 22.5 0C10.0737 0 0 9.40212 0 21C0 30.8482 7.2648 39.1121 17.0649 41.3818V27.4176H12.4254V21H17.0649V18.2347C17.0649 11.0872 20.5308 7.7742 28.0494 7.7742C29.475 7.7742 31.9347 8.03544 32.9409 8.29584V14.1128C32.4099 14.0608 31.4874 14.0347 30.3417 14.0347C26.6526 14.0347 25.227 15.3392 25.227 18.7303V21H32.5764L31.3137 27.4176H25.227V41.8463C36.3681 40.5905 45.0009 31.7369 45.0009 21H45Z" fill="#0866FF"/>
<path d="M31.3121 27.4168L32.5748 20.9992H25.2254V18.7296C25.2254 15.3385 26.651 14.034 30.3401 14.034C31.4858 14.034 32.4083 14.06 32.9393 14.1121V8.29508C31.9331 8.03384 29.4734 7.77344 28.0478 7.77344C20.5292 7.77344 17.0633 11.0864 17.0633 18.234V20.9992H12.4238V27.4168H17.0633V41.381C18.8039 41.7842 20.6246 41.9992 22.4984 41.9992C23.4209 41.9992 24.3308 41.9463 25.2245 41.8455V27.4168H31.3112H31.3121Z" fill="white"/>
</g>
<defs>
<clipPath id="clip0_5415_5667">
<rect width="45" height="42" fill="white"/>
</clipPath>
</defs>
</svg>
