<svg width="43" height="40" viewBox="0 0 43 40" fill="none" xmlns="http://www.w3.org/2000/svg">
<g clip-path="url(#clip0_5384_2742)">
<path d="M43 20C43 8.9544 33.374 0 21.5 0C9.62598 0 0 8.9544 0 20C0 29.3792 6.94192 37.2496 16.3065 39.4112V26.112H11.8732V20H16.3065V17.3664C16.3065 10.5592 19.6183 7.404 26.8028 7.404C28.165 7.404 30.5154 7.6528 31.4769 7.9008V13.4408C30.9695 13.3912 30.088 13.3664 28.9932 13.3664C25.468 13.3664 24.1058 14.6088 24.1058 17.8384V20H31.1286L29.922 26.112H24.1058V39.8536C34.7517 38.6576 43.0009 30.2256 43.0009 20H43Z" fill="#0866FF"/>
<path d="M29.9209 26.1123L31.1275 20.0003H24.1047V17.8387C24.1047 14.6091 25.467 13.3667 28.9921 13.3667C30.0869 13.3667 30.9684 13.3915 31.4758 13.4411V7.9011C30.5143 7.6523 28.1639 7.4043 26.8017 7.4043C19.6172 7.4043 16.3054 10.5595 16.3054 17.3667V20.0003H11.8721V26.1123H16.3054V39.4115C17.9686 39.7955 19.7084 40.0003 21.4989 40.0003C22.3804 40.0003 23.2499 39.9499 24.1039 39.8539V26.1123H29.92H29.9209Z" fill="white"/>
</g>
<defs>
<clipPath id="clip0_5384_2742">
<rect width="43" height="40" fill="white"/>
</clipPath>
</defs>
</svg>
