<svg width="45" height="42" viewBox="0 0 45 42" fill="none" xmlns="http://www.w3.org/2000/svg">
<g clip-path="url(#clip0_5415_5668)">
<path d="M22.5 3.78164C28.5117 3.78164 29.2236 3.80625 31.5879 3.90469C33.7852 3.99492 34.9717 4.33945 35.7627 4.62656C36.8086 5.00391 37.5645 5.46328 38.3467 6.19336C39.1377 6.93164 39.6211 7.62891 40.0254 8.60508C40.333 9.34336 40.7022 10.459 40.7988 12.5016C40.9043 14.7164 40.9307 15.3809 40.9307 20.9836C40.9307 26.5945 40.9043 27.259 40.7988 29.4656C40.7022 31.5164 40.333 32.6238 40.0254 33.3621C39.6211 34.3383 39.1289 35.0438 38.3467 35.7738C37.5557 36.5121 36.8086 36.9633 35.7627 37.3406C34.9717 37.6277 33.7764 37.9723 31.5879 38.0625C29.2148 38.1609 28.5029 38.1855 22.5 38.1855C16.4883 38.1855 15.7764 38.1609 13.4121 38.0625C11.2148 37.9723 10.0283 37.6277 9.23731 37.3406C8.19141 36.9633 7.43555 36.5039 6.65332 35.7738C5.8623 35.0355 5.37891 34.3383 4.97461 33.3621C4.66699 32.6238 4.29785 31.5082 4.20117 29.4656C4.0957 27.2508 4.06934 26.5863 4.06934 20.9836C4.06934 15.3727 4.0957 14.7082 4.20117 12.5016C4.29785 10.4508 4.66699 9.34336 4.97461 8.60508C5.37891 7.62891 5.87109 6.92344 6.65332 6.19336C7.44434 5.45508 8.19141 5.00391 9.23731 4.62656C10.0283 4.33945 11.2236 3.99492 13.4121 3.90469C15.7764 3.80625 16.4883 3.78164 22.5 3.78164ZM22.5 0C16.3916 0 15.627 0.0246094 13.2275 0.123047C10.8369 0.221484 9.19336 0.582422 7.76953 1.09922C6.28418 1.64062 5.02734 2.3543 3.7793 3.52734C2.52246 4.69219 1.75781 5.86524 1.17773 7.24336C0.624023 8.58047 0.237305 10.1062 0.131836 12.3375C0.0263672 14.5852 0 15.2988 0 21C0 26.7012 0.0263672 27.4148 0.131836 29.6543C0.237305 31.8855 0.624023 33.4195 1.17773 34.7484C1.75781 36.1348 2.52246 37.3078 3.7793 38.4727C5.02734 39.6375 6.28418 40.3594 7.76074 40.8926C9.19336 41.4094 10.8281 41.7703 13.2188 41.8687C15.6182 41.9672 16.3828 41.9918 22.4912 41.9918C28.5996 41.9918 29.3643 41.9672 31.7637 41.8687C34.1543 41.7703 35.7979 41.4094 37.2217 40.8926C38.6982 40.3594 39.9551 39.6375 41.2031 38.4727C42.4512 37.3078 43.2246 36.1348 43.7959 34.7566C44.3496 33.4195 44.7363 31.8938 44.8418 29.6625C44.9473 27.423 44.9736 26.7094 44.9736 21.0082C44.9736 15.307 44.9473 14.5934 44.8418 12.3539C44.7363 10.1227 44.3496 8.58867 43.7959 7.25977C43.2422 5.86523 42.4775 4.69219 41.2207 3.52734C39.9727 2.3625 38.7158 1.64062 37.2393 1.10742C35.8066 0.590625 34.1719 0.229688 31.7813 0.13125C29.373 0.0246094 28.6084 0 22.5 0Z" fill="white"/>
<path d="M22.499 10.2129C16.1182 10.2129 10.9414 15.0445 10.9414 21C10.9414 26.9555 16.1182 31.7871 22.499 31.7871C28.8799 31.7871 34.0566 26.9555 34.0566 21C34.0566 15.0445 28.8799 10.2129 22.499 10.2129ZM22.499 27.9973C18.3594 27.9973 15.002 24.8637 15.002 21C15.002 17.1363 18.3594 14.0027 22.499 14.0027C26.6387 14.0027 29.9961 17.1363 29.9961 21C29.9961 24.8637 26.6387 27.9973 22.499 27.9973Z" fill="white"/>
<path d="M37.2129 9.78594C37.2129 11.1805 36 12.3043 34.5146 12.3043C33.0205 12.3043 31.8164 11.1723 31.8164 9.78594C31.8164 8.39141 33.0293 7.26758 34.5146 7.26758C36 7.26758 37.2129 8.39961 37.2129 9.78594Z" fill="white"/>
</g>
<defs>
<clipPath id="clip0_5415_5668">
<rect width="45" height="42" fill="white"/>
</clipPath>
</defs>
</svg>
