<svg width="10" height="9" viewBox="0 0 10 9" fill="none" xmlns="http://www.w3.org/2000/svg">
<path d="M5.59591 1.22259L6.33362 2.7102C6.43422 2.91728 6.70248 3.11591 6.92882 3.15395L8.26592 3.37794C9.12099 3.52163 9.32219 4.1471 8.70603 4.76412L7.66653 5.81221C7.49049 5.98971 7.39408 6.33203 7.44857 6.57715L7.74617 7.87459C7.9809 8.90155 7.44019 9.29881 6.53901 8.76208L5.28574 8.01405C5.0594 7.87881 4.68635 7.87881 4.45581 8.01405L3.20255 8.76208C2.30556 9.29881 1.76066 8.89732 1.99538 7.87459L2.29298 6.57715C2.34747 6.33203 2.25107 5.98971 2.07502 5.81221L1.03552 4.76412C0.423556 4.1471 0.620559 3.52163 1.47563 3.37794L2.81273 3.15395C3.03488 3.11591 3.30314 2.91728 3.40374 2.7102L4.14145 1.22259C4.54384 0.415388 5.19772 0.415388 5.59591 1.22259Z" fill="white"/>
</svg>
