<svg width="7" height="8" viewBox="0 0 7 8" fill="none" xmlns="http://www.w3.org/2000/svg">
<path d="M4.02473 1.34263L4.62105 2.54929C4.70236 2.71726 4.9192 2.87837 5.10216 2.90923L6.18299 3.09091C6.87417 3.20746 7.0368 3.71481 6.53874 4.2153L5.69848 5.06544C5.55618 5.20942 5.47825 5.48709 5.5223 5.68591L5.76286 6.73831C5.95259 7.57132 5.51552 7.89355 4.78707 7.4582L3.77401 6.85144C3.59105 6.74174 3.2895 6.74174 3.10315 6.85144L2.09009 7.4582C1.36503 7.89355 0.924565 7.56789 1.1143 6.73831L1.35486 5.68591C1.39891 5.48709 1.32098 5.20942 1.17868 5.06544L0.338413 4.2153C-0.156258 3.71481 0.00298542 3.20746 0.69417 3.09091L1.77499 2.90923C1.95456 2.87837 2.17141 2.71726 2.25272 2.54929L2.84904 1.34263C3.1743 0.687875 3.70285 0.687875 4.02473 1.34263Z" fill="white"/>
</svg>
