<svg width="30" height="28" viewBox="0 0 30 28" fill="none" xmlns="http://www.w3.org/2000/svg">
<path d="M29.1531 0.814776C28.4028 0.0960373 27.2923 -0.171728 26.2569 0.11013L2.11199 6.66333C1.01955 6.9466 0.245231 7.75976 0.0366452 8.79277C-0.176442 9.8441 0.567863 11.1787 1.54026 11.7368L9.08985 16.0675C9.86417 16.5115 10.8636 16.4001 11.5043 15.7969L20.1494 7.67802C20.5846 7.25524 21.3049 7.25524 21.74 7.67802C22.1752 8.08672 22.1752 8.74908 21.74 9.17187L13.08 17.2922C12.4377 17.894 12.3177 18.8312 12.7904 19.5583L17.4033 26.6753C17.9435 27.5208 18.8739 28 19.8943 28C20.0143 28 20.1494 28 20.2694 27.9859C21.4399 27.845 22.3703 27.0981 22.7154 26.0411L29.8734 3.53471C30.1885 2.57639 29.9034 1.53351 29.1531 0.814776Z" fill="#1D1050"/>
</svg>
