<svg width="16" height="16" viewBox="0 0 16 16" fill="none" xmlns="http://www.w3.org/2000/svg">
<g clip-path="url(#clip0_5406_3037)">
<path fill-rule="evenodd" clip-rule="evenodd" d="M0.0136719 8.41408C0.0136719 6.4234 0.856257 4.51425 2.35607 3.10662C3.85588 1.699 5.89006 0.908203 8.01112 0.908203C10.1322 0.908203 12.1664 1.699 13.6662 3.10662C15.166 4.51425 16.0086 6.4234 16.0086 8.41408C16.0086 10.4048 15.166 12.3139 13.6662 13.7215C12.1664 15.1292 10.1322 15.92 8.01112 15.92C5.89006 15.92 3.85588 15.1292 2.35607 13.7215C0.856257 12.3139 0.0136719 10.4048 0.0136719 8.41408H0.0136719ZM7.55473 11.6266L12.1591 6.22437L11.3274 5.59988L7.40118 10.2045L4.6202 8.02978L3.93775 8.79838L7.55473 11.6276V11.6266Z" fill="black"/>
</g>
<defs>
<clipPath id="clip0_5406_3037">
<rect width="15.9949" height="15.0118" fill="white" transform="translate(0.0136719 0.908203)"/>
</clipPath>
</defs>
</svg>
