<svg width="506" height="68" viewBox="0 0 506 68" fill="none" xmlns="http://www.w3.org/2000/svg">
<g filter="url(#filter0_dd_5377_4345)">
<path d="M501.623 28.6259C501.623 29.5059 501.568 30.4226 501.458 31.3759H480.173C480.32 33.2826 480.925 34.7493 481.988 35.7759C483.088 36.7659 484.427 37.2609 486.003 37.2609C488.35 37.2609 489.982 36.2709 490.898 34.2909H500.908C500.395 36.3076 499.46 38.1226 498.103 39.7359C496.783 41.3493 495.115 42.6143 493.098 43.5309C491.082 44.4476 488.827 44.9059 486.333 44.9059C483.327 44.9059 480.65 44.2643 478.303 42.9809C475.957 41.6976 474.123 39.8643 472.803 37.4809C471.483 35.0976 470.823 32.3109 470.823 29.1209C470.823 25.9309 471.465 23.1443 472.748 20.7609C474.068 18.3776 475.902 16.5443 478.248 15.2609C480.595 13.9776 483.29 13.3359 486.333 13.3359C489.303 13.3359 491.943 13.9593 494.253 15.2059C496.563 16.4526 498.36 18.2309 499.643 20.5409C500.963 22.8509 501.623 25.5459 501.623 28.6259ZM491.998 26.1509C491.998 24.5376 491.448 23.2543 490.348 22.3009C489.248 21.3476 487.873 20.8709 486.223 20.8709C484.647 20.8709 483.308 21.3293 482.208 22.2459C481.145 23.1626 480.485 24.4643 480.228 26.1509H491.998Z" fill="white"/>
</g>
<g filter="url(#filter1_dd_5377_4345)">
<path d="M436.723 29.1209C436.723 25.9309 437.364 23.1443 438.648 20.7609C439.968 18.3776 441.783 16.5443 444.093 15.2609C446.439 13.9776 449.116 13.3359 452.123 13.3359C455.973 13.3359 459.181 14.3443 461.748 16.3609C464.351 18.3776 466.056 21.2193 466.863 24.8859H456.853C456.009 22.5393 454.378 21.3659 451.958 21.3659C450.234 21.3659 448.859 22.0443 447.833 23.4009C446.806 24.7209 446.293 26.6276 446.293 29.1209C446.293 31.6143 446.806 33.5393 447.833 34.8959C448.859 36.2159 450.234 36.8759 451.958 36.8759C454.378 36.8759 456.009 35.7026 456.853 33.3559H466.863C466.056 36.9493 464.351 39.7726 461.748 41.8259C459.144 43.8793 455.936 44.9059 452.123 44.9059C449.116 44.9059 446.439 44.2643 444.093 42.9809C441.783 41.6976 439.968 39.8643 438.648 37.4809C437.364 35.0976 436.723 32.3109 436.723 29.1209Z" fill="white"/>
</g>
<g filter="url(#filter2_dd_5377_4345)">
<path d="M423.673 18.8903C424.773 17.2036 426.148 15.8836 427.798 14.9303C429.448 13.9403 431.281 13.4453 433.298 13.4453V23.4003H430.713C428.366 23.4003 426.606 23.9136 425.433 24.9403C424.259 25.9303 423.673 27.6903 423.673 30.2203V44.4653H414.268V13.7753H423.673V18.8903Z" fill="white"/>
</g>
<g filter="url(#filter3_dd_5377_4345)">
<path d="M392.418 44.9059C389.411 44.9059 386.698 44.2643 384.278 42.9809C381.895 41.6976 380.006 39.8643 378.613 37.4809C377.256 35.0976 376.578 32.3109 376.578 29.1209C376.578 25.9676 377.275 23.1993 378.668 20.8159C380.061 18.3959 381.968 16.5443 384.388 15.2609C386.808 13.9776 389.521 13.3359 392.528 13.3359C395.535 13.3359 398.248 13.9776 400.668 15.2609C403.088 16.5443 404.995 18.3959 406.388 20.8159C407.781 23.1993 408.478 25.9676 408.478 29.1209C408.478 32.2743 407.763 35.0609 406.333 37.4809C404.94 39.8643 403.015 41.6976 400.558 42.9809C398.138 44.2643 395.425 44.9059 392.418 44.9059ZM392.418 36.7659C394.215 36.7659 395.736 36.1059 396.983 34.7859C398.266 33.4659 398.908 31.5776 398.908 29.1209C398.908 26.6643 398.285 24.7759 397.038 23.4559C395.828 22.1359 394.325 21.4759 392.528 21.4759C390.695 21.4759 389.173 22.1359 387.963 23.4559C386.753 24.7393 386.148 26.6276 386.148 29.1209C386.148 31.5776 386.735 33.4659 387.908 34.7859C389.118 36.1059 390.621 36.7659 392.418 36.7659Z" fill="white"/>
</g>
<g filter="url(#filter4_dd_5377_4345)">
<path d="M372.705 5.85547V13.3905H356.975V21.5305H368.745V28.8455H356.975V44.4655H347.57V5.85547H372.705Z" fill="white"/>
</g>
<g filter="url(#filter5_dd_5377_4345)">
<path d="M308.645 13.3359C310.809 13.3359 312.697 13.7759 314.31 14.6559C315.96 15.5359 317.225 16.6909 318.105 18.1209V13.7759H327.51V44.4109C327.51 47.2343 326.942 49.7826 325.805 52.0559C324.705 54.3659 323 56.1993 320.69 57.5559C318.417 58.9126 315.575 59.5909 312.165 59.5909C307.619 59.5909 303.934 58.5093 301.11 56.3459C298.287 54.2193 296.674 51.3226 296.27 47.6559H305.565C305.859 48.8293 306.555 49.7459 307.655 50.4059C308.755 51.1026 310.112 51.4509 311.725 51.4509C313.669 51.4509 315.209 50.8826 316.345 49.7459C317.519 48.6459 318.105 46.8676 318.105 44.4109V40.0659C317.189 41.4959 315.924 42.6693 314.31 43.5859C312.697 44.4659 310.809 44.9059 308.645 44.9059C306.115 44.9059 303.824 44.2643 301.77 42.9809C299.717 41.6609 298.085 39.8093 296.875 37.4259C295.702 35.0059 295.115 32.2193 295.115 29.0659C295.115 25.9126 295.702 23.1443 296.875 20.7609C298.085 18.3776 299.717 16.5443 301.77 15.2609C303.824 13.9776 306.115 13.3359 308.645 13.3359ZM318.105 29.1209C318.105 26.7743 317.445 24.9226 316.125 23.5659C314.842 22.2093 313.265 21.5309 311.395 21.5309C309.525 21.5309 307.93 22.2093 306.61 23.5659C305.327 24.8859 304.685 26.7193 304.685 29.0659C304.685 31.4126 305.327 33.2826 306.61 34.6759C307.93 36.0326 309.525 36.7109 311.395 36.7109C313.265 36.7109 314.842 36.0326 316.125 34.6759C317.445 33.3193 318.105 31.4676 318.105 29.1209Z" fill="white"/>
</g>
<g filter="url(#filter6_dd_5377_4345)">
<path d="M277.825 13.4453C281.418 13.4453 284.278 14.6186 286.405 16.9653C288.568 19.2753 289.65 22.4653 289.65 26.5353V44.4653H280.3V27.8003C280.3 25.747 279.768 24.152 278.705 23.0153C277.642 21.8786 276.212 21.3103 274.415 21.3103C272.618 21.3103 271.188 21.8786 270.125 23.0153C269.062 24.152 268.53 25.747 268.53 27.8003V44.4653H259.125V13.7753H268.53V17.8453C269.483 16.4886 270.767 15.4253 272.38 14.6553C273.993 13.8486 275.808 13.4453 277.825 13.4453Z" fill="white"/>
</g>
<g filter="url(#filter7_dd_5377_4345)">
<path d="M246.835 10.5852C245.185 10.5852 243.828 10.1085 242.765 9.15516C241.738 8.16516 241.225 6.95516 241.225 5.52516C241.225 4.05849 241.738 2.84849 242.765 1.89516C243.828 0.905156 245.185 0.410156 246.835 0.410156C248.448 0.410156 249.768 0.905156 250.795 1.89516C251.858 2.84849 252.39 4.05849 252.39 5.52516C252.39 6.95516 251.858 8.16516 250.795 9.15516C249.768 10.1085 248.448 10.5852 246.835 10.5852ZM251.51 13.7752V44.4652H242.105V13.7752H251.51Z" fill="white"/>
</g>
<g filter="url(#filter8_dd_5377_4345)">
<path d="M220.681 35.6654L227.336 13.7754H237.346L226.456 44.4654H214.851L203.961 13.7754H214.026L220.681 35.6654Z" fill="white"/>
</g>
<g filter="url(#filter9_dd_5377_4345)">
<path d="M194.585 10.5852C192.935 10.5852 191.578 10.1085 190.515 9.15516C189.488 8.16516 188.975 6.95516 188.975 5.52516C188.975 4.05849 189.488 2.84849 190.515 1.89516C191.578 0.905156 192.935 0.410156 194.585 0.410156C196.198 0.410156 197.518 0.905156 198.545 1.89516C199.608 2.84849 200.14 4.05849 200.14 5.52516C200.14 6.95516 199.608 8.16516 198.545 9.15516C197.518 10.1085 196.198 10.5852 194.585 10.5852ZM199.26 13.7752V44.4652H189.855V13.7752H199.26Z" fill="white"/>
</g>
<g filter="url(#filter10_dd_5377_4345)">
<path d="M174.934 18.8903C176.034 17.2036 177.409 15.8836 179.059 14.9303C180.709 13.9403 182.543 13.4453 184.559 13.4453V23.4003H181.974C179.628 23.4003 177.868 23.9136 176.694 24.9403C175.521 25.9303 174.934 27.6903 174.934 30.2203V44.4653H165.529V13.7753H174.934V18.8903Z" fill="white"/>
</g>
<g filter="url(#filter11_dd_5377_4345)">
<path d="M139.234 5.85547C143.304 5.85547 146.86 6.66213 149.904 8.27547C152.947 9.8888 155.294 12.1621 156.944 15.0955C158.63 17.9921 159.474 21.3471 159.474 25.1605C159.474 28.9371 158.63 32.2921 156.944 35.2255C155.294 38.1588 152.929 40.4321 149.849 42.0455C146.805 43.6588 143.267 44.4655 139.234 44.4655H124.769V5.85547H139.234ZM138.629 36.3255C142.185 36.3255 144.954 35.3538 146.934 33.4105C148.914 31.4671 149.904 28.7171 149.904 25.1605C149.904 21.6038 148.914 18.8355 146.934 16.8555C144.954 14.8755 142.185 13.8855 138.629 13.8855H134.174V36.3255H138.629Z" fill="white"/>
</g>
<g filter="url(#filter12_dd_5377_4345)">
<path d="M106.552 28.6259C106.552 29.5059 106.497 30.4226 106.387 31.3759H85.102C85.2486 33.2826 85.8536 34.7493 86.917 35.7759C88.017 36.7659 89.3553 37.2609 90.932 37.2609C93.2786 37.2609 94.9103 36.2709 95.827 34.2909H105.837C105.324 36.3076 104.389 38.1226 103.032 39.7359C101.712 41.3493 100.044 42.6143 98.027 43.5309C96.0103 44.4476 93.7553 44.9059 91.262 44.9059C88.2553 44.9059 85.5786 44.2643 83.2319 42.9809C80.8853 41.6976 79.0519 39.8643 77.7319 37.4809C76.4119 35.0976 75.752 32.3109 75.752 29.1209C75.752 25.9309 76.3936 23.1443 77.6769 20.7609C78.9969 18.3776 80.8303 16.5443 83.1769 15.2609C85.5236 13.9776 88.2186 13.3359 91.262 13.3359C94.232 13.3359 96.872 13.9593 99.182 15.2059C101.492 16.4526 103.289 18.2309 104.572 20.5409C105.892 22.8509 106.552 25.5459 106.552 28.6259ZM96.927 26.1509C96.927 24.5376 96.377 23.2543 95.277 22.3009C94.177 21.3476 92.802 20.8709 91.152 20.8709C89.5753 20.8709 88.237 21.3293 87.137 22.2459C86.0736 23.1626 85.4136 24.4643 85.157 26.1509H96.927Z" fill="white"/>
</g>
<g filter="url(#filter13_dd_5377_4345)">
<path d="M58.6257 13.4456C62.1457 13.4456 64.9691 14.619 67.0957 16.9656C69.2224 19.2756 70.2857 22.4656 70.2857 26.5356V44.4656H60.9357V27.8006C60.9357 25.7473 60.4041 24.1523 59.3407 23.0156C58.2774 21.879 56.8474 21.3106 55.0507 21.3106C53.2541 21.3106 51.8241 21.879 50.7607 23.0156C49.6974 24.1523 49.1657 25.7473 49.1657 27.8006V44.4656H39.7607V3.76562H49.1657V17.9006C50.1191 16.544 51.4207 15.4623 53.0707 14.6556C54.7207 13.849 56.5724 13.4456 58.6257 13.4456Z" fill="white"/>
</g>
<g filter="url(#filter14_dd_5377_4345)">
<path d="M34.241 5.85547V13.3905H24.011V44.4655H14.606V13.3905H4.37598V5.85547H34.241Z" fill="white"/>
</g>
<defs>
<filter id="filter0_dd_5377_4345" x="466.823" y="13.3359" width="38.7998" height="39.5703" filterUnits="userSpaceOnUse" color-interpolation-filters="sRGB">
<feFlood flood-opacity="0" result="BackgroundImageFix"/>
<feColorMatrix in="SourceAlpha" type="matrix" values="0 0 0 0 0 0 0 0 0 0 0 0 0 0 0 0 0 0 127 0" result="hardAlpha"/>
<feOffset dy="4"/>
<feGaussianBlur stdDeviation="2"/>
<feComposite in2="hardAlpha" operator="out"/>
<feColorMatrix type="matrix" values="0 0 0 0 0 0 0 0 0 0 0 0 0 0 0 0 0 0 0.25 0"/>
<feBlend mode="normal" in2="BackgroundImageFix" result="effect1_dropShadow_5377_4345"/>
<feColorMatrix in="SourceAlpha" type="matrix" values="0 0 0 0 0 0 0 0 0 0 0 0 0 0 0 0 0 0 127 0" result="hardAlpha"/>
<feOffset dy="4"/>
<feGaussianBlur stdDeviation="2"/>
<feComposite in2="hardAlpha" operator="out"/>
<feColorMatrix type="matrix" values="0 0 0 0 0 0 0 0 0 0 0 0 0 0 0 0 0 0 0.25 0"/>
<feBlend mode="normal" in2="effect1_dropShadow_5377_4345" result="effect2_dropShadow_5377_4345"/>
<feBlend mode="normal" in="SourceGraphic" in2="effect2_dropShadow_5377_4345" result="shape"/>
</filter>
<filter id="filter1_dd_5377_4345" x="432.723" y="13.3359" width="38.1396" height="39.5703" filterUnits="userSpaceOnUse" color-interpolation-filters="sRGB">
<feFlood flood-opacity="0" result="BackgroundImageFix"/>
<feColorMatrix in="SourceAlpha" type="matrix" values="0 0 0 0 0 0 0 0 0 0 0 0 0 0 0 0 0 0 127 0" result="hardAlpha"/>
<feOffset dy="4"/>
<feGaussianBlur stdDeviation="2"/>
<feComposite in2="hardAlpha" operator="out"/>
<feColorMatrix type="matrix" values="0 0 0 0 0 0 0 0 0 0 0 0 0 0 0 0 0 0 0.25 0"/>
<feBlend mode="normal" in2="BackgroundImageFix" result="effect1_dropShadow_5377_4345"/>
<feColorMatrix in="SourceAlpha" type="matrix" values="0 0 0 0 0 0 0 0 0 0 0 0 0 0 0 0 0 0 127 0" result="hardAlpha"/>
<feOffset dy="4"/>
<feGaussianBlur stdDeviation="2"/>
<feComposite in2="hardAlpha" operator="out"/>
<feColorMatrix type="matrix" values="0 0 0 0 0 0 0 0 0 0 0 0 0 0 0 0 0 0 0.25 0"/>
<feBlend mode="normal" in2="effect1_dropShadow_5377_4345" result="effect2_dropShadow_5377_4345"/>
<feBlend mode="normal" in="SourceGraphic" in2="effect2_dropShadow_5377_4345" result="shape"/>
</filter>
<filter id="filter2_dd_5377_4345" x="410.268" y="13.4453" width="27.0303" height="39.0195" filterUnits="userSpaceOnUse" color-interpolation-filters="sRGB">
<feFlood flood-opacity="0" result="BackgroundImageFix"/>
<feColorMatrix in="SourceAlpha" type="matrix" values="0 0 0 0 0 0 0 0 0 0 0 0 0 0 0 0 0 0 127 0" result="hardAlpha"/>
<feOffset dy="4"/>
<feGaussianBlur stdDeviation="2"/>
<feComposite in2="hardAlpha" operator="out"/>
<feColorMatrix type="matrix" values="0 0 0 0 0 0 0 0 0 0 0 0 0 0 0 0 0 0 0.25 0"/>
<feBlend mode="normal" in2="BackgroundImageFix" result="effect1_dropShadow_5377_4345"/>
<feColorMatrix in="SourceAlpha" type="matrix" values="0 0 0 0 0 0 0 0 0 0 0 0 0 0 0 0 0 0 127 0" result="hardAlpha"/>
<feOffset dy="4"/>
<feGaussianBlur stdDeviation="2"/>
<feComposite in2="hardAlpha" operator="out"/>
<feColorMatrix type="matrix" values="0 0 0 0 0 0 0 0 0 0 0 0 0 0 0 0 0 0 0.25 0"/>
<feBlend mode="normal" in2="effect1_dropShadow_5377_4345" result="effect2_dropShadow_5377_4345"/>
<feBlend mode="normal" in="SourceGraphic" in2="effect2_dropShadow_5377_4345" result="shape"/>
</filter>
<filter id="filter3_dd_5377_4345" x="372.578" y="13.3359" width="39.9004" height="39.5703" filterUnits="userSpaceOnUse" color-interpolation-filters="sRGB">
<feFlood flood-opacity="0" result="BackgroundImageFix"/>
<feColorMatrix in="SourceAlpha" type="matrix" values="0 0 0 0 0 0 0 0 0 0 0 0 0 0 0 0 0 0 127 0" result="hardAlpha"/>
<feOffset dy="4"/>
<feGaussianBlur stdDeviation="2"/>
<feComposite in2="hardAlpha" operator="out"/>
<feColorMatrix type="matrix" values="0 0 0 0 0 0 0 0 0 0 0 0 0 0 0 0 0 0 0.25 0"/>
<feBlend mode="normal" in2="BackgroundImageFix" result="effect1_dropShadow_5377_4345"/>
<feColorMatrix in="SourceAlpha" type="matrix" values="0 0 0 0 0 0 0 0 0 0 0 0 0 0 0 0 0 0 127 0" result="hardAlpha"/>
<feOffset dy="4"/>
<feGaussianBlur stdDeviation="2"/>
<feComposite in2="hardAlpha" operator="out"/>
<feColorMatrix type="matrix" values="0 0 0 0 0 0 0 0 0 0 0 0 0 0 0 0 0 0 0.25 0"/>
<feBlend mode="normal" in2="effect1_dropShadow_5377_4345" result="effect2_dropShadow_5377_4345"/>
<feBlend mode="normal" in="SourceGraphic" in2="effect2_dropShadow_5377_4345" result="shape"/>
</filter>
<filter id="filter4_dd_5377_4345" x="343.57" y="5.85547" width="33.1348" height="46.6094" filterUnits="userSpaceOnUse" color-interpolation-filters="sRGB">
<feFlood flood-opacity="0" result="BackgroundImageFix"/>
<feColorMatrix in="SourceAlpha" type="matrix" values="0 0 0 0 0 0 0 0 0 0 0 0 0 0 0 0 0 0 127 0" result="hardAlpha"/>
<feOffset dy="4"/>
<feGaussianBlur stdDeviation="2"/>
<feComposite in2="hardAlpha" operator="out"/>
<feColorMatrix type="matrix" values="0 0 0 0 0 0 0 0 0 0 0 0 0 0 0 0 0 0 0.25 0"/>
<feBlend mode="normal" in2="BackgroundImageFix" result="effect1_dropShadow_5377_4345"/>
<feColorMatrix in="SourceAlpha" type="matrix" values="0 0 0 0 0 0 0 0 0 0 0 0 0 0 0 0 0 0 127 0" result="hardAlpha"/>
<feOffset dy="4"/>
<feGaussianBlur stdDeviation="2"/>
<feComposite in2="hardAlpha" operator="out"/>
<feColorMatrix type="matrix" values="0 0 0 0 0 0 0 0 0 0 0 0 0 0 0 0 0 0 0.25 0"/>
<feBlend mode="normal" in2="effect1_dropShadow_5377_4345" result="effect2_dropShadow_5377_4345"/>
<feBlend mode="normal" in="SourceGraphic" in2="effect2_dropShadow_5377_4345" result="shape"/>
</filter>
<filter id="filter5_dd_5377_4345" x="291.115" y="13.3359" width="40.3945" height="54.2559" filterUnits="userSpaceOnUse" color-interpolation-filters="sRGB">
<feFlood flood-opacity="0" result="BackgroundImageFix"/>
<feColorMatrix in="SourceAlpha" type="matrix" values="0 0 0 0 0 0 0 0 0 0 0 0 0 0 0 0 0 0 127 0" result="hardAlpha"/>
<feOffset dy="4"/>
<feGaussianBlur stdDeviation="2"/>
<feComposite in2="hardAlpha" operator="out"/>
<feColorMatrix type="matrix" values="0 0 0 0 0 0 0 0 0 0 0 0 0 0 0 0 0 0 0.25 0"/>
<feBlend mode="normal" in2="BackgroundImageFix" result="effect1_dropShadow_5377_4345"/>
<feColorMatrix in="SourceAlpha" type="matrix" values="0 0 0 0 0 0 0 0 0 0 0 0 0 0 0 0 0 0 127 0" result="hardAlpha"/>
<feOffset dy="4"/>
<feGaussianBlur stdDeviation="2"/>
<feComposite in2="hardAlpha" operator="out"/>
<feColorMatrix type="matrix" values="0 0 0 0 0 0 0 0 0 0 0 0 0 0 0 0 0 0 0.25 0"/>
<feBlend mode="normal" in2="effect1_dropShadow_5377_4345" result="effect2_dropShadow_5377_4345"/>
<feBlend mode="normal" in="SourceGraphic" in2="effect2_dropShadow_5377_4345" result="shape"/>
</filter>
<filter id="filter6_dd_5377_4345" x="255.125" y="13.4453" width="38.5254" height="39.0195" filterUnits="userSpaceOnUse" color-interpolation-filters="sRGB">
<feFlood flood-opacity="0" result="BackgroundImageFix"/>
<feColorMatrix in="SourceAlpha" type="matrix" values="0 0 0 0 0 0 0 0 0 0 0 0 0 0 0 0 0 0 127 0" result="hardAlpha"/>
<feOffset dy="4"/>
<feGaussianBlur stdDeviation="2"/>
<feComposite in2="hardAlpha" operator="out"/>
<feColorMatrix type="matrix" values="0 0 0 0 0 0 0 0 0 0 0 0 0 0 0 0 0 0 0.25 0"/>
<feBlend mode="normal" in2="BackgroundImageFix" result="effect1_dropShadow_5377_4345"/>
<feColorMatrix in="SourceAlpha" type="matrix" values="0 0 0 0 0 0 0 0 0 0 0 0 0 0 0 0 0 0 127 0" result="hardAlpha"/>
<feOffset dy="4"/>
<feGaussianBlur stdDeviation="2"/>
<feComposite in2="hardAlpha" operator="out"/>
<feColorMatrix type="matrix" values="0 0 0 0 0 0 0 0 0 0 0 0 0 0 0 0 0 0 0.25 0"/>
<feBlend mode="normal" in2="effect1_dropShadow_5377_4345" result="effect2_dropShadow_5377_4345"/>
<feBlend mode="normal" in="SourceGraphic" in2="effect2_dropShadow_5377_4345" result="shape"/>
</filter>
<filter id="filter7_dd_5377_4345" x="237.225" y="0.410156" width="19.165" height="52.0547" filterUnits="userSpaceOnUse" color-interpolation-filters="sRGB">
<feFlood flood-opacity="0" result="BackgroundImageFix"/>
<feColorMatrix in="SourceAlpha" type="matrix" values="0 0 0 0 0 0 0 0 0 0 0 0 0 0 0 0 0 0 127 0" result="hardAlpha"/>
<feOffset dy="4"/>
<feGaussianBlur stdDeviation="2"/>
<feComposite in2="hardAlpha" operator="out"/>
<feColorMatrix type="matrix" values="0 0 0 0 0 0 0 0 0 0 0 0 0 0 0 0 0 0 0.25 0"/>
<feBlend mode="normal" in2="BackgroundImageFix" result="effect1_dropShadow_5377_4345"/>
<feColorMatrix in="SourceAlpha" type="matrix" values="0 0 0 0 0 0 0 0 0 0 0 0 0 0 0 0 0 0 127 0" result="hardAlpha"/>
<feOffset dy="4"/>
<feGaussianBlur stdDeviation="2"/>
<feComposite in2="hardAlpha" operator="out"/>
<feColorMatrix type="matrix" values="0 0 0 0 0 0 0 0 0 0 0 0 0 0 0 0 0 0 0.25 0"/>
<feBlend mode="normal" in2="effect1_dropShadow_5377_4345" result="effect2_dropShadow_5377_4345"/>
<feBlend mode="normal" in="SourceGraphic" in2="effect2_dropShadow_5377_4345" result="shape"/>
</filter>
<filter id="filter8_dd_5377_4345" x="199.961" y="13.7754" width="41.3848" height="38.6895" filterUnits="userSpaceOnUse" color-interpolation-filters="sRGB">
<feFlood flood-opacity="0" result="BackgroundImageFix"/>
<feColorMatrix in="SourceAlpha" type="matrix" values="0 0 0 0 0 0 0 0 0 0 0 0 0 0 0 0 0 0 127 0" result="hardAlpha"/>
<feOffset dy="4"/>
<feGaussianBlur stdDeviation="2"/>
<feComposite in2="hardAlpha" operator="out"/>
<feColorMatrix type="matrix" values="0 0 0 0 0 0 0 0 0 0 0 0 0 0 0 0 0 0 0.25 0"/>
<feBlend mode="normal" in2="BackgroundImageFix" result="effect1_dropShadow_5377_4345"/>
<feColorMatrix in="SourceAlpha" type="matrix" values="0 0 0 0 0 0 0 0 0 0 0 0 0 0 0 0 0 0 127 0" result="hardAlpha"/>
<feOffset dy="4"/>
<feGaussianBlur stdDeviation="2"/>
<feComposite in2="hardAlpha" operator="out"/>
<feColorMatrix type="matrix" values="0 0 0 0 0 0 0 0 0 0 0 0 0 0 0 0 0 0 0.25 0"/>
<feBlend mode="normal" in2="effect1_dropShadow_5377_4345" result="effect2_dropShadow_5377_4345"/>
<feBlend mode="normal" in="SourceGraphic" in2="effect2_dropShadow_5377_4345" result="shape"/>
</filter>
<filter id="filter9_dd_5377_4345" x="184.975" y="0.410156" width="19.165" height="52.0547" filterUnits="userSpaceOnUse" color-interpolation-filters="sRGB">
<feFlood flood-opacity="0" result="BackgroundImageFix"/>
<feColorMatrix in="SourceAlpha" type="matrix" values="0 0 0 0 0 0 0 0 0 0 0 0 0 0 0 0 0 0 127 0" result="hardAlpha"/>
<feOffset dy="4"/>
<feGaussianBlur stdDeviation="2"/>
<feComposite in2="hardAlpha" operator="out"/>
<feColorMatrix type="matrix" values="0 0 0 0 0 0 0 0 0 0 0 0 0 0 0 0 0 0 0.25 0"/>
<feBlend mode="normal" in2="BackgroundImageFix" result="effect1_dropShadow_5377_4345"/>
<feColorMatrix in="SourceAlpha" type="matrix" values="0 0 0 0 0 0 0 0 0 0 0 0 0 0 0 0 0 0 127 0" result="hardAlpha"/>
<feOffset dy="4"/>
<feGaussianBlur stdDeviation="2"/>
<feComposite in2="hardAlpha" operator="out"/>
<feColorMatrix type="matrix" values="0 0 0 0 0 0 0 0 0 0 0 0 0 0 0 0 0 0 0.25 0"/>
<feBlend mode="normal" in2="effect1_dropShadow_5377_4345" result="effect2_dropShadow_5377_4345"/>
<feBlend mode="normal" in="SourceGraphic" in2="effect2_dropShadow_5377_4345" result="shape"/>
</filter>
<filter id="filter10_dd_5377_4345" x="161.529" y="13.4453" width="27.0303" height="39.0195" filterUnits="userSpaceOnUse" color-interpolation-filters="sRGB">
<feFlood flood-opacity="0" result="BackgroundImageFix"/>
<feColorMatrix in="SourceAlpha" type="matrix" values="0 0 0 0 0 0 0 0 0 0 0 0 0 0 0 0 0 0 127 0" result="hardAlpha"/>
<feOffset dy="4"/>
<feGaussianBlur stdDeviation="2"/>
<feComposite in2="hardAlpha" operator="out"/>
<feColorMatrix type="matrix" values="0 0 0 0 0 0 0 0 0 0 0 0 0 0 0 0 0 0 0.25 0"/>
<feBlend mode="normal" in2="BackgroundImageFix" result="effect1_dropShadow_5377_4345"/>
<feColorMatrix in="SourceAlpha" type="matrix" values="0 0 0 0 0 0 0 0 0 0 0 0 0 0 0 0 0 0 127 0" result="hardAlpha"/>
<feOffset dy="4"/>
<feGaussianBlur stdDeviation="2"/>
<feComposite in2="hardAlpha" operator="out"/>
<feColorMatrix type="matrix" values="0 0 0 0 0 0 0 0 0 0 0 0 0 0 0 0 0 0 0.25 0"/>
<feBlend mode="normal" in2="effect1_dropShadow_5377_4345" result="effect2_dropShadow_5377_4345"/>
<feBlend mode="normal" in="SourceGraphic" in2="effect2_dropShadow_5377_4345" result="shape"/>
</filter>
<filter id="filter11_dd_5377_4345" x="120.769" y="5.85547" width="42.7051" height="46.6094" filterUnits="userSpaceOnUse" color-interpolation-filters="sRGB">
<feFlood flood-opacity="0" result="BackgroundImageFix"/>
<feColorMatrix in="SourceAlpha" type="matrix" values="0 0 0 0 0 0 0 0 0 0 0 0 0 0 0 0 0 0 127 0" result="hardAlpha"/>
<feOffset dy="4"/>
<feGaussianBlur stdDeviation="2"/>
<feComposite in2="hardAlpha" operator="out"/>
<feColorMatrix type="matrix" values="0 0 0 0 0 0 0 0 0 0 0 0 0 0 0 0 0 0 0.25 0"/>
<feBlend mode="normal" in2="BackgroundImageFix" result="effect1_dropShadow_5377_4345"/>
<feColorMatrix in="SourceAlpha" type="matrix" values="0 0 0 0 0 0 0 0 0 0 0 0 0 0 0 0 0 0 127 0" result="hardAlpha"/>
<feOffset dy="4"/>
<feGaussianBlur stdDeviation="2"/>
<feComposite in2="hardAlpha" operator="out"/>
<feColorMatrix type="matrix" values="0 0 0 0 0 0 0 0 0 0 0 0 0 0 0 0 0 0 0.25 0"/>
<feBlend mode="normal" in2="effect1_dropShadow_5377_4345" result="effect2_dropShadow_5377_4345"/>
<feBlend mode="normal" in="SourceGraphic" in2="effect2_dropShadow_5377_4345" result="shape"/>
</filter>
<filter id="filter12_dd_5377_4345" x="71.752" y="13.3359" width="38.7998" height="39.5703" filterUnits="userSpaceOnUse" color-interpolation-filters="sRGB">
<feFlood flood-opacity="0" result="BackgroundImageFix"/>
<feColorMatrix in="SourceAlpha" type="matrix" values="0 0 0 0 0 0 0 0 0 0 0 0 0 0 0 0 0 0 127 0" result="hardAlpha"/>
<feOffset dy="4"/>
<feGaussianBlur stdDeviation="2"/>
<feComposite in2="hardAlpha" operator="out"/>
<feColorMatrix type="matrix" values="0 0 0 0 0 0 0 0 0 0 0 0 0 0 0 0 0 0 0.25 0"/>
<feBlend mode="normal" in2="BackgroundImageFix" result="effect1_dropShadow_5377_4345"/>
<feColorMatrix in="SourceAlpha" type="matrix" values="0 0 0 0 0 0 0 0 0 0 0 0 0 0 0 0 0 0 127 0" result="hardAlpha"/>
<feOffset dy="4"/>
<feGaussianBlur stdDeviation="2"/>
<feComposite in2="hardAlpha" operator="out"/>
<feColorMatrix type="matrix" values="0 0 0 0 0 0 0 0 0 0 0 0 0 0 0 0 0 0 0.25 0"/>
<feBlend mode="normal" in2="effect1_dropShadow_5377_4345" result="effect2_dropShadow_5377_4345"/>
<feBlend mode="normal" in="SourceGraphic" in2="effect2_dropShadow_5377_4345" result="shape"/>
</filter>
<filter id="filter13_dd_5377_4345" x="35.7607" y="3.76562" width="38.5254" height="48.6992" filterUnits="userSpaceOnUse" color-interpolation-filters="sRGB">
<feFlood flood-opacity="0" result="BackgroundImageFix"/>
<feColorMatrix in="SourceAlpha" type="matrix" values="0 0 0 0 0 0 0 0 0 0 0 0 0 0 0 0 0 0 127 0" result="hardAlpha"/>
<feOffset dy="4"/>
<feGaussianBlur stdDeviation="2"/>
<feComposite in2="hardAlpha" operator="out"/>
<feColorMatrix type="matrix" values="0 0 0 0 0 0 0 0 0 0 0 0 0 0 0 0 0 0 0.25 0"/>
<feBlend mode="normal" in2="BackgroundImageFix" result="effect1_dropShadow_5377_4345"/>
<feColorMatrix in="SourceAlpha" type="matrix" values="0 0 0 0 0 0 0 0 0 0 0 0 0 0 0 0 0 0 127 0" result="hardAlpha"/>
<feOffset dy="4"/>
<feGaussianBlur stdDeviation="2"/>
<feComposite in2="hardAlpha" operator="out"/>
<feColorMatrix type="matrix" values="0 0 0 0 0 0 0 0 0 0 0 0 0 0 0 0 0 0 0.25 0"/>
<feBlend mode="normal" in2="effect1_dropShadow_5377_4345" result="effect2_dropShadow_5377_4345"/>
<feBlend mode="normal" in="SourceGraphic" in2="effect2_dropShadow_5377_4345" result="shape"/>
</filter>
<filter id="filter14_dd_5377_4345" x="0.375977" y="5.85547" width="37.8652" height="46.6094" filterUnits="userSpaceOnUse" color-interpolation-filters="sRGB">
<feFlood flood-opacity="0" result="BackgroundImageFix"/>
<feColorMatrix in="SourceAlpha" type="matrix" values="0 0 0 0 0 0 0 0 0 0 0 0 0 0 0 0 0 0 127 0" result="hardAlpha"/>
<feOffset dy="4"/>
<feGaussianBlur stdDeviation="2"/>
<feComposite in2="hardAlpha" operator="out"/>
<feColorMatrix type="matrix" values="0 0 0 0 0 0 0 0 0 0 0 0 0 0 0 0 0 0 0.25 0"/>
<feBlend mode="normal" in2="BackgroundImageFix" result="effect1_dropShadow_5377_4345"/>
<feColorMatrix in="SourceAlpha" type="matrix" values="0 0 0 0 0 0 0 0 0 0 0 0 0 0 0 0 0 0 127 0" result="hardAlpha"/>
<feOffset dy="4"/>
<feGaussianBlur stdDeviation="2"/>
<feComposite in2="hardAlpha" operator="out"/>
<feColorMatrix type="matrix" values="0 0 0 0 0 0 0 0 0 0 0 0 0 0 0 0 0 0 0.25 0"/>
<feBlend mode="normal" in2="effect1_dropShadow_5377_4345" result="effect2_dropShadow_5377_4345"/>
<feBlend mode="normal" in="SourceGraphic" in2="effect2_dropShadow_5377_4345" result="shape"/>
</filter>
</defs>
</svg>
