<svg width="93" height="127" viewBox="0 0 93 127" fill="none" xmlns="http://www.w3.org/2000/svg">
<path d="M6.68963 126.655H86.4707C89.7752 126.655 92.4542 124.086 92.4542 120.918V55.8988C92.4542 52.7305 89.7752 50.1618 86.4707 50.1618H80.4871V32.9509C80.4871 15.0252 65.2764 0.441406 46.5801 0.441406C27.8839 0.441406 12.6732 15.0252 12.6732 32.9509V50.1618H6.68963C3.3851 50.1618 0.706055 52.7305 0.706055 55.8988V120.918C0.706055 124.086 3.3851 126.655 6.68963 126.655ZM52.5637 90.3153V97.9699C52.5637 101.138 49.8847 103.707 46.5801 103.707C43.2756 103.707 40.5966 101.138 40.5966 97.9699V90.3153C38.176 88.5693 36.6075 85.793 36.6075 82.6713C36.6075 77.3991 41.0812 73.1097 46.5801 73.1097C52.0791 73.1097 56.5528 77.3991 56.5528 82.6713C56.5528 85.793 54.9843 88.5693 52.5637 90.3153ZM24.6404 32.9509C24.6404 21.3519 34.4825 11.9154 46.5801 11.9154C58.6777 11.9154 68.5199 21.3519 68.5199 32.9509V50.1618H24.6404V32.9509Z" fill="white"/>
</svg>
