<svg width="92" height="127" viewBox="0 0 92 127" fill="none" xmlns="http://www.w3.org/2000/svg">
<path d="M5.98358 126.213H85.7646C89.0691 126.213 91.7482 123.645 91.7482 120.476V55.4574C91.7482 52.2891 89.0691 49.7204 85.7646 49.7204H79.781V32.5095C79.781 14.5838 64.5704 0 45.8741 0C27.1778 0 11.9672 14.5838 11.9672 32.5095V49.7204H5.98358C2.67905 49.7204 0 52.2891 0 55.4574V120.476C0 123.645 2.67905 126.213 5.98358 126.213ZM51.8577 89.8739V97.5285C51.8577 100.697 49.1786 103.266 45.8741 103.266C42.5696 103.266 39.8905 100.697 39.8905 97.5285V89.8739C37.47 88.1279 35.9015 85.3516 35.9015 82.2299C35.9015 76.9577 40.3752 72.6683 45.8741 72.6683C51.373 72.6683 55.8467 76.9577 55.8467 82.2299C55.8467 85.3516 54.2782 88.1279 51.8577 89.8739ZM23.9343 32.5095C23.9343 20.9105 33.7765 11.4739 45.8741 11.4739C57.9717 11.4739 67.8139 20.9105 67.8139 32.5095V49.7204H23.9343V32.5095Z" fill="white"/>
</svg>
